solid OpenSCAD_Model
  facet normal -1 0 0
    outer loop
      vertex 42 94 6
      vertex 42 97 12
      vertex 42 97 6
    endloop
  endfacet
  facet normal -1 -0 0
    outer loop
      vertex 42 97 12
      vertex 42 94 6
      vertex 42 94 12
    endloop
  endfacet
  facet normal -1 0 0
    outer loop
      vertex 42 75 6
      vertex 42 78 12
      vertex 42 78 6
    endloop
  endfacet
  facet normal -1 -0 0
    outer loop
      vertex 42 78 12
      vertex 42 75 6
      vertex 42 75 12
    endloop
  endfacet
  facet normal 0 0 1
    outer loop
      vertex 42 162 12
      vertex 45 172 12
      vertex 42 169 12
    endloop
  endfacet
  facet normal 0 0 1
    outer loop
      vertex 45 172 12
      vertex 3 169 12
      vertex 42 169 12
    endloop
  endfacet
  facet normal 0 0 1
    outer loop
      vertex 0 172 12
      vertex 3 162 12
      vertex 3 169 12
    endloop
  endfacet
  facet normal 0 0 1
    outer loop
      vertex 3 162 12
      vertex 0 172 12
      vertex 3 97 12
    endloop
  endfacet
  facet normal 0 0 1
    outer loop
      vertex 3 97 12
      vertex 0 172 12
      vertex 3 75 12
    endloop
  endfacet
  facet normal 0 0 1
    outer loop
      vertex 0 0 12
      vertex 3 75 12
      vertex 0 172 12
    endloop
  endfacet
  facet normal 0 0 1
    outer loop
      vertex 3 75 12
      vertex 0 0 12
      vertex 3 10 12
    endloop
  endfacet
  facet normal -0 0 1
    outer loop
      vertex 0 172 12
      vertex 3 169 12
      vertex 45 172 12
    endloop
  endfacet
  facet normal 0 0 1
    outer loop
      vertex 45 172 12
      vertex 42 162 12
      vertex 45 94 12
    endloop
  endfacet
  facet normal -0 0 1
    outer loop
      vertex 42 97 12
      vertex 45 94 12
      vertex 42 162 12
    endloop
  endfacet
  facet normal 0 0 1
    outer loop
      vertex 45 94 12
      vertex 42 97 12
      vertex 42 94 12
    endloop
  endfacet
  facet normal -0 0 1
    outer loop
      vertex 3 162 12
      vertex 3.05276 97 12
      vertex 3.05276 162 12
    endloop
  endfacet
  facet normal 0 0 1
    outer loop
      vertex 3.05276 97 12
      vertex 3 162 12
      vertex 3 97 12
    endloop
  endfacet
  facet normal -0 0 1
    outer loop
      vertex 3 75 12
      vertex 3.05276 10 12
      vertex 3.05276 75 12
    endloop
  endfacet
  facet normal 0 0 1
    outer loop
      vertex 3.05276 10 12
      vertex 3 75 12
      vertex 3 10 12
    endloop
  endfacet
  facet normal 0 0 1
    outer loop
      vertex 42 75 12
      vertex 45 78 12
      vertex 42 78 12
    endloop
  endfacet
  facet normal 0 0 1
    outer loop
      vertex 42 10 12
      vertex 45 78 12
      vertex 42 75 12
    endloop
  endfacet
  facet normal 0 0 1
    outer loop
      vertex 45 78 12
      vertex 42 10 12
      vertex 45 0 12
    endloop
  endfacet
  facet normal -0 0 1
    outer loop
      vertex 42 3 12
      vertex 45 0 12
      vertex 42 10 12
    endloop
  endfacet
  facet normal -0 0 1
    outer loop
      vertex 3 3 12
      vertex 45 0 12
      vertex 42 3 12
    endloop
  endfacet
  facet normal 0 0 1
    outer loop
      vertex 3 3 12
      vertex 0 0 12
      vertex 45 0 12
    endloop
  endfacet
  facet normal 0 0 1
    outer loop
      vertex 3 10 12
      vertex 0 0 12
      vertex 3 3 12
    endloop
  endfacet
  facet normal -0 0 1
    outer loop
      vertex 21 162 12
      vertex 24.0528 97 12
      vertex 24.0528 162 12
    endloop
  endfacet
  facet normal 0 0 1
    outer loop
      vertex 24.0528 97 12
      vertex 21 162 12
      vertex 21 97 12
    endloop
  endfacet
  facet normal -0 0 1
    outer loop
      vertex 21 75 12
      vertex 24.0528 10 12
      vertex 24.0528 75 12
    endloop
  endfacet
  facet normal 0 0 1
    outer loop
      vertex 24.0528 10 12
      vertex 21 75 12
      vertex 21 10 12
    endloop
  endfacet
  facet normal -0 0 1
    outer loop
      vertex 39.6406 97 6
      vertex 42 94 6
      vertex 42 97 6
    endloop
  endfacet
  facet normal -0 0 1
    outer loop
      vertex 26.3221 97 6
      vertex 42 94 6
      vertex 39.6406 97 6
    endloop
  endfacet
  facet normal -0 0 1
    outer loop
      vertex 18.6406 97 6
      vertex 42 94 6
      vertex 26.3221 97 6
    endloop
  endfacet
  facet normal 0 0 1
    outer loop
      vertex 3 94 6
      vertex 18.6406 97 6
      vertex 5.32214 97 6
    endloop
  endfacet
  facet normal 0 0 1
    outer loop
      vertex 3 94 6
      vertex 5.32214 97 6
      vertex 3 97 6
    endloop
  endfacet
  facet normal 0 0 1
    outer loop
      vertex 18.6406 97 6
      vertex 3 94 6
      vertex 42 94 6
    endloop
  endfacet
  facet normal 0 0 1
    outer loop
      vertex 42 78 6
      vertex 39.6406 75 6
      vertex 42 75 6
    endloop
  endfacet
  facet normal 0 0 1
    outer loop
      vertex 42 78 6
      vertex 26.3221 75 6
      vertex 39.6406 75 6
    endloop
  endfacet
  facet normal 0 0 1
    outer loop
      vertex 42 78 6
      vertex 18.6406 75 6
      vertex 26.3221 75 6
    endloop
  endfacet
  facet normal -0 0 1
    outer loop
      vertex 3 78 6
      vertex 18.6406 75 6
      vertex 42 78 6
    endloop
  endfacet
  facet normal 0 0 1
    outer loop
      vertex 18.6406 75 6
      vertex 3 78 6
      vertex 5.32214 75 6
    endloop
  endfacet
  facet normal 0 0 1
    outer loop
      vertex 5.32214 75 6
      vertex 3 78 6
      vertex 3 75 6
    endloop
  endfacet
  facet normal 1 0 0
    outer loop
      vertex 3 97 12
      vertex 3 94 6
      vertex 3 97 6
    endloop
  endfacet
  facet normal 1 0 0
    outer loop
      vertex 3 94 6
      vertex 3 78 6
      vertex 3 94 3
    endloop
  endfacet
  facet normal 1 0 0
    outer loop
      vertex 3 97 12
      vertex 3 78 6
      vertex 3 94 6
    endloop
  endfacet
  facet normal 1 -0 0
    outer loop
      vertex 3 75 12
      vertex 3 78 6
      vertex 3 97 12
    endloop
  endfacet
  facet normal 1 0 0
    outer loop
      vertex 3 78 6
      vertex 3 75 12
      vertex 3 75 6
    endloop
  endfacet
  facet normal 1 0 0
    outer loop
      vertex 3 94 3
      vertex 3 78 6
      vertex 3 78 3
    endloop
  endfacet
  facet normal 0 -1 0
    outer loop
      vertex 21 97 12
      vertex 24.0528 97 11.0269
      vertex 24.0528 97 12
    endloop
  endfacet
  facet normal 0 -1 0
    outer loop
      vertex 20.7896 97 10.0653
      vertex 24.0528 97 11.0269
      vertex 21 97 12
    endloop
  endfacet
  facet normal 0 -1 0
    outer loop
      vertex 20.7896 97 10.0653
      vertex 24.4711 97 9.12629
      vertex 24.0528 97 11.0269
    endloop
  endfacet
  facet normal 0 -1 0
    outer loop
      vertex 20.1682 97 8.221
      vertex 24.4711 97 9.12629
      vertex 20.7896 97 10.0653
    endloop
  endfacet
  facet normal 0 -1 0
    outer loop
      vertex 20.1682 97 8.221
      vertex 25.2883 97 7.36001
      vertex 24.4711 97 9.12629
    endloop
  endfacet
  facet normal 0 -1 0
    outer loop
      vertex 19.1648 97 6.55343
      vertex 25.2883 97 7.36001
      vertex 20.1682 97 8.221
    endloop
  endfacet
  facet normal 0 -1 0
    outer loop
      vertex 26.3221 97 6
      vertex 19.1648 97 6.55343
      vertex 18.6406 97 6
    endloop
  endfacet
  facet normal 0 -1 0
    outer loop
      vertex 19.1648 97 6.55343
      vertex 26.3221 97 6
      vertex 25.2883 97 7.36001
    endloop
  endfacet
  facet normal 0 -1 0
    outer loop
      vertex 41.7896 97 10.0653
      vertex 42 97 6
      vertex 42 97 12
    endloop
  endfacet
  facet normal 0 -1 0
    outer loop
      vertex 41.1682 97 8.221
      vertex 42 97 6
      vertex 41.7896 97 10.0653
    endloop
  endfacet
  facet normal 0 -1 0
    outer loop
      vertex 40.1648 97 6.55343
      vertex 42 97 6
      vertex 41.1682 97 8.221
    endloop
  endfacet
  facet normal 0 -1 0
    outer loop
      vertex 42 97 6
      vertex 40.1648 97 6.55343
      vertex 39.6406 97 6
    endloop
  endfacet
  facet normal 0 1 -0
    outer loop
      vertex 27.9493 97 4.5508
      vertex 26.3221 97 6
      vertex 39.6406 97 6
    endloop
  endfacet
  facet normal 0 1 0
    outer loop
      vertex 37.2157 97 4.04839
      vertex 39.6406 97 6
      vertex 38.8265 97 5.14054
    endloop
  endfacet
  facet normal 0 1 0
    outer loop
      vertex 26.3221 97 6
      vertex 27.9493 97 4.5508
      vertex 26.466 97 5.8107
    endloop
  endfacet
  facet normal 0 1 0
    outer loop
      vertex 35.4078 97 3.32805
      vertex 39.6406 97 6
      vertex 37.2157 97 4.04839
    endloop
  endfacet
  facet normal 0 1 0
    outer loop
      vertex 39.6406 97 6
      vertex 29.6688 97 3.63921
      vertex 27.9493 97 4.5508
    endloop
  endfacet
  facet normal 0 1 0
    outer loop
      vertex 39.6406 97 6
      vertex 35.4078 97 3.32805
      vertex 29.6688 97 3.63921
    endloop
  endfacet
  facet normal 0 1 0
    outer loop
      vertex 35.4078 97 3.32805
      vertex 31.544 97 3.11856
      vertex 29.6688 97 3.63921
    endloop
  endfacet
  facet normal -0 1 0
    outer loop
      vertex 31.544 97 3.11856
      vertex 35.4078 97 3.32805
      vertex 33.4873 97 3.0132
    endloop
  endfacet
  facet normal 0 -1 0
    outer loop
      vertex 3 97 12
      vertex 3.05276 97 11.0269
      vertex 3.05276 97 12
    endloop
  endfacet
  facet normal 0 -1 0
    outer loop
      vertex 3 97 6
      vertex 3.05276 97 11.0269
      vertex 3 97 12
    endloop
  endfacet
  facet normal 0 -1 0
    outer loop
      vertex 3 97 6
      vertex 3.47112 97 9.12629
      vertex 3.05276 97 11.0269
    endloop
  endfacet
  facet normal 0 -1 0
    outer loop
      vertex 3 97 6
      vertex 4.28829 97 7.36001
      vertex 3.47112 97 9.12629
    endloop
  endfacet
  facet normal 0 -1 -0
    outer loop
      vertex 4.28829 97 7.36001
      vertex 3 97 6
      vertex 5.32214 97 6
    endloop
  endfacet
  facet normal 0 1 -0
    outer loop
      vertex 6.94932 97 4.5508
      vertex 5.32214 97 6
      vertex 18.6406 97 6
    endloop
  endfacet
  facet normal 0 1 0
    outer loop
      vertex 16.2157 97 4.04839
      vertex 18.6406 97 6
      vertex 17.8265 97 5.14054
    endloop
  endfacet
  facet normal 0 1 0
    outer loop
      vertex 5.32214 97 6
      vertex 6.94932 97 4.5508
      vertex 5.46604 97 5.8107
    endloop
  endfacet
  facet normal 0 1 0
    outer loop
      vertex 14.4078 97 3.32805
      vertex 18.6406 97 6
      vertex 16.2157 97 4.04839
    endloop
  endfacet
  facet normal 0 1 0
    outer loop
      vertex 18.6406 97 6
      vertex 8.66876 97 3.63921
      vertex 6.94932 97 4.5508
    endloop
  endfacet
  facet normal 0 1 0
    outer loop
      vertex 18.6406 97 6
      vertex 14.4078 97 3.32805
      vertex 8.66876 97 3.63921
    endloop
  endfacet
  facet normal 0 1 0
    outer loop
      vertex 14.4078 97 3.32805
      vertex 10.544 97 3.11856
      vertex 8.66876 97 3.63921
    endloop
  endfacet
  facet normal -0 1 0
    outer loop
      vertex 10.544 97 3.11856
      vertex 14.4078 97 3.32805
      vertex 12.4872 97 3.0132
    endloop
  endfacet
  facet normal 0 1 -0
    outer loop
      vertex 3.05276 75 11.0269
      vertex 3 75 12
      vertex 3.05276 75 12
    endloop
  endfacet
  facet normal 0 1 0
    outer loop
      vertex 3.05276 75 11.0269
      vertex 3 75 6
      vertex 3 75 12
    endloop
  endfacet
  facet normal 0 1 0
    outer loop
      vertex 3.47112 75 9.12629
      vertex 3 75 6
      vertex 3.05276 75 11.0269
    endloop
  endfacet
  facet normal 0 1 0
    outer loop
      vertex 4.28829 75 7.36001
      vertex 3 75 6
      vertex 3.47112 75 9.12629
    endloop
  endfacet
  facet normal 0 1 0
    outer loop
      vertex 3 75 6
      vertex 4.28829 75 7.36001
      vertex 5.32214 75 6
    endloop
  endfacet
  facet normal 0 1 -0
    outer loop
      vertex 42 75 6
      vertex 41.7896 75 10.0653
      vertex 42 75 12
    endloop
  endfacet
  facet normal 0 1 0
    outer loop
      vertex 42 75 6
      vertex 41.1682 75 8.221
      vertex 41.7896 75 10.0653
    endloop
  endfacet
  facet normal 0 1 0
    outer loop
      vertex 42 75 6
      vertex 40.1648 75 6.55343
      vertex 41.1682 75 8.221
    endloop
  endfacet
  facet normal 0 1 0
    outer loop
      vertex 40.1648 75 6.55343
      vertex 42 75 6
      vertex 39.6406 75 6
    endloop
  endfacet
  facet normal 0 -1 0
    outer loop
      vertex 27.9493 75 4.5508
      vertex 26.3221 75 6
      vertex 26.466 75 5.8107
    endloop
  endfacet
  facet normal 0 -1 0
    outer loop
      vertex 26.3221 75 6
      vertex 27.9493 75 4.5508
      vertex 39.6406 75 6
    endloop
  endfacet
  facet normal 0 -1 0
    outer loop
      vertex 29.6688 75 3.63921
      vertex 39.6406 75 6
      vertex 27.9493 75 4.5508
    endloop
  endfacet
  facet normal 0 -1 0
    outer loop
      vertex 39.6406 75 6
      vertex 37.2157 75 4.04839
      vertex 38.8265 75 5.14054
    endloop
  endfacet
  facet normal 0 -1 0
    outer loop
      vertex 35.4078 75 3.32805
      vertex 39.6406 75 6
      vertex 29.6688 75 3.63921
    endloop
  endfacet
  facet normal 0 -1 0
    outer loop
      vertex 39.6406 75 6
      vertex 35.4078 75 3.32805
      vertex 37.2157 75 4.04839
    endloop
  endfacet
  facet normal 0 -1 0
    outer loop
      vertex 31.544 75 3.11856
      vertex 35.4078 75 3.32805
      vertex 29.6688 75 3.63921
    endloop
  endfacet
  facet normal 0 -1 0
    outer loop
      vertex 35.4078 75 3.32805
      vertex 31.544 75 3.11856
      vertex 33.4873 75 3.0132
    endloop
  endfacet
  facet normal 0 1 -0
    outer loop
      vertex 24.0528 75 11.0269
      vertex 21 75 12
      vertex 24.0528 75 12
    endloop
  endfacet
  facet normal 0 1 0
    outer loop
      vertex 24.0528 75 11.0269
      vertex 20.7896 75 10.0653
      vertex 21 75 12
    endloop
  endfacet
  facet normal 0 1 0
    outer loop
      vertex 24.4711 75 9.12629
      vertex 20.7896 75 10.0653
      vertex 24.0528 75 11.0269
    endloop
  endfacet
  facet normal 0 1 0
    outer loop
      vertex 24.4711 75 9.12629
      vertex 20.1682 75 8.221
      vertex 20.7896 75 10.0653
    endloop
  endfacet
  facet normal 0 1 0
    outer loop
      vertex 25.2883 75 7.36001
      vertex 20.1682 75 8.221
      vertex 24.4711 75 9.12629
    endloop
  endfacet
  facet normal 0 1 0
    outer loop
      vertex 25.2883 75 7.36001
      vertex 19.1648 75 6.55343
      vertex 20.1682 75 8.221
    endloop
  endfacet
  facet normal 0 1 0
    outer loop
      vertex 26.3221 75 6
      vertex 19.1648 75 6.55343
      vertex 25.2883 75 7.36001
    endloop
  endfacet
  facet normal 0 1 0
    outer loop
      vertex 19.1648 75 6.55343
      vertex 26.3221 75 6
      vertex 18.6406 75 6
    endloop
  endfacet
  facet normal 0 -1 0
    outer loop
      vertex 6.94932 75 4.5508
      vertex 5.32214 75 6
      vertex 5.46604 75 5.8107
    endloop
  endfacet
  facet normal 0 -1 0
    outer loop
      vertex 5.32214 75 6
      vertex 6.94932 75 4.5508
      vertex 18.6406 75 6
    endloop
  endfacet
  facet normal 0 -1 0
    outer loop
      vertex 8.66876 75 3.63921
      vertex 18.6406 75 6
      vertex 6.94932 75 4.5508
    endloop
  endfacet
  facet normal 0 -1 0
    outer loop
      vertex 18.6406 75 6
      vertex 16.2157 75 4.04839
      vertex 17.8265 75 5.14054
    endloop
  endfacet
  facet normal 0 -1 0
    outer loop
      vertex 14.4078 75 3.32805
      vertex 18.6406 75 6
      vertex 8.66876 75 3.63921
    endloop
  endfacet
  facet normal 0 -1 0
    outer loop
      vertex 18.6406 75 6
      vertex 14.4078 75 3.32805
      vertex 16.2157 75 4.04839
    endloop
  endfacet
  facet normal 0 -1 0
    outer loop
      vertex 10.544 75 3.11856
      vertex 14.4078 75 3.32805
      vertex 8.66876 75 3.63921
    endloop
  endfacet
  facet normal 0 -1 0
    outer loop
      vertex 14.4078 75 3.32805
      vertex 10.544 75 3.11856
      vertex 12.4872 75 3.0132
    endloop
  endfacet
  facet normal 1 0 0
    outer loop
      vertex 45 78 12
      vertex 45 0 12
      vertex 45 78 3
    endloop
  endfacet
  facet normal 1 0 0
    outer loop
      vertex 45 94 3
      vertex 45 172 12
      vertex 45 94 12
    endloop
  endfacet
  facet normal 1 0 0
    outer loop
      vertex 45 172 12
      vertex 45 94 3
      vertex 45 172 0
    endloop
  endfacet
  facet normal 1 -0 0
    outer loop
      vertex 45 78 3
      vertex 45 172 0
      vertex 45 94 3
    endloop
  endfacet
  facet normal 1 0 0
    outer loop
      vertex 45 78 3
      vertex 45 0 0
      vertex 45 172 0
    endloop
  endfacet
  facet normal 1 0 0
    outer loop
      vertex 45 0 0
      vertex 45 78 3
      vertex 45 0 12
    endloop
  endfacet
  facet normal -0 0 1
    outer loop
      vertex 3 94 3
      vertex 45 78 3
      vertex 45 94 3
    endloop
  endfacet
  facet normal 0 0 1
    outer loop
      vertex 45 78 3
      vertex 3 94 3
      vertex 3 78 3
    endloop
  endfacet
  facet normal 0 -1 0
    outer loop
      vertex 3 94 6
      vertex 3 94 3
      vertex 42 94 6
    endloop
  endfacet
  facet normal 0 -1 0
    outer loop
      vertex 42 94 6
      vertex 45 94 12
      vertex 42 94 12
    endloop
  endfacet
  facet normal 0 -1 0
    outer loop
      vertex 42 94 6
      vertex 45 94 3
      vertex 45 94 12
    endloop
  endfacet
  facet normal 0 -1 0
    outer loop
      vertex 45 94 3
      vertex 42 94 6
      vertex 3 94 3
    endloop
  endfacet
  facet normal 0 1 0
    outer loop
      vertex 45 78 12
      vertex 42 78 6
      vertex 42 78 12
    endloop
  endfacet
  facet normal 0 1 -0
    outer loop
      vertex 45 78 3
      vertex 42 78 6
      vertex 45 78 12
    endloop
  endfacet
  facet normal 0 1 0
    outer loop
      vertex 3 78 3
      vertex 42 78 6
      vertex 45 78 3
    endloop
  endfacet
  facet normal 0 1 0
    outer loop
      vertex 42 78 6
      vertex 3 78 3
      vertex 3 78 6
    endloop
  endfacet
  facet normal 0.97662 -0 0.214972
    outer loop
      vertex 3.05276 97 11.0269
      vertex 3.47112 162 9.12629
      vertex 3.05276 162 11.0269
    endloop
  endfacet
  facet normal 0.97662 0 0.214972
    outer loop
      vertex 3.47112 162 9.12629
      vertex 3.05276 97 11.0269
      vertex 3.47112 97 9.12629
    endloop
  endfacet
  facet normal -0.994139 0 0.108113
    outer loop
      vertex 20.7896 97 10.0653
      vertex 21 162 12
      vertex 20.7896 162 10.0653
    endloop
  endfacet
  facet normal -0.994139 0 0.108113
    outer loop
      vertex 21 162 12
      vertex 20.7896 97 10.0653
      vertex 21 97 12
    endloop
  endfacet
  facet normal -0.947656 0 0.319294
    outer loop
      vertex 20.1682 97 8.221
      vertex 20.7896 162 10.0653
      vertex 20.1682 162 8.221
    endloop
  endfacet
  facet normal -0.947656 0 0.319294
    outer loop
      vertex 20.7896 162 10.0653
      vertex 20.1682 97 8.221
      vertex 20.7896 97 10.0653
    endloop
  endfacet
  facet normal -0.726011 0 0.687683
    outer loop
      vertex 17.8265 97 5.14054
      vertex 19.1648 162 6.55343
      vertex 17.8265 162 5.14054
    endloop
  endfacet
  facet normal -0.726006 -2.39524e-07 0.687689
    outer loop
      vertex 18.6406 97 6
      vertex 19.1648 162 6.55343
      vertex 17.8265 97 5.14054
    endloop
  endfacet
  facet normal -0.72602 0 0.687674
    outer loop
      vertex 19.1648 162 6.55343
      vertex 18.6406 97 6
      vertex 19.1648 97 6.55343
    endloop
  endfacet
  facet normal 0.0541403 0 0.998533
    outer loop
      vertex 10.544 162 3.11856
      vertex 12.4872 97 3.0132
      vertex 12.4872 162 3.0132
    endloop
  endfacet
  facet normal 0.0541403 0 0.998533
    outer loop
      vertex 12.4872 97 3.0132
      vertex 10.544 162 3.11856
      vertex 10.544 97 3.11856
    endloop
  endfacet
  facet normal -0.370141 0 0.928976
    outer loop
      vertex 14.4078 162 3.32805
      vertex 16.2157 97 4.04839
      vertex 16.2157 162 4.04839
    endloop
  endfacet
  facet normal -0.370141 0 0.928976
    outer loop
      vertex 16.2157 97 4.04839
      vertex 14.4078 162 3.32805
      vertex 14.4078 97 3.32805
    endloop
  endfacet
  facet normal 0.468409 0 0.883512
    outer loop
      vertex 6.94932 162 4.5508
      vertex 8.66876 97 3.63921
      vertex 8.66876 162 3.63921
    endloop
  endfacet
  facet normal 0.468409 0 0.883512
    outer loop
      vertex 8.66876 97 3.63921
      vertex 6.94932 162 4.5508
      vertex 6.94932 97 4.5508
    endloop
  endfacet
  facet normal 0.267525 0 0.963551
    outer loop
      vertex 8.66876 162 3.63921
      vertex 10.544 97 3.11856
      vertex 10.544 162 3.11856
    endloop
  endfacet
  facet normal 0.267525 0 0.963551
    outer loop
      vertex 10.544 97 3.11856
      vertex 8.66876 162 3.63921
      vertex 8.66876 97 3.63921
    endloop
  endfacet
  facet normal 1 -0 0
    outer loop
      vertex 3.05276 97 12
      vertex 3.05276 162 11.0269
      vertex 3.05276 162 12
    endloop
  endfacet
  facet normal 1 0 0
    outer loop
      vertex 3.05276 162 11.0269
      vertex 3.05276 97 12
      vertex 3.05276 97 11.0269
    endloop
  endfacet
  facet normal -0.856844 0 0.515575
    outer loop
      vertex 19.1648 97 6.55343
      vertex 20.1682 162 8.221
      vertex 19.1648 162 6.55343
    endloop
  endfacet
  facet normal -0.856844 0 0.515575
    outer loop
      vertex 20.1682 162 8.221
      vertex 19.1648 97 6.55343
      vertex 20.1682 97 8.221
    endloop
  endfacet
  facet normal -0.561187 0 0.827689
    outer loop
      vertex 16.2157 162 4.04839
      vertex 17.8265 97 5.14054
      vertex 17.8265 162 5.14054
    endloop
  endfacet
  facet normal -0.561187 0 0.827689
    outer loop
      vertex 17.8265 97 5.14054
      vertex 16.2157 162 4.04839
      vertex 16.2157 97 4.04839
    endloop
  endfacet
  facet normal 0.647383 0 0.762164
    outer loop
      vertex 5.46604 162 5.8107
      vertex 6.94932 97 4.5508
      vertex 6.94932 162 4.5508
    endloop
  endfacet
  facet normal 0.647383 0 0.762164
    outer loop
      vertex 6.94932 97 4.5508
      vertex 5.46604 162 5.8107
      vertex 5.46604 97 5.8107
    endloop
  endfacet
  facet normal -0.161774 0 0.986828
    outer loop
      vertex 12.4872 162 3.0132
      vertex 14.4078 97 3.32805
      vertex 14.4078 162 3.32805
    endloop
  endfacet
  facet normal -0.161774 0 0.986828
    outer loop
      vertex 14.4078 97 3.32805
      vertex 12.4872 162 3.0132
      vertex 12.4872 97 3.0132
    endloop
  endfacet
  facet normal 0.907575 -0 0.41989
    outer loop
      vertex 3.47112 97 9.12629
      vertex 4.28829 162 7.36001
      vertex 3.47112 162 9.12629
    endloop
  endfacet
  facet normal 0.907575 0 0.41989
    outer loop
      vertex 4.28829 162 7.36001
      vertex 3.47112 97 9.12629
      vertex 4.28829 97 7.36001
    endloop
  endfacet
  facet normal 0 1 0
    outer loop
      vertex 33.4873 162 3.0132
      vertex 42 162 3
      vertex 12.4872 162 3.0132
    endloop
  endfacet
  facet normal 0 1 0
    outer loop
      vertex 35.4078 162 3.32805
      vertex 42 162 3
      vertex 33.4873 162 3.0132
    endloop
  endfacet
  facet normal 0 1 0
    outer loop
      vertex 37.2157 162 4.04839
      vertex 42 162 3
      vertex 35.4078 162 3.32805
    endloop
  endfacet
  facet normal 0 1 0
    outer loop
      vertex 38.8265 162 5.14054
      vertex 42 162 3
      vertex 37.2157 162 4.04839
    endloop
  endfacet
  facet normal 0 1 0
    outer loop
      vertex 40.1648 162 6.55343
      vertex 42 162 3
      vertex 38.8265 162 5.14054
    endloop
  endfacet
  facet normal 0 1 0
    outer loop
      vertex 41.1682 162 8.221
      vertex 42 162 3
      vertex 40.1648 162 6.55343
    endloop
  endfacet
  facet normal 0 1 0
    outer loop
      vertex 41.7896 162 10.0653
      vertex 42 162 3
      vertex 41.1682 162 8.221
    endloop
  endfacet
  facet normal 0 1 -0
    outer loop
      vertex 42 162 3
      vertex 41.7896 162 10.0653
      vertex 42 162 12
    endloop
  endfacet
  facet normal 0 1 -0
    outer loop
      vertex 24.0528 162 11.0269
      vertex 21 162 12
      vertex 24.0528 162 12
    endloop
  endfacet
  facet normal 0 1 0
    outer loop
      vertex 24.0528 162 11.0269
      vertex 20.7896 162 10.0653
      vertex 21 162 12
    endloop
  endfacet
  facet normal 0 1 0
    outer loop
      vertex 24.4711 162 9.12629
      vertex 20.7896 162 10.0653
      vertex 24.0528 162 11.0269
    endloop
  endfacet
  facet normal 0 1 0
    outer loop
      vertex 24.4711 162 9.12629
      vertex 20.1682 162 8.221
      vertex 20.7896 162 10.0653
    endloop
  endfacet
  facet normal 0 1 0
    outer loop
      vertex 25.2883 162 7.36001
      vertex 20.1682 162 8.221
      vertex 24.4711 162 9.12629
    endloop
  endfacet
  facet normal 0 1 0
    outer loop
      vertex 25.2883 162 7.36001
      vertex 19.1648 162 6.55343
      vertex 20.1682 162 8.221
    endloop
  endfacet
  facet normal 0 1 0
    outer loop
      vertex 26.466 162 5.8107
      vertex 19.1648 162 6.55343
      vertex 25.2883 162 7.36001
    endloop
  endfacet
  facet normal 0 1 0
    outer loop
      vertex 26.466 162 5.8107
      vertex 17.8265 162 5.14054
      vertex 19.1648 162 6.55343
    endloop
  endfacet
  facet normal 0 1 0
    outer loop
      vertex 27.9493 162 4.5508
      vertex 17.8265 162 5.14054
      vertex 26.466 162 5.8107
    endloop
  endfacet
  facet normal 0 1 0
    outer loop
      vertex 27.9493 162 4.5508
      vertex 16.2157 162 4.04839
      vertex 17.8265 162 5.14054
    endloop
  endfacet
  facet normal 0 1 0
    outer loop
      vertex 29.6688 162 3.63921
      vertex 16.2157 162 4.04839
      vertex 27.9493 162 4.5508
    endloop
  endfacet
  facet normal 0 1 0
    outer loop
      vertex 29.6688 162 3.63921
      vertex 14.4078 162 3.32805
      vertex 16.2157 162 4.04839
    endloop
  endfacet
  facet normal 0 1 0
    outer loop
      vertex 31.544 162 3.11856
      vertex 14.4078 162 3.32805
      vertex 29.6688 162 3.63921
    endloop
  endfacet
  facet normal 0 1 0
    outer loop
      vertex 12.4872 162 3.0132
      vertex 31.544 162 3.11856
      vertex 33.4873 162 3.0132
    endloop
  endfacet
  facet normal 0 1 0
    outer loop
      vertex 31.544 162 3.11856
      vertex 12.4872 162 3.0132
      vertex 14.4078 162 3.32805
    endloop
  endfacet
  facet normal 0 1 -0
    outer loop
      vertex 3.05276 162 11.0269
      vertex 3 162 12
      vertex 3.05276 162 12
    endloop
  endfacet
  facet normal 0 1 0
    outer loop
      vertex 3.05276 162 11.0269
      vertex 3 162 3
      vertex 3 162 12
    endloop
  endfacet
  facet normal 0 1 0
    outer loop
      vertex 3.47112 162 9.12629
      vertex 3 162 3
      vertex 3.05276 162 11.0269
    endloop
  endfacet
  facet normal 0 1 0
    outer loop
      vertex 4.28829 162 7.36001
      vertex 3 162 3
      vertex 3.47112 162 9.12629
    endloop
  endfacet
  facet normal 0 1 0
    outer loop
      vertex 5.46604 162 5.8107
      vertex 3 162 3
      vertex 4.28829 162 7.36001
    endloop
  endfacet
  facet normal 0 1 0
    outer loop
      vertex 6.94932 162 4.5508
      vertex 3 162 3
      vertex 5.46604 162 5.8107
    endloop
  endfacet
  facet normal 0 1 0
    outer loop
      vertex 8.66876 162 3.63921
      vertex 3 162 3
      vertex 6.94932 162 4.5508
    endloop
  endfacet
  facet normal 0 1 0
    outer loop
      vertex 10.544 162 3.11856
      vertex 3 162 3
      vertex 8.66876 162 3.63921
    endloop
  endfacet
  facet normal 0 1 0
    outer loop
      vertex 12.4872 162 3.0132
      vertex 3 162 3
      vertex 10.544 162 3.11856
    endloop
  endfacet
  facet normal 0 1 0
    outer loop
      vertex 3 162 3
      vertex 12.4872 162 3.0132
      vertex 42 162 3
    endloop
  endfacet
  facet normal 0.796094 -0 0.605173
    outer loop
      vertex 4.28829 97 7.36001
      vertex 5.46604 162 5.8107
      vertex 4.28829 162 7.36001
    endloop
  endfacet
  facet normal 0.796094 2.13071e-08 0.605173
    outer loop
      vertex 5.32214 97 6
      vertex 5.46604 162 5.8107
      vertex 4.28829 97 7.36001
    endloop
  endfacet
  facet normal 0.796097 0 0.605169
    outer loop
      vertex 5.46604 162 5.8107
      vertex 5.32214 97 6
      vertex 5.46604 97 5.8107
    endloop
  endfacet
  facet normal 0.976627 -0 0.214943
    outer loop
      vertex 24.0528 97 11.0269
      vertex 24.4711 162 9.12629
      vertex 24.0528 162 11.0269
    endloop
  endfacet
  facet normal 0.976627 0 0.214943
    outer loop
      vertex 24.4711 162 9.12629
      vertex 24.0528 97 11.0269
      vertex 24.4711 97 9.12629
    endloop
  endfacet
  facet normal -0.994139 0 0.108113
    outer loop
      vertex 41.7896 97 10.0653
      vertex 42 162 12
      vertex 41.7896 162 10.0653
    endloop
  endfacet
  facet normal -0.994139 0 0.108113
    outer loop
      vertex 42 162 12
      vertex 41.7896 97 10.0653
      vertex 42 97 12
    endloop
  endfacet
  facet normal -0.947656 0 0.319294
    outer loop
      vertex 41.1682 97 8.221
      vertex 41.7896 162 10.0653
      vertex 41.1682 162 8.221
    endloop
  endfacet
  facet normal -0.947656 0 0.319294
    outer loop
      vertex 41.7896 162 10.0653
      vertex 41.1682 97 8.221
      vertex 41.7896 97 10.0653
    endloop
  endfacet
  facet normal -0.726011 0 0.687683
    outer loop
      vertex 38.8265 97 5.14054
      vertex 40.1648 162 6.55343
      vertex 38.8265 162 5.14054
    endloop
  endfacet
  facet normal -0.726006 -2.39524e-07 0.687689
    outer loop
      vertex 39.6406 97 6
      vertex 40.1648 162 6.55343
      vertex 38.8265 97 5.14054
    endloop
  endfacet
  facet normal -0.72602 0 0.687674
    outer loop
      vertex 40.1648 162 6.55343
      vertex 39.6406 97 6
      vertex 40.1648 97 6.55343
    endloop
  endfacet
  facet normal 0.0541375 0 0.998533
    outer loop
      vertex 31.544 162 3.11856
      vertex 33.4873 97 3.0132
      vertex 33.4873 162 3.0132
    endloop
  endfacet
  facet normal 0.0541375 0 0.998533
    outer loop
      vertex 33.4873 97 3.0132
      vertex 31.544 162 3.11856
      vertex 31.544 97 3.11856
    endloop
  endfacet
  facet normal 0.796107 -0 0.605156
    outer loop
      vertex 25.2883 97 7.36001
      vertex 26.466 162 5.8107
      vertex 25.2883 162 7.36001
    endloop
  endfacet
  facet normal 0.796108 -6.39313e-08 0.605155
    outer loop
      vertex 26.3221 97 6
      vertex 26.466 162 5.8107
      vertex 25.2883 97 7.36001
    endloop
  endfacet
  facet normal 0.796097 0 0.605169
    outer loop
      vertex 26.466 162 5.8107
      vertex 26.3221 97 6
      vertex 26.466 97 5.8107
    endloop
  endfacet
  facet normal -0.370141 0 0.928976
    outer loop
      vertex 35.4078 162 3.32805
      vertex 37.2157 97 4.04839
      vertex 37.2157 162 4.04839
    endloop
  endfacet
  facet normal -0.370141 0 0.928976
    outer loop
      vertex 37.2157 97 4.04839
      vertex 35.4078 162 3.32805
      vertex 35.4078 97 3.32805
    endloop
  endfacet
  facet normal 0.468396 0 0.883519
    outer loop
      vertex 27.9493 162 4.5508
      vertex 29.6688 97 3.63921
      vertex 29.6688 162 3.63921
    endloop
  endfacet
  facet normal 0.468396 0 0.883519
    outer loop
      vertex 29.6688 97 3.63921
      vertex 27.9493 162 4.5508
      vertex 27.9493 97 4.5508
    endloop
  endfacet
  facet normal 0.26753 0 0.96355
    outer loop
      vertex 29.6688 162 3.63921
      vertex 31.544 97 3.11856
      vertex 31.544 162 3.11856
    endloop
  endfacet
  facet normal 0.26753 0 0.96355
    outer loop
      vertex 31.544 97 3.11856
      vertex 29.6688 162 3.63921
      vertex 29.6688 97 3.63921
    endloop
  endfacet
  facet normal 1 -0 0
    outer loop
      vertex 24.0528 97 12
      vertex 24.0528 162 11.0269
      vertex 24.0528 162 12
    endloop
  endfacet
  facet normal 1 0 0
    outer loop
      vertex 24.0528 162 11.0269
      vertex 24.0528 97 12
      vertex 24.0528 97 11.0269
    endloop
  endfacet
  facet normal -0.856844 0 0.515575
    outer loop
      vertex 40.1648 97 6.55343
      vertex 41.1682 162 8.221
      vertex 40.1648 162 6.55343
    endloop
  endfacet
  facet normal -0.856844 0 0.515575
    outer loop
      vertex 41.1682 162 8.221
      vertex 40.1648 97 6.55343
      vertex 41.1682 97 8.221
    endloop
  endfacet
  facet normal -0.561187 0 0.827689
    outer loop
      vertex 37.2157 162 4.04839
      vertex 38.8265 97 5.14054
      vertex 38.8265 162 5.14054
    endloop
  endfacet
  facet normal -0.561187 0 0.827689
    outer loop
      vertex 38.8265 97 5.14054
      vertex 37.2157 162 4.04839
      vertex 37.2157 97 4.04839
    endloop
  endfacet
  facet normal 0.647378 0 0.762169
    outer loop
      vertex 26.466 162 5.8107
      vertex 27.9493 97 4.5508
      vertex 27.9493 162 4.5508
    endloop
  endfacet
  facet normal 0.647378 0 0.762169
    outer loop
      vertex 27.9493 97 4.5508
      vertex 26.466 162 5.8107
      vertex 26.466 97 5.8107
    endloop
  endfacet
  facet normal -0.161782 0 0.986827
    outer loop
      vertex 33.4873 162 3.0132
      vertex 35.4078 97 3.32805
      vertex 35.4078 162 3.32805
    endloop
  endfacet
  facet normal -0.161782 0 0.986827
    outer loop
      vertex 35.4078 97 3.32805
      vertex 33.4873 162 3.0132
      vertex 33.4873 97 3.0132
    endloop
  endfacet
  facet normal 0.907569 -0 0.419903
    outer loop
      vertex 24.4711 97 9.12629
      vertex 25.2883 162 7.36001
      vertex 24.4711 162 9.12629
    endloop
  endfacet
  facet normal 0.907569 0 0.419903
    outer loop
      vertex 25.2883 162 7.36001
      vertex 24.4711 97 9.12629
      vertex 25.2883 97 7.36001
    endloop
  endfacet
  facet normal -1 0 0
    outer loop
      vertex 42 162 3
      vertex 42 169 12
      vertex 42 169 3
    endloop
  endfacet
  facet normal -1 -0 0
    outer loop
      vertex 42 169 12
      vertex 42 162 3
      vertex 42 162 12
    endloop
  endfacet
  facet normal -0 0 1
    outer loop
      vertex 3 169 3
      vertex 42 162 3
      vertex 42 169 3
    endloop
  endfacet
  facet normal 0 0 1
    outer loop
      vertex 42 162 3
      vertex 3 169 3
      vertex 3 162 3
    endloop
  endfacet
  facet normal 1 -0 0
    outer loop
      vertex 3 162 12
      vertex 3 169 3
      vertex 3 169 12
    endloop
  endfacet
  facet normal 1 0 0
    outer loop
      vertex 3 169 3
      vertex 3 162 12
      vertex 3 162 3
    endloop
  endfacet
  facet normal 0 -1 0
    outer loop
      vertex 3 169 3
      vertex 42 169 12
      vertex 3 169 12
    endloop
  endfacet
  facet normal 0 -1 -0
    outer loop
      vertex 42 169 12
      vertex 3 169 3
      vertex 42 169 3
    endloop
  endfacet
  facet normal 0.97662 -0 0.214972
    outer loop
      vertex 3.05276 10 11.0269
      vertex 3.47112 75 9.12629
      vertex 3.05276 75 11.0269
    endloop
  endfacet
  facet normal 0.97662 0 0.214972
    outer loop
      vertex 3.47112 75 9.12629
      vertex 3.05276 10 11.0269
      vertex 3.47112 10 9.12629
    endloop
  endfacet
  facet normal -0.994139 0 0.108113
    outer loop
      vertex 20.7896 10 10.0653
      vertex 21 75 12
      vertex 20.7896 75 10.0653
    endloop
  endfacet
  facet normal -0.994139 0 0.108113
    outer loop
      vertex 21 75 12
      vertex 20.7896 10 10.0653
      vertex 21 10 12
    endloop
  endfacet
  facet normal -0.947656 0 0.319294
    outer loop
      vertex 20.1682 10 8.221
      vertex 20.7896 75 10.0653
      vertex 20.1682 75 8.221
    endloop
  endfacet
  facet normal -0.947656 0 0.319294
    outer loop
      vertex 20.7896 75 10.0653
      vertex 20.1682 10 8.221
      vertex 20.7896 10 10.0653
    endloop
  endfacet
  facet normal -0.726006 0 0.687689
    outer loop
      vertex 17.8265 10 5.14054
      vertex 18.6406 75 6
      vertex 17.8265 75 5.14054
    endloop
  endfacet
  facet normal -0.726011 1.45704e-07 0.687683
    outer loop
      vertex 19.1648 10 6.55343
      vertex 18.6406 75 6
      vertex 17.8265 10 5.14054
    endloop
  endfacet
  facet normal -0.72602 0 0.687674
    outer loop
      vertex 18.6406 75 6
      vertex 19.1648 10 6.55343
      vertex 19.1648 75 6.55343
    endloop
  endfacet
  facet normal 0.0541403 0 0.998533
    outer loop
      vertex 10.544 75 3.11856
      vertex 12.4872 10 3.0132
      vertex 12.4872 75 3.0132
    endloop
  endfacet
  facet normal 0.0541403 0 0.998533
    outer loop
      vertex 12.4872 10 3.0132
      vertex 10.544 75 3.11856
      vertex 10.544 10 3.11856
    endloop
  endfacet
  facet normal 0.796094 -0 0.605173
    outer loop
      vertex 4.28829 10 7.36001
      vertex 5.32214 75 6
      vertex 4.28829 75 7.36001
    endloop
  endfacet
  facet normal 0.796094 -1.87037e-08 0.605173
    outer loop
      vertex 5.46604 10 5.8107
      vertex 5.32214 75 6
      vertex 4.28829 10 7.36001
    endloop
  endfacet
  facet normal 0.796097 0 0.605169
    outer loop
      vertex 5.32214 75 6
      vertex 5.46604 10 5.8107
      vertex 5.46604 75 5.8107
    endloop
  endfacet
  facet normal -0.370141 0 0.928976
    outer loop
      vertex 14.4078 75 3.32805
      vertex 16.2157 10 4.04839
      vertex 16.2157 75 4.04839
    endloop
  endfacet
  facet normal -0.370141 0 0.928976
    outer loop
      vertex 16.2157 10 4.04839
      vertex 14.4078 75 3.32805
      vertex 14.4078 10 3.32805
    endloop
  endfacet
  facet normal 0.468409 0 0.883512
    outer loop
      vertex 6.94932 75 4.5508
      vertex 8.66876 10 3.63921
      vertex 8.66876 75 3.63921
    endloop
  endfacet
  facet normal 0.468409 0 0.883512
    outer loop
      vertex 8.66876 10 3.63921
      vertex 6.94932 75 4.5508
      vertex 6.94932 10 4.5508
    endloop
  endfacet
  facet normal 0.267525 0 0.963551
    outer loop
      vertex 8.66876 75 3.63921
      vertex 10.544 10 3.11856
      vertex 10.544 75 3.11856
    endloop
  endfacet
  facet normal 0.267525 0 0.963551
    outer loop
      vertex 10.544 10 3.11856
      vertex 8.66876 75 3.63921
      vertex 8.66876 10 3.63921
    endloop
  endfacet
  facet normal 1 -0 0
    outer loop
      vertex 3.05276 10 12
      vertex 3.05276 75 11.0269
      vertex 3.05276 75 12
    endloop
  endfacet
  facet normal 1 0 0
    outer loop
      vertex 3.05276 75 11.0269
      vertex 3.05276 10 12
      vertex 3.05276 10 11.0269
    endloop
  endfacet
  facet normal -0.856844 0 0.515575
    outer loop
      vertex 19.1648 10 6.55343
      vertex 20.1682 75 8.221
      vertex 19.1648 75 6.55343
    endloop
  endfacet
  facet normal -0.856844 0 0.515575
    outer loop
      vertex 20.1682 75 8.221
      vertex 19.1648 10 6.55343
      vertex 20.1682 10 8.221
    endloop
  endfacet
  facet normal -0.561187 0 0.827689
    outer loop
      vertex 16.2157 75 4.04839
      vertex 17.8265 10 5.14054
      vertex 17.8265 75 5.14054
    endloop
  endfacet
  facet normal -0.561187 0 0.827689
    outer loop
      vertex 17.8265 10 5.14054
      vertex 16.2157 75 4.04839
      vertex 16.2157 10 4.04839
    endloop
  endfacet
  facet normal 0.647383 0 0.762164
    outer loop
      vertex 5.46604 75 5.8107
      vertex 6.94932 10 4.5508
      vertex 6.94932 75 4.5508
    endloop
  endfacet
  facet normal 0.647383 0 0.762164
    outer loop
      vertex 6.94932 10 4.5508
      vertex 5.46604 75 5.8107
      vertex 5.46604 10 5.8107
    endloop
  endfacet
  facet normal -0.161774 0 0.986828
    outer loop
      vertex 12.4872 75 3.0132
      vertex 14.4078 10 3.32805
      vertex 14.4078 75 3.32805
    endloop
  endfacet
  facet normal -0.161774 0 0.986828
    outer loop
      vertex 14.4078 10 3.32805
      vertex 12.4872 75 3.0132
      vertex 12.4872 10 3.0132
    endloop
  endfacet
  facet normal 0 -1 0
    outer loop
      vertex 3 10 12
      vertex 3.05276 10 11.0269
      vertex 3.05276 10 12
    endloop
  endfacet
  facet normal 0 -1 -0
    outer loop
      vertex 12.4872 10 3.0132
      vertex 3 10 3
      vertex 33.4873 10 3.0132
    endloop
  endfacet
  facet normal 0 -1 -0
    outer loop
      vertex 10.544 10 3.11856
      vertex 3 10 3
      vertex 12.4872 10 3.0132
    endloop
  endfacet
  facet normal 0 -1 -0
    outer loop
      vertex 8.66876 10 3.63921
      vertex 3 10 3
      vertex 10.544 10 3.11856
    endloop
  endfacet
  facet normal 0 -1 -0
    outer loop
      vertex 6.94932 10 4.5508
      vertex 3 10 3
      vertex 8.66876 10 3.63921
    endloop
  endfacet
  facet normal 0 -1 -0
    outer loop
      vertex 5.46604 10 5.8107
      vertex 3 10 3
      vertex 6.94932 10 4.5508
    endloop
  endfacet
  facet normal 0 -1 -0
    outer loop
      vertex 4.28829 10 7.36001
      vertex 3 10 3
      vertex 5.46604 10 5.8107
    endloop
  endfacet
  facet normal 0 -1 -0
    outer loop
      vertex 3.47112 10 9.12629
      vertex 3 10 3
      vertex 4.28829 10 7.36001
    endloop
  endfacet
  facet normal 0 -1 -0
    outer loop
      vertex 3.05276 10 11.0269
      vertex 3 10 3
      vertex 3.47112 10 9.12629
    endloop
  endfacet
  facet normal 0 -1 0
    outer loop
      vertex 3 10 3
      vertex 3.05276 10 11.0269
      vertex 3 10 12
    endloop
  endfacet
  facet normal 0 -1 0
    outer loop
      vertex 21 10 12
      vertex 24.0528 10 11.0269
      vertex 24.0528 10 12
    endloop
  endfacet
  facet normal 0 -1 0
    outer loop
      vertex 20.7896 10 10.0653
      vertex 24.0528 10 11.0269
      vertex 21 10 12
    endloop
  endfacet
  facet normal 0 -1 0
    outer loop
      vertex 20.7896 10 10.0653
      vertex 24.4711 10 9.12629
      vertex 24.0528 10 11.0269
    endloop
  endfacet
  facet normal 0 -1 0
    outer loop
      vertex 20.1682 10 8.221
      vertex 24.4711 10 9.12629
      vertex 20.7896 10 10.0653
    endloop
  endfacet
  facet normal 0 -1 0
    outer loop
      vertex 20.1682 10 8.221
      vertex 25.2883 10 7.36001
      vertex 24.4711 10 9.12629
    endloop
  endfacet
  facet normal 0 -1 0
    outer loop
      vertex 19.1648 10 6.55343
      vertex 25.2883 10 7.36001
      vertex 20.1682 10 8.221
    endloop
  endfacet
  facet normal 0 -1 0
    outer loop
      vertex 19.1648 10 6.55343
      vertex 26.466 10 5.8107
      vertex 25.2883 10 7.36001
    endloop
  endfacet
  facet normal 0 -1 0
    outer loop
      vertex 17.8265 10 5.14054
      vertex 26.466 10 5.8107
      vertex 19.1648 10 6.55343
    endloop
  endfacet
  facet normal 0 -1 0
    outer loop
      vertex 17.8265 10 5.14054
      vertex 27.9493 10 4.5508
      vertex 26.466 10 5.8107
    endloop
  endfacet
  facet normal 0 -1 0
    outer loop
      vertex 16.2157 10 4.04839
      vertex 27.9493 10 4.5508
      vertex 17.8265 10 5.14054
    endloop
  endfacet
  facet normal 0 -1 0
    outer loop
      vertex 16.2157 10 4.04839
      vertex 29.6688 10 3.63921
      vertex 27.9493 10 4.5508
    endloop
  endfacet
  facet normal 0 -1 0
    outer loop
      vertex 14.4078 10 3.32805
      vertex 29.6688 10 3.63921
      vertex 16.2157 10 4.04839
    endloop
  endfacet
  facet normal 0 -1 0
    outer loop
      vertex 14.4078 10 3.32805
      vertex 31.544 10 3.11856
      vertex 29.6688 10 3.63921
    endloop
  endfacet
  facet normal 0 -1 0
    outer loop
      vertex 12.4872 10 3.0132
      vertex 31.544 10 3.11856
      vertex 14.4078 10 3.32805
    endloop
  endfacet
  facet normal 0 -1 -0
    outer loop
      vertex 31.544 10 3.11856
      vertex 12.4872 10 3.0132
      vertex 33.4873 10 3.0132
    endloop
  endfacet
  facet normal 0 -1 0
    outer loop
      vertex 41.7896 10 10.0653
      vertex 42 10 3
      vertex 42 10 12
    endloop
  endfacet
  facet normal 0 -1 0
    outer loop
      vertex 41.1682 10 8.221
      vertex 42 10 3
      vertex 41.7896 10 10.0653
    endloop
  endfacet
  facet normal 0 -1 0
    outer loop
      vertex 40.1648 10 6.55343
      vertex 42 10 3
      vertex 41.1682 10 8.221
    endloop
  endfacet
  facet normal 0 -1 0
    outer loop
      vertex 38.8265 10 5.14054
      vertex 42 10 3
      vertex 40.1648 10 6.55343
    endloop
  endfacet
  facet normal 0 -1 0
    outer loop
      vertex 37.2157 10 4.04839
      vertex 42 10 3
      vertex 38.8265 10 5.14054
    endloop
  endfacet
  facet normal 0 -1 0
    outer loop
      vertex 35.4078 10 3.32805
      vertex 42 10 3
      vertex 37.2157 10 4.04839
    endloop
  endfacet
  facet normal 0 -1 0
    outer loop
      vertex 33.4873 10 3.0132
      vertex 42 10 3
      vertex 35.4078 10 3.32805
    endloop
  endfacet
  facet normal 0 -1 0
    outer loop
      vertex 42 10 3
      vertex 33.4873 10 3.0132
      vertex 3 10 3
    endloop
  endfacet
  facet normal 0.907575 -0 0.41989
    outer loop
      vertex 3.47112 10 9.12629
      vertex 4.28829 75 7.36001
      vertex 3.47112 75 9.12629
    endloop
  endfacet
  facet normal 0.907575 0 0.41989
    outer loop
      vertex 4.28829 75 7.36001
      vertex 3.47112 10 9.12629
      vertex 4.28829 10 7.36001
    endloop
  endfacet
  facet normal 0.976627 -0 0.214943
    outer loop
      vertex 24.0528 10 11.0269
      vertex 24.4711 75 9.12629
      vertex 24.0528 75 11.0269
    endloop
  endfacet
  facet normal 0.976627 0 0.214943
    outer loop
      vertex 24.4711 75 9.12629
      vertex 24.0528 10 11.0269
      vertex 24.4711 10 9.12629
    endloop
  endfacet
  facet normal -0.994139 0 0.108113
    outer loop
      vertex 41.7896 10 10.0653
      vertex 42 75 12
      vertex 41.7896 75 10.0653
    endloop
  endfacet
  facet normal -0.994139 0 0.108113
    outer loop
      vertex 42 75 12
      vertex 41.7896 10 10.0653
      vertex 42 10 12
    endloop
  endfacet
  facet normal -0.947656 0 0.319294
    outer loop
      vertex 41.1682 10 8.221
      vertex 41.7896 75 10.0653
      vertex 41.1682 75 8.221
    endloop
  endfacet
  facet normal -0.947656 0 0.319294
    outer loop
      vertex 41.7896 75 10.0653
      vertex 41.1682 10 8.221
      vertex 41.7896 10 10.0653
    endloop
  endfacet
  facet normal -0.726006 0 0.687689
    outer loop
      vertex 38.8265 10 5.14054
      vertex 39.6406 75 6
      vertex 38.8265 75 5.14054
    endloop
  endfacet
  facet normal -0.726011 1.45704e-07 0.687683
    outer loop
      vertex 40.1648 10 6.55343
      vertex 39.6406 75 6
      vertex 38.8265 10 5.14054
    endloop
  endfacet
  facet normal -0.72602 0 0.687674
    outer loop
      vertex 39.6406 75 6
      vertex 40.1648 10 6.55343
      vertex 40.1648 75 6.55343
    endloop
  endfacet
  facet normal 0.0541375 0 0.998533
    outer loop
      vertex 31.544 75 3.11856
      vertex 33.4873 10 3.0132
      vertex 33.4873 75 3.0132
    endloop
  endfacet
  facet normal 0.0541375 0 0.998533
    outer loop
      vertex 33.4873 10 3.0132
      vertex 31.544 75 3.11856
      vertex 31.544 10 3.11856
    endloop
  endfacet
  facet normal 0.796108 -0 0.605155
    outer loop
      vertex 25.2883 10 7.36001
      vertex 26.3221 75 6
      vertex 25.2883 75 7.36001
    endloop
  endfacet
  facet normal 0.796107 5.61199e-08 0.605156
    outer loop
      vertex 26.466 10 5.8107
      vertex 26.3221 75 6
      vertex 25.2883 10 7.36001
    endloop
  endfacet
  facet normal 0.796097 0 0.605169
    outer loop
      vertex 26.3221 75 6
      vertex 26.466 10 5.8107
      vertex 26.466 75 5.8107
    endloop
  endfacet
  facet normal -0.370141 0 0.928976
    outer loop
      vertex 35.4078 75 3.32805
      vertex 37.2157 10 4.04839
      vertex 37.2157 75 4.04839
    endloop
  endfacet
  facet normal -0.370141 0 0.928976
    outer loop
      vertex 37.2157 10 4.04839
      vertex 35.4078 75 3.32805
      vertex 35.4078 10 3.32805
    endloop
  endfacet
  facet normal 0.468396 0 0.883519
    outer loop
      vertex 27.9493 75 4.5508
      vertex 29.6688 10 3.63921
      vertex 29.6688 75 3.63921
    endloop
  endfacet
  facet normal 0.468396 0 0.883519
    outer loop
      vertex 29.6688 10 3.63921
      vertex 27.9493 75 4.5508
      vertex 27.9493 10 4.5508
    endloop
  endfacet
  facet normal 0.26753 0 0.96355
    outer loop
      vertex 29.6688 75 3.63921
      vertex 31.544 10 3.11856
      vertex 31.544 75 3.11856
    endloop
  endfacet
  facet normal 0.26753 0 0.96355
    outer loop
      vertex 31.544 10 3.11856
      vertex 29.6688 75 3.63921
      vertex 29.6688 10 3.63921
    endloop
  endfacet
  facet normal 1 -0 0
    outer loop
      vertex 24.0528 10 12
      vertex 24.0528 75 11.0269
      vertex 24.0528 75 12
    endloop
  endfacet
  facet normal 1 0 0
    outer loop
      vertex 24.0528 75 11.0269
      vertex 24.0528 10 12
      vertex 24.0528 10 11.0269
    endloop
  endfacet
  facet normal -0.856844 0 0.515575
    outer loop
      vertex 40.1648 10 6.55343
      vertex 41.1682 75 8.221
      vertex 40.1648 75 6.55343
    endloop
  endfacet
  facet normal -0.856844 0 0.515575
    outer loop
      vertex 41.1682 75 8.221
      vertex 40.1648 10 6.55343
      vertex 41.1682 10 8.221
    endloop
  endfacet
  facet normal -0.561187 0 0.827689
    outer loop
      vertex 37.2157 75 4.04839
      vertex 38.8265 10 5.14054
      vertex 38.8265 75 5.14054
    endloop
  endfacet
  facet normal -0.561187 0 0.827689
    outer loop
      vertex 38.8265 10 5.14054
      vertex 37.2157 75 4.04839
      vertex 37.2157 10 4.04839
    endloop
  endfacet
  facet normal 0.647378 0 0.762169
    outer loop
      vertex 26.466 75 5.8107
      vertex 27.9493 10 4.5508
      vertex 27.9493 75 4.5508
    endloop
  endfacet
  facet normal 0.647378 0 0.762169
    outer loop
      vertex 27.9493 10 4.5508
      vertex 26.466 75 5.8107
      vertex 26.466 10 5.8107
    endloop
  endfacet
  facet normal -0.161782 0 0.986827
    outer loop
      vertex 33.4873 75 3.0132
      vertex 35.4078 10 3.32805
      vertex 35.4078 75 3.32805
    endloop
  endfacet
  facet normal -0.161782 0 0.986827
    outer loop
      vertex 35.4078 10 3.32805
      vertex 33.4873 75 3.0132
      vertex 33.4873 10 3.0132
    endloop
  endfacet
  facet normal 0.907569 -0 0.419903
    outer loop
      vertex 24.4711 10 9.12629
      vertex 25.2883 75 7.36001
      vertex 24.4711 75 9.12629
    endloop
  endfacet
  facet normal 0.907569 0 0.419903
    outer loop
      vertex 25.2883 75 7.36001
      vertex 24.4711 10 9.12629
      vertex 25.2883 10 7.36001
    endloop
  endfacet
  facet normal -1 0 0
    outer loop
      vertex 42 3 3
      vertex 42 10 12
      vertex 42 10 3
    endloop
  endfacet
  facet normal -1 -0 0
    outer loop
      vertex 42 10 12
      vertex 42 3 3
      vertex 42 3 12
    endloop
  endfacet
  facet normal -0 0 1
    outer loop
      vertex 3 10 3
      vertex 42 3 3
      vertex 42 10 3
    endloop
  endfacet
  facet normal 0 0 1
    outer loop
      vertex 42 3 3
      vertex 3 10 3
      vertex 3 3 3
    endloop
  endfacet
  facet normal 1 -0 0
    outer loop
      vertex 3 3 12
      vertex 3 10 3
      vertex 3 10 12
    endloop
  endfacet
  facet normal 1 0 0
    outer loop
      vertex 3 10 3
      vertex 3 3 12
      vertex 3 3 3
    endloop
  endfacet
  facet normal 0 1 -0
    outer loop
      vertex 42 3 3
      vertex 3 3 12
      vertex 42 3 12
    endloop
  endfacet
  facet normal 0 1 0
    outer loop
      vertex 3 3 12
      vertex 42 3 3
      vertex 3 3 3
    endloop
  endfacet
  facet normal 0 0 -1
    outer loop
      vertex 0 0 0
      vertex 45 172 0
      vertex 45 0 0
    endloop
  endfacet
  facet normal -0 0 -1
    outer loop
      vertex 45 172 0
      vertex 0 0 0
      vertex 0 172 0
    endloop
  endfacet
  facet normal -1 0 0
    outer loop
      vertex 0 0 0
      vertex 0 172 12
      vertex 0 172 0
    endloop
  endfacet
  facet normal -1 -0 0
    outer loop
      vertex 0 172 12
      vertex 0 0 0
      vertex 0 0 12
    endloop
  endfacet
  facet normal 0 1 -0
    outer loop
      vertex 45 172 0
      vertex 0 172 12
      vertex 45 172 12
    endloop
  endfacet
  facet normal 0 1 0
    outer loop
      vertex 0 172 12
      vertex 45 172 0
      vertex 0 172 0
    endloop
  endfacet
  facet normal 0 -1 0
    outer loop
      vertex 0 0 0
      vertex 45 0 12
      vertex 0 0 12
    endloop
  endfacet
  facet normal 0 -1 -0
    outer loop
      vertex 45 0 12
      vertex 0 0 0
      vertex 45 0 0
    endloop
  endfacet
endsolid OpenSCAD_Model
