solid OpenSCAD_Model
  facet normal 0.951051 0.309035 0
    outer loop
      vertex 15.6504 3.32659 29.2942
      vertex 14.6167 6.50779 0
      vertex 14.6167 6.50779 29.2942
    endloop
  endfacet
  facet normal 0.951051 0.309035 0
    outer loop
      vertex 14.6167 6.50779 0
      vertex 15.6504 3.32659 29.2942
      vertex 15.6504 3.32659 0
    endloop
  endfacet
  facet normal 0.994523 0.104517 0
    outer loop
      vertex 16 0 29.2942
      vertex 15.6504 3.32659 0
      vertex 15.6504 3.32659 29.2942
    endloop
  endfacet
  facet normal 0.994523 0.104517 0
    outer loop
      vertex 15.6504 3.32659 0
      vertex 16 0 29.2942
      vertex 16 0 0
    endloop
  endfacet
  facet normal 0.866032 0.499989 0
    outer loop
      vertex 14.6167 6.50779 29.2942
      vertex 12.9443 9.40456 0
      vertex 12.9443 9.40456 29.2942
    endloop
  endfacet
  facet normal 0.866032 0.499989 0
    outer loop
      vertex 12.9443 9.40456 0
      vertex 14.6167 6.50779 29.2942
      vertex 14.6167 6.50779 0
    endloop
  endfacet
  facet normal -0.406737 0.913545 0
    outer loop
      vertex -4.94427 15.2169 0
      vertex -8 13.8564 29.2942
      vertex -4.94427 15.2169 29.2942
    endloop
  endfacet
  facet normal -0.406737 0.913545 0
    outer loop
      vertex -8 13.8564 29.2942
      vertex -4.94427 15.2169 0
      vertex -8 13.8564 0
    endloop
  endfacet
  facet normal 0.406737 0.913545 -0
    outer loop
      vertex 8 13.8564 0
      vertex 4.94427 15.2169 29.2942
      vertex 8 13.8564 29.2942
    endloop
  endfacet
  facet normal 0.406737 0.913545 0
    outer loop
      vertex 4.94427 15.2169 29.2942
      vertex 8 13.8564 0
      vertex 4.94427 15.2169 0
    endloop
  endfacet
  facet normal 0.994523 -0.104517 0
    outer loop
      vertex 15.6504 -3.32659 29.2942
      vertex 16 0 0
      vertex 16 0 29.2942
    endloop
  endfacet
  facet normal 0.994523 -0.104517 0
    outer loop
      vertex 16 0 0
      vertex 15.6504 -3.32659 29.2942
      vertex 15.6504 -3.32659 0
    endloop
  endfacet
  facet normal -0.74314 0.669136 0
    outer loop
      vertex -12.9443 9.40456 0
      vertex -10.7061 11.8903 29.2942
      vertex -10.7061 11.8903 0
    endloop
  endfacet
  facet normal -0.74314 0.669136 0
    outer loop
      vertex -10.7061 11.8903 29.2942
      vertex -12.9443 9.40456 0
      vertex -12.9443 9.40456 29.2942
    endloop
  endfacet
  facet normal -0.587786 0.809017 0
    outer loop
      vertex -8 13.8564 0
      vertex -10.7061 11.8903 29.2942
      vertex -8 13.8564 29.2942
    endloop
  endfacet
  facet normal -0.587786 0.809017 0
    outer loop
      vertex -10.7061 11.8903 29.2942
      vertex -8 13.8564 0
      vertex -10.7061 11.8903 0
    endloop
  endfacet
  facet normal 0.74314 0.669136 0
    outer loop
      vertex 12.9443 9.40456 29.2942
      vertex 10.7061 11.8903 0
      vertex 10.7061 11.8903 29.2942
    endloop
  endfacet
  facet normal 0.74314 0.669136 0
    outer loop
      vertex 10.7061 11.8903 0
      vertex 12.9443 9.40456 29.2942
      vertex 12.9443 9.40456 0
    endloop
  endfacet
  facet normal 0.951051 -0.309035 0
    outer loop
      vertex 14.6167 -6.50779 29.2942
      vertex 15.6504 -3.32659 0
      vertex 15.6504 -3.32659 29.2942
    endloop
  endfacet
  facet normal 0.951051 -0.309035 0
    outer loop
      vertex 15.6504 -3.32659 0
      vertex 14.6167 -6.50779 29.2942
      vertex 14.6167 -6.50779 0
    endloop
  endfacet
  facet normal -0.406737 -0.913545 0
    outer loop
      vertex -8 -13.8564 0
      vertex -4.94427 -15.2169 29.2942
      vertex -8 -13.8564 29.2942
    endloop
  endfacet
  facet normal -0.406737 -0.913545 -0
    outer loop
      vertex -4.94427 -15.2169 29.2942
      vertex -8 -13.8564 0
      vertex -4.94427 -15.2169 0
    endloop
  endfacet
  facet normal -0.866032 -0.499989 0
    outer loop
      vertex -12.9443 -9.40456 0
      vertex -14.6167 -6.50779 29.2942
      vertex -14.6167 -6.50779 0
    endloop
  endfacet
  facet normal -0.866032 -0.499989 0
    outer loop
      vertex -14.6167 -6.50779 29.2942
      vertex -12.9443 -9.40456 0
      vertex -12.9443 -9.40456 29.2942
    endloop
  endfacet
  facet normal -0.951051 0.309035 0
    outer loop
      vertex -15.6504 3.32659 0
      vertex -14.6167 6.50779 29.2942
      vertex -14.6167 6.50779 0
    endloop
  endfacet
  facet normal -0.951051 0.309035 0
    outer loop
      vertex -14.6167 6.50779 29.2942
      vertex -15.6504 3.32659 0
      vertex -15.6504 3.32659 29.2942
    endloop
  endfacet
  facet normal -0.207898 -0.97815 0
    outer loop
      vertex -4.94427 -15.2169 0
      vertex -1.67245 -15.9123 29.2942
      vertex -4.94427 -15.2169 29.2942
    endloop
  endfacet
  facet normal -0.207898 -0.97815 -0
    outer loop
      vertex -1.67245 -15.9123 29.2942
      vertex -4.94427 -15.2169 0
      vertex -1.67245 -15.9123 0
    endloop
  endfacet
  facet normal -0.951051 -0.309035 0
    outer loop
      vertex -14.6167 -6.50779 0
      vertex -15.6504 -3.32659 29.2942
      vertex -15.6504 -3.32659 0
    endloop
  endfacet
  facet normal -0.951051 -0.309035 0
    outer loop
      vertex -15.6504 -3.32659 29.2942
      vertex -14.6167 -6.50779 0
      vertex -14.6167 -6.50779 29.2942
    endloop
  endfacet
  facet normal -0.994523 0.104517 0
    outer loop
      vertex -16 0 0
      vertex -15.6504 3.32659 29.2942
      vertex -15.6504 3.32659 0
    endloop
  endfacet
  facet normal -0.994523 0.104517 0
    outer loop
      vertex -15.6504 3.32659 29.2942
      vertex -16 0 0
      vertex -16 0 29.2942
    endloop
  endfacet
  facet normal 0 1 -0
    outer loop
      vertex 1.67245 15.9123 0
      vertex -1.67245 15.9123 29.2942
      vertex 1.67245 15.9123 29.2942
    endloop
  endfacet
  facet normal 0 1 0
    outer loop
      vertex -1.67245 15.9123 29.2942
      vertex 1.67245 15.9123 0
      vertex -1.67245 15.9123 0
    endloop
  endfacet
  facet normal 0.74314 -0.669136 0
    outer loop
      vertex 10.7061 -11.8903 29.2942
      vertex 12.9443 -9.40456 0
      vertex 12.9443 -9.40456 29.2942
    endloop
  endfacet
  facet normal 0.74314 -0.669136 0
    outer loop
      vertex 12.9443 -9.40456 0
      vertex 10.7061 -11.8903 29.2942
      vertex 10.7061 -11.8903 0
    endloop
  endfacet
  facet normal 0.207898 -0.97815 0
    outer loop
      vertex 1.67245 -15.9123 0
      vertex 4.94427 -15.2169 29.2942
      vertex 1.67245 -15.9123 29.2942
    endloop
  endfacet
  facet normal 0.207898 -0.97815 0
    outer loop
      vertex 4.94427 -15.2169 29.2942
      vertex 1.67245 -15.9123 0
      vertex 4.94427 -15.2169 0
    endloop
  endfacet
  facet normal 0.866032 -0.499989 0
    outer loop
      vertex 12.9443 -9.40456 29.2942
      vertex 14.6167 -6.50779 0
      vertex 14.6167 -6.50779 29.2942
    endloop
  endfacet
  facet normal 0.866032 -0.499989 0
    outer loop
      vertex 14.6167 -6.50779 0
      vertex 12.9443 -9.40456 29.2942
      vertex 12.9443 -9.40456 0
    endloop
  endfacet
  facet normal 0.207898 0.97815 -0
    outer loop
      vertex 4.94427 15.2169 0
      vertex 1.67245 15.9123 29.2942
      vertex 4.94427 15.2169 29.2942
    endloop
  endfacet
  facet normal 0.207898 0.97815 0
    outer loop
      vertex 1.67245 15.9123 29.2942
      vertex 4.94427 15.2169 0
      vertex 1.67245 15.9123 0
    endloop
  endfacet
  facet normal 0.587786 -0.809017 0
    outer loop
      vertex 8 -13.8564 0
      vertex 10.7061 -11.8903 29.2942
      vertex 8 -13.8564 29.2942
    endloop
  endfacet
  facet normal 0.587786 -0.809017 0
    outer loop
      vertex 10.7061 -11.8903 29.2942
      vertex 8 -13.8564 0
      vertex 10.7061 -11.8903 0
    endloop
  endfacet
  facet normal 0.587786 0.809017 -0
    outer loop
      vertex 10.7061 11.8903 0
      vertex 8 13.8564 29.2942
      vertex 10.7061 11.8903 29.2942
    endloop
  endfacet
  facet normal 0.587786 0.809017 0
    outer loop
      vertex 8 13.8564 29.2942
      vertex 10.7061 11.8903 0
      vertex 8 13.8564 0
    endloop
  endfacet
  facet normal -0.207898 0.97815 0
    outer loop
      vertex -1.67245 15.9123 0
      vertex -4.94427 15.2169 29.2942
      vertex -1.67245 15.9123 29.2942
    endloop
  endfacet
  facet normal -0.207898 0.97815 0
    outer loop
      vertex -4.94427 15.2169 29.2942
      vertex -1.67245 15.9123 0
      vertex -4.94427 15.2169 0
    endloop
  endfacet
  facet normal 0 -1 0
    outer loop
      vertex -1.67245 -15.9123 0
      vertex 1.67245 -15.9123 29.2942
      vertex -1.67245 -15.9123 29.2942
    endloop
  endfacet
  facet normal 0 -1 -0
    outer loop
      vertex 1.67245 -15.9123 29.2942
      vertex -1.67245 -15.9123 0
      vertex 1.67245 -15.9123 0
    endloop
  endfacet
  facet normal -0.994523 -0.104517 0
    outer loop
      vertex -15.6504 -3.32659 0
      vertex -16 0 29.2942
      vertex -16 0 0
    endloop
  endfacet
  facet normal -0.994523 -0.104517 0
    outer loop
      vertex -16 0 29.2942
      vertex -15.6504 -3.32659 0
      vertex -15.6504 -3.32659 29.2942
    endloop
  endfacet
  facet normal 0 0 -1
    outer loop
      vertex 15.6504 -3.32659 0
      vertex 15.6504 3.32659 0
      vertex 16 0 0
    endloop
  endfacet
  facet normal 0 0 -1
    outer loop
      vertex 14.6167 -6.50779 0
      vertex 15.6504 3.32659 0
      vertex 15.6504 -3.32659 0
    endloop
  endfacet
  facet normal 0 0 -1
    outer loop
      vertex 14.6167 -6.50779 0
      vertex 14.6167 6.50779 0
      vertex 15.6504 3.32659 0
    endloop
  endfacet
  facet normal 0 0 -1
    outer loop
      vertex 12.9443 -9.40456 0
      vertex 14.6167 6.50779 0
      vertex 14.6167 -6.50779 0
    endloop
  endfacet
  facet normal 0 0 -1
    outer loop
      vertex 12.9443 -9.40456 0
      vertex 12.9443 9.40456 0
      vertex 14.6167 6.50779 0
    endloop
  endfacet
  facet normal 0 0 -1
    outer loop
      vertex 10.7061 -11.8903 0
      vertex 12.9443 9.40456 0
      vertex 12.9443 -9.40456 0
    endloop
  endfacet
  facet normal 0 0 -1
    outer loop
      vertex 10.7061 -11.8903 0
      vertex 10.7061 11.8903 0
      vertex 12.9443 9.40456 0
    endloop
  endfacet
  facet normal 0 0 -1
    outer loop
      vertex 8 -13.8564 0
      vertex 10.7061 11.8903 0
      vertex 10.7061 -11.8903 0
    endloop
  endfacet
  facet normal 0 0 -1
    outer loop
      vertex 8 -13.8564 0
      vertex 8 13.8564 0
      vertex 10.7061 11.8903 0
    endloop
  endfacet
  facet normal 0 0 -1
    outer loop
      vertex 4.94427 -15.2169 0
      vertex 8 13.8564 0
      vertex 8 -13.8564 0
    endloop
  endfacet
  facet normal 0 0 -1
    outer loop
      vertex 4.94427 -15.2169 0
      vertex 4.94427 15.2169 0
      vertex 8 13.8564 0
    endloop
  endfacet
  facet normal 0 0 -1
    outer loop
      vertex 1.67245 -15.9123 0
      vertex 4.94427 15.2169 0
      vertex 4.94427 -15.2169 0
    endloop
  endfacet
  facet normal 0 0 -1
    outer loop
      vertex 1.67245 -15.9123 0
      vertex 1.67245 15.9123 0
      vertex 4.94427 15.2169 0
    endloop
  endfacet
  facet normal 0 0 -1
    outer loop
      vertex -1.67245 -15.9123 0
      vertex 1.67245 15.9123 0
      vertex 1.67245 -15.9123 0
    endloop
  endfacet
  facet normal 0 0 -1
    outer loop
      vertex -1.67245 -15.9123 0
      vertex -1.67245 15.9123 0
      vertex 1.67245 15.9123 0
    endloop
  endfacet
  facet normal 0 0 -1
    outer loop
      vertex -4.94427 -15.2169 0
      vertex -1.67245 15.9123 0
      vertex -1.67245 -15.9123 0
    endloop
  endfacet
  facet normal 0 0 -1
    outer loop
      vertex -4.94427 -15.2169 0
      vertex -4.94427 15.2169 0
      vertex -1.67245 15.9123 0
    endloop
  endfacet
  facet normal 0 0 -1
    outer loop
      vertex -8 -13.8564 0
      vertex -4.94427 15.2169 0
      vertex -4.94427 -15.2169 0
    endloop
  endfacet
  facet normal 0 0 -1
    outer loop
      vertex -8 -13.8564 0
      vertex -8 13.8564 0
      vertex -4.94427 15.2169 0
    endloop
  endfacet
  facet normal 0 0 -1
    outer loop
      vertex -10.7061 -11.8903 0
      vertex -8 13.8564 0
      vertex -8 -13.8564 0
    endloop
  endfacet
  facet normal 0 0 -1
    outer loop
      vertex -10.7061 -11.8903 0
      vertex -10.7061 11.8903 0
      vertex -8 13.8564 0
    endloop
  endfacet
  facet normal 0 0 -1
    outer loop
      vertex -12.9443 -9.40456 0
      vertex -10.7061 11.8903 0
      vertex -10.7061 -11.8903 0
    endloop
  endfacet
  facet normal 0 0 -1
    outer loop
      vertex -12.9443 -9.40456 0
      vertex -12.9443 9.40456 0
      vertex -10.7061 11.8903 0
    endloop
  endfacet
  facet normal 0 0 -1
    outer loop
      vertex -14.6167 -6.50779 0
      vertex -12.9443 9.40456 0
      vertex -12.9443 -9.40456 0
    endloop
  endfacet
  facet normal 0 0 -1
    outer loop
      vertex -14.6167 -6.50779 0
      vertex -14.6167 6.50779 0
      vertex -12.9443 9.40456 0
    endloop
  endfacet
  facet normal 0 0 -1
    outer loop
      vertex -15.6504 -3.32659 0
      vertex -14.6167 6.50779 0
      vertex -14.6167 -6.50779 0
    endloop
  endfacet
  facet normal 0 0 -1
    outer loop
      vertex -15.6504 -3.32659 0
      vertex -15.6504 3.32659 0
      vertex -14.6167 6.50779 0
    endloop
  endfacet
  facet normal 0 -0 -1
    outer loop
      vertex -15.6504 3.32659 0
      vertex -15.6504 -3.32659 0
      vertex -16 0 0
    endloop
  endfacet
  facet normal 0.406737 -0.913545 0
    outer loop
      vertex 4.94427 -15.2169 0
      vertex 8 -13.8564 29.2942
      vertex 4.94427 -15.2169 29.2942
    endloop
  endfacet
  facet normal 0.406737 -0.913545 0
    outer loop
      vertex 8 -13.8564 29.2942
      vertex 4.94427 -15.2169 0
      vertex 8 -13.8564 0
    endloop
  endfacet
  facet normal -0.74314 -0.669136 0
    outer loop
      vertex -10.7061 -11.8903 0
      vertex -12.9443 -9.40456 29.2942
      vertex -12.9443 -9.40456 0
    endloop
  endfacet
  facet normal -0.74314 -0.669136 0
    outer loop
      vertex -12.9443 -9.40456 29.2942
      vertex -10.7061 -11.8903 0
      vertex -10.7061 -11.8903 29.2942
    endloop
  endfacet
  facet normal 0 0 1
    outer loop
      vertex 15 0 29.2942
      vertex 16 0 29.2942
      vertex 15.6504 3.32659 29.2942
    endloop
  endfacet
  facet normal 0 0 1
    outer loop
      vertex 16 0 29.2942
      vertex 15 0 29.2942
      vertex 15.6504 -3.32659 29.2942
    endloop
  endfacet
  facet normal 0 0 1
    outer loop
      vertex 15.6504 3.32659 29.2942
      vertex 14.6722 3.11868 29.2942
      vertex 15 0 29.2942
    endloop
  endfacet
  facet normal 0 0 1
    outer loop
      vertex 14.6167 6.50779 29.2942
      vertex 14.6722 3.11868 29.2942
      vertex 15.6504 3.32659 29.2942
    endloop
  endfacet
  facet normal 0 0 1
    outer loop
      vertex 14.6167 6.50779 29.2942
      vertex 13.7032 6.10105 29.2942
      vertex 14.6722 3.11868 29.2942
    endloop
  endfacet
  facet normal 0 0 1
    outer loop
      vertex 12.9443 9.40456 29.2942
      vertex 13.7032 6.10105 29.2942
      vertex 14.6167 6.50779 29.2942
    endloop
  endfacet
  facet normal 0 0 1
    outer loop
      vertex 12.9443 9.40456 29.2942
      vertex 12.1353 8.81678 29.2942
      vertex 13.7032 6.10105 29.2942
    endloop
  endfacet
  facet normal 0 0 1
    outer loop
      vertex 10.7061 11.8903 29.2942
      vertex 12.1353 8.81678 29.2942
      vertex 12.9443 9.40456 29.2942
    endloop
  endfacet
  facet normal 0 0 1
    outer loop
      vertex 10.7061 11.8903 29.2942
      vertex 10.037 11.1472 29.2942
      vertex 12.1353 8.81678 29.2942
    endloop
  endfacet
  facet normal 0 0 1
    outer loop
      vertex 8 13.8564 29.2942
      vertex 10.037 11.1472 29.2942
      vertex 10.7061 11.8903 29.2942
    endloop
  endfacet
  facet normal 0 0 1
    outer loop
      vertex 8 13.8564 29.2942
      vertex 7.5 12.9904 29.2942
      vertex 10.037 11.1472 29.2942
    endloop
  endfacet
  facet normal 0 0 1
    outer loop
      vertex 4.94427 15.2169 29.2942
      vertex 7.5 12.9904 29.2942
      vertex 8 13.8564 29.2942
    endloop
  endfacet
  facet normal 0 0 1
    outer loop
      vertex 4.94427 15.2169 29.2942
      vertex 4.63525 14.2658 29.2942
      vertex 7.5 12.9904 29.2942
    endloop
  endfacet
  facet normal 0 0 1
    outer loop
      vertex 1.67245 15.9123 29.2942
      vertex 4.63525 14.2658 29.2942
      vertex 4.94427 15.2169 29.2942
    endloop
  endfacet
  facet normal 0 0 1
    outer loop
      vertex 1.67245 15.9123 29.2942
      vertex 1.56793 14.9178 29.2942
      vertex 4.63525 14.2658 29.2942
    endloop
  endfacet
  facet normal 0 0 1
    outer loop
      vertex 1.67245 15.9123 29.2942
      vertex -1.56793 14.9178 29.2942
      vertex 1.56793 14.9178 29.2942
    endloop
  endfacet
  facet normal -0 0 1
    outer loop
      vertex -1.67245 15.9123 29.2942
      vertex -1.56793 14.9178 29.2942
      vertex 1.67245 15.9123 29.2942
    endloop
  endfacet
  facet normal 0 0 1
    outer loop
      vertex -1.67245 15.9123 29.2942
      vertex -4.63525 14.2658 29.2942
      vertex -1.56793 14.9178 29.2942
    endloop
  endfacet
  facet normal -0 0 1
    outer loop
      vertex -4.94427 15.2169 29.2942
      vertex -4.63525 14.2658 29.2942
      vertex -1.67245 15.9123 29.2942
    endloop
  endfacet
  facet normal 0 0 1
    outer loop
      vertex -4.94427 15.2169 29.2942
      vertex -7.5 12.9904 29.2942
      vertex -4.63525 14.2658 29.2942
    endloop
  endfacet
  facet normal -0 0 1
    outer loop
      vertex -8 13.8564 29.2942
      vertex -7.5 12.9904 29.2942
      vertex -4.94427 15.2169 29.2942
    endloop
  endfacet
  facet normal 0 0 1
    outer loop
      vertex -8 13.8564 29.2942
      vertex -10.037 11.1472 29.2942
      vertex -7.5 12.9904 29.2942
    endloop
  endfacet
  facet normal -0 0 1
    outer loop
      vertex -10.7061 11.8903 29.2942
      vertex -10.037 11.1472 29.2942
      vertex -8 13.8564 29.2942
    endloop
  endfacet
  facet normal 0 0 1
    outer loop
      vertex -10.7061 11.8903 29.2942
      vertex -12.1353 8.81678 29.2942
      vertex -10.037 11.1472 29.2942
    endloop
  endfacet
  facet normal -0 0 1
    outer loop
      vertex -12.9443 9.40456 29.2942
      vertex -12.1353 8.81678 29.2942
      vertex -10.7061 11.8903 29.2942
    endloop
  endfacet
  facet normal 0 0 1
    outer loop
      vertex -12.9443 9.40456 29.2942
      vertex -13.7032 6.10105 29.2942
      vertex -12.1353 8.81678 29.2942
    endloop
  endfacet
  facet normal -0 0 1
    outer loop
      vertex -14.6167 6.50779 29.2942
      vertex -13.7032 6.10105 29.2942
      vertex -12.9443 9.40456 29.2942
    endloop
  endfacet
  facet normal 0 0 1
    outer loop
      vertex -14.6167 6.50779 29.2942
      vertex -14.6722 3.11868 29.2942
      vertex -13.7032 6.10105 29.2942
    endloop
  endfacet
  facet normal -0 0 1
    outer loop
      vertex -15.6504 3.32659 29.2942
      vertex -14.6722 3.11868 29.2942
      vertex -14.6167 6.50779 29.2942
    endloop
  endfacet
  facet normal 0 0 1
    outer loop
      vertex -14.6722 3.11868 29.2942
      vertex -15.6504 3.32659 29.2942
      vertex -15 0 29.2942
    endloop
  endfacet
  facet normal -0 0 1
    outer loop
      vertex 14.6722 -3.11868 29.2942
      vertex 15.6504 -3.32659 29.2942
      vertex 15 0 29.2942
    endloop
  endfacet
  facet normal 0 0 1
    outer loop
      vertex 14.6722 -3.11868 29.2942
      vertex 14.6167 -6.50779 29.2942
      vertex 15.6504 -3.32659 29.2942
    endloop
  endfacet
  facet normal -0 0 1
    outer loop
      vertex 13.7032 -6.10105 29.2942
      vertex 14.6167 -6.50779 29.2942
      vertex 14.6722 -3.11868 29.2942
    endloop
  endfacet
  facet normal 0 0 1
    outer loop
      vertex 13.7032 -6.10105 29.2942
      vertex 12.9443 -9.40456 29.2942
      vertex 14.6167 -6.50779 29.2942
    endloop
  endfacet
  facet normal -0 0 1
    outer loop
      vertex 12.1353 -8.81678 29.2942
      vertex 12.9443 -9.40456 29.2942
      vertex 13.7032 -6.10105 29.2942
    endloop
  endfacet
  facet normal 0 0 1
    outer loop
      vertex 12.1353 -8.81678 29.2942
      vertex 10.7061 -11.8903 29.2942
      vertex 12.9443 -9.40456 29.2942
    endloop
  endfacet
  facet normal -0 0 1
    outer loop
      vertex 10.037 -11.1472 29.2942
      vertex 10.7061 -11.8903 29.2942
      vertex 12.1353 -8.81678 29.2942
    endloop
  endfacet
  facet normal 0 0 1
    outer loop
      vertex 10.037 -11.1472 29.2942
      vertex 8 -13.8564 29.2942
      vertex 10.7061 -11.8903 29.2942
    endloop
  endfacet
  facet normal -0 0 1
    outer loop
      vertex 7.5 -12.9904 29.2942
      vertex 8 -13.8564 29.2942
      vertex 10.037 -11.1472 29.2942
    endloop
  endfacet
  facet normal 0 0 1
    outer loop
      vertex 7.5 -12.9904 29.2942
      vertex 4.94427 -15.2169 29.2942
      vertex 8 -13.8564 29.2942
    endloop
  endfacet
  facet normal -0 0 1
    outer loop
      vertex 4.63525 -14.2658 29.2942
      vertex 4.94427 -15.2169 29.2942
      vertex 7.5 -12.9904 29.2942
    endloop
  endfacet
  facet normal 0 0 1
    outer loop
      vertex 4.63525 -14.2658 29.2942
      vertex 1.67245 -15.9123 29.2942
      vertex 4.94427 -15.2169 29.2942
    endloop
  endfacet
  facet normal -0 0 1
    outer loop
      vertex 1.56793 -14.9178 29.2942
      vertex 1.67245 -15.9123 29.2942
      vertex 4.63525 -14.2658 29.2942
    endloop
  endfacet
  facet normal -0 0 1
    outer loop
      vertex -1.56793 -14.9178 29.2942
      vertex 1.67245 -15.9123 29.2942
      vertex 1.56793 -14.9178 29.2942
    endloop
  endfacet
  facet normal 0 0 1
    outer loop
      vertex -1.56793 -14.9178 29.2942
      vertex -1.67245 -15.9123 29.2942
      vertex 1.67245 -15.9123 29.2942
    endloop
  endfacet
  facet normal 0 0 1
    outer loop
      vertex -4.63525 -14.2658 29.2942
      vertex -1.67245 -15.9123 29.2942
      vertex -1.56793 -14.9178 29.2942
    endloop
  endfacet
  facet normal 0 0 1
    outer loop
      vertex -4.63525 -14.2658 29.2942
      vertex -4.94427 -15.2169 29.2942
      vertex -1.67245 -15.9123 29.2942
    endloop
  endfacet
  facet normal 0 0 1
    outer loop
      vertex -7.5 -12.9904 29.2942
      vertex -4.94427 -15.2169 29.2942
      vertex -4.63525 -14.2658 29.2942
    endloop
  endfacet
  facet normal 0 0 1
    outer loop
      vertex -7.5 -12.9904 29.2942
      vertex -8 -13.8564 29.2942
      vertex -4.94427 -15.2169 29.2942
    endloop
  endfacet
  facet normal 0 0 1
    outer loop
      vertex -10.037 -11.1472 29.2942
      vertex -8 -13.8564 29.2942
      vertex -7.5 -12.9904 29.2942
    endloop
  endfacet
  facet normal 0 0 1
    outer loop
      vertex -10.037 -11.1472 29.2942
      vertex -10.7061 -11.8903 29.2942
      vertex -8 -13.8564 29.2942
    endloop
  endfacet
  facet normal 0 0 1
    outer loop
      vertex -12.1353 -8.81678 29.2942
      vertex -10.7061 -11.8903 29.2942
      vertex -10.037 -11.1472 29.2942
    endloop
  endfacet
  facet normal 0 0 1
    outer loop
      vertex -12.1353 -8.81678 29.2942
      vertex -12.9443 -9.40456 29.2942
      vertex -10.7061 -11.8903 29.2942
    endloop
  endfacet
  facet normal 0 0 1
    outer loop
      vertex -13.7032 -6.10105 29.2942
      vertex -12.9443 -9.40456 29.2942
      vertex -12.1353 -8.81678 29.2942
    endloop
  endfacet
  facet normal 0 0 1
    outer loop
      vertex -13.7032 -6.10105 29.2942
      vertex -14.6167 -6.50779 29.2942
      vertex -12.9443 -9.40456 29.2942
    endloop
  endfacet
  facet normal 0 0 1
    outer loop
      vertex -14.6722 -3.11868 29.2942
      vertex -14.6167 -6.50779 29.2942
      vertex -13.7032 -6.10105 29.2942
    endloop
  endfacet
  facet normal 0 0 1
    outer loop
      vertex -15.6504 -3.32659 29.2942
      vertex -14.6722 -3.11868 29.2942
      vertex -15 0 29.2942
    endloop
  endfacet
  facet normal 0 0 1
    outer loop
      vertex -16 0 29.2942
      vertex -15 0 29.2942
      vertex -15.6504 3.32659 29.2942
    endloop
  endfacet
  facet normal 0 0 1
    outer loop
      vertex -14.6722 -3.11868 29.2942
      vertex -15.6504 -3.32659 29.2942
      vertex -14.6167 -6.50779 29.2942
    endloop
  endfacet
  facet normal 0 0 1
    outer loop
      vertex -15 0 29.2942
      vertex -16 0 29.2942
      vertex -15.6504 -3.32659 29.2942
    endloop
  endfacet
  facet normal -0.587786 -0.809017 0
    outer loop
      vertex -10.7061 -11.8903 0
      vertex -8 -13.8564 29.2942
      vertex -10.7061 -11.8903 29.2942
    endloop
  endfacet
  facet normal -0.587786 -0.809017 -0
    outer loop
      vertex -8 -13.8564 29.2942
      vertex -10.7061 -11.8903 0
      vertex -8 -13.8564 0
    endloop
  endfacet
  facet normal -0.866032 0.499989 0
    outer loop
      vertex -14.6167 6.50779 0
      vertex -12.9443 9.40456 29.2942
      vertex -12.9443 9.40456 0
    endloop
  endfacet
  facet normal -0.866032 0.499989 0
    outer loop
      vertex -12.9443 9.40456 29.2942
      vertex -14.6167 6.50779 0
      vertex -14.6167 6.50779 29.2942
    endloop
  endfacet
  facet normal -0.951059 -0.309008 0
    outer loop
      vertex 14.6722 3.11868 1
      vertex 13.7032 6.10105 29.2942
      vertex 13.7032 6.10105 1
    endloop
  endfacet
  facet normal -0.951059 -0.309008 0
    outer loop
      vertex 13.7032 6.10105 29.2942
      vertex 14.6722 3.11868 1
      vertex 14.6722 3.11868 29.2942
    endloop
  endfacet
  facet normal -0.994521 -0.104533 0
    outer loop
      vertex 15 0 1
      vertex 14.6722 3.11868 29.2942
      vertex 14.6722 3.11868 1
    endloop
  endfacet
  facet normal -0.994521 -0.104533 0
    outer loop
      vertex 14.6722 3.11868 29.2942
      vertex 15 0 1
      vertex 15 0 29.2942
    endloop
  endfacet
  facet normal -0.866029 -0.499993 0
    outer loop
      vertex 13.7032 6.10105 1
      vertex 12.1353 8.81678 29.2942
      vertex 12.1353 8.81678 1
    endloop
  endfacet
  facet normal -0.866029 -0.499993 0
    outer loop
      vertex 12.1353 8.81678 29.2942
      vertex 13.7032 6.10105 1
      vertex 13.7032 6.10105 29.2942
    endloop
  endfacet
  facet normal -0.951059 0.309008 0
    outer loop
      vertex 13.7032 -6.10105 1
      vertex 14.6722 -3.11868 29.2942
      vertex 14.6722 -3.11868 1
    endloop
  endfacet
  facet normal -0.951059 0.309008 0
    outer loop
      vertex 14.6722 -3.11868 29.2942
      vertex 13.7032 -6.10105 1
      vertex 13.7032 -6.10105 29.2942
    endloop
  endfacet
  facet normal -0.994521 0.104533 0
    outer loop
      vertex 14.6722 -3.11868 1
      vertex 15 0 29.2942
      vertex 15 0 1
    endloop
  endfacet
  facet normal -0.994521 0.104533 0
    outer loop
      vertex 15 0 29.2942
      vertex 14.6722 -3.11868 1
      vertex 14.6722 -3.11868 29.2942
    endloop
  endfacet
  facet normal -0.743148 -0.669127 0
    outer loop
      vertex 12.1353 8.81678 1
      vertex 10.037 11.1472 29.2942
      vertex 10.037 11.1472 1
    endloop
  endfacet
  facet normal -0.743148 -0.669127 0
    outer loop
      vertex 10.037 11.1472 29.2942
      vertex 12.1353 8.81678 1
      vertex 12.1353 8.81678 29.2942
    endloop
  endfacet
  facet normal 0.951059 0.309008 0
    outer loop
      vertex -13.7032 -6.10105 29.2942
      vertex -14.6722 -3.11868 1
      vertex -14.6722 -3.11868 29.2942
    endloop
  endfacet
  facet normal 0.951059 0.309008 0
    outer loop
      vertex -14.6722 -3.11868 1
      vertex -13.7032 -6.10105 29.2942
      vertex -13.7032 -6.10105 1
    endloop
  endfacet
  facet normal 0.951059 -0.309008 0
    outer loop
      vertex -14.6722 3.11868 29.2942
      vertex -13.7032 6.10105 1
      vertex -13.7032 6.10105 29.2942
    endloop
  endfacet
  facet normal 0.951059 -0.309008 0
    outer loop
      vertex -13.7032 6.10105 1
      vertex -14.6722 3.11868 29.2942
      vertex -14.6722 3.11868 1
    endloop
  endfacet
  facet normal -0.587777 0.809023 0
    outer loop
      vertex 10.037 -11.1472 1
      vertex 7.5 -12.9904 29.2942
      vertex 10.037 -11.1472 29.2942
    endloop
  endfacet
  facet normal -0.587777 0.809023 0
    outer loop
      vertex 7.5 -12.9904 29.2942
      vertex 10.037 -11.1472 1
      vertex 7.5 -12.9904 1
    endloop
  endfacet
  facet normal 0.587777 -0.809023 0
    outer loop
      vertex -10.037 11.1472 1
      vertex -7.5 12.9904 29.2942
      vertex -10.037 11.1472 29.2942
    endloop
  endfacet
  facet normal 0.587777 -0.809023 0
    outer loop
      vertex -7.5 12.9904 29.2942
      vertex -10.037 11.1472 1
      vertex -7.5 12.9904 1
    endloop
  endfacet
  facet normal 0.866029 -0.499993 0
    outer loop
      vertex -13.7032 6.10105 29.2942
      vertex -12.1353 8.81678 1
      vertex -12.1353 8.81678 29.2942
    endloop
  endfacet
  facet normal 0.866029 -0.499993 0
    outer loop
      vertex -12.1353 8.81678 1
      vertex -13.7032 6.10105 29.2942
      vertex -13.7032 6.10105 1
    endloop
  endfacet
  facet normal -0.866029 0.499993 0
    outer loop
      vertex 12.1353 -8.81678 1
      vertex 13.7032 -6.10105 29.2942
      vertex 13.7032 -6.10105 1
    endloop
  endfacet
  facet normal -0.866029 0.499993 0
    outer loop
      vertex 13.7032 -6.10105 29.2942
      vertex 12.1353 -8.81678 1
      vertex 12.1353 -8.81678 29.2942
    endloop
  endfacet
  facet normal 0 -1 0
    outer loop
      vertex -1.56793 14.9178 1
      vertex 1.56793 14.9178 29.2942
      vertex -1.56793 14.9178 29.2942
    endloop
  endfacet
  facet normal 0 -1 -0
    outer loop
      vertex 1.56793 14.9178 29.2942
      vertex -1.56793 14.9178 1
      vertex 1.56793 14.9178 1
    endloop
  endfacet
  facet normal 0.406718 -0.913554 0
    outer loop
      vertex -7.5 12.9904 1
      vertex -4.63525 14.2658 29.2942
      vertex -7.5 12.9904 29.2942
    endloop
  endfacet
  facet normal 0.406718 -0.913554 0
    outer loop
      vertex -4.63525 14.2658 29.2942
      vertex -7.5 12.9904 1
      vertex -4.63525 14.2658 1
    endloop
  endfacet
  facet normal 0.207918 0.978146 -0
    outer loop
      vertex -1.56793 -14.9178 1
      vertex -4.63525 -14.2658 29.2942
      vertex -1.56793 -14.9178 29.2942
    endloop
  endfacet
  facet normal 0.207918 0.978146 0
    outer loop
      vertex -4.63525 -14.2658 29.2942
      vertex -1.56793 -14.9178 1
      vertex -4.63525 -14.2658 1
    endloop
  endfacet
  facet normal 0 1 -0
    outer loop
      vertex 1.56793 -14.9178 1
      vertex -1.56793 -14.9178 29.2942
      vertex 1.56793 -14.9178 29.2942
    endloop
  endfacet
  facet normal 0 1 0
    outer loop
      vertex -1.56793 -14.9178 29.2942
      vertex 1.56793 -14.9178 1
      vertex -1.56793 -14.9178 1
    endloop
  endfacet
  facet normal 0.207918 -0.978146 0
    outer loop
      vertex -4.63525 14.2658 1
      vertex -1.56793 14.9178 29.2942
      vertex -4.63525 14.2658 29.2942
    endloop
  endfacet
  facet normal 0.207918 -0.978146 0
    outer loop
      vertex -1.56793 14.9178 29.2942
      vertex -4.63525 14.2658 1
      vertex -1.56793 14.9178 1
    endloop
  endfacet
  facet normal -0.207918 0.978146 0
    outer loop
      vertex 4.63525 -14.2658 1
      vertex 1.56793 -14.9178 29.2942
      vertex 4.63525 -14.2658 29.2942
    endloop
  endfacet
  facet normal -0.207918 0.978146 0
    outer loop
      vertex 1.56793 -14.9178 29.2942
      vertex 4.63525 -14.2658 1
      vertex 1.56793 -14.9178 1
    endloop
  endfacet
  facet normal -0.743148 0.669127 0
    outer loop
      vertex 10.037 -11.1472 1
      vertex 12.1353 -8.81678 29.2942
      vertex 12.1353 -8.81678 1
    endloop
  endfacet
  facet normal -0.743148 0.669127 0
    outer loop
      vertex 12.1353 -8.81678 29.2942
      vertex 10.037 -11.1472 1
      vertex 10.037 -11.1472 29.2942
    endloop
  endfacet
  facet normal -0.406718 0.913554 0
    outer loop
      vertex 7.5 -12.9904 1
      vertex 4.63525 -14.2658 29.2942
      vertex 7.5 -12.9904 29.2942
    endloop
  endfacet
  facet normal -0.406718 0.913554 0
    outer loop
      vertex 4.63525 -14.2658 29.2942
      vertex 7.5 -12.9904 1
      vertex 4.63525 -14.2658 1
    endloop
  endfacet
  facet normal 0.587777 0.809023 -0
    outer loop
      vertex -7.5 -12.9904 1
      vertex -10.037 -11.1472 29.2942
      vertex -7.5 -12.9904 29.2942
    endloop
  endfacet
  facet normal 0.587777 0.809023 0
    outer loop
      vertex -10.037 -11.1472 29.2942
      vertex -7.5 -12.9904 1
      vertex -10.037 -11.1472 1
    endloop
  endfacet
  facet normal -0.587777 -0.809023 0
    outer loop
      vertex 7.5 12.9904 1
      vertex 10.037 11.1472 29.2942
      vertex 7.5 12.9904 29.2942
    endloop
  endfacet
  facet normal -0.587777 -0.809023 -0
    outer loop
      vertex 10.037 11.1472 29.2942
      vertex 7.5 12.9904 1
      vertex 10.037 11.1472 1
    endloop
  endfacet
  facet normal 0.994521 -0.104533 0
    outer loop
      vertex -15 0 29.2942
      vertex -14.6722 3.11868 1
      vertex -14.6722 3.11868 29.2942
    endloop
  endfacet
  facet normal 0.994521 -0.104533 0
    outer loop
      vertex -14.6722 3.11868 1
      vertex -15 0 29.2942
      vertex -15 0 1
    endloop
  endfacet
  facet normal -0.207918 -0.978146 0
    outer loop
      vertex 1.56793 14.9178 1
      vertex 4.63525 14.2658 29.2942
      vertex 1.56793 14.9178 29.2942
    endloop
  endfacet
  facet normal -0.207918 -0.978146 -0
    outer loop
      vertex 4.63525 14.2658 29.2942
      vertex 1.56793 14.9178 1
      vertex 4.63525 14.2658 1
    endloop
  endfacet
  facet normal 0.866029 0.499993 0
    outer loop
      vertex -12.1353 -8.81678 29.2942
      vertex -13.7032 -6.10105 1
      vertex -13.7032 -6.10105 29.2942
    endloop
  endfacet
  facet normal 0.866029 0.499993 0
    outer loop
      vertex -13.7032 -6.10105 1
      vertex -12.1353 -8.81678 29.2942
      vertex -12.1353 -8.81678 1
    endloop
  endfacet
  facet normal -0.406718 -0.913554 0
    outer loop
      vertex 4.63525 14.2658 1
      vertex 7.5 12.9904 29.2942
      vertex 4.63525 14.2658 29.2942
    endloop
  endfacet
  facet normal -0.406718 -0.913554 -0
    outer loop
      vertex 7.5 12.9904 29.2942
      vertex 4.63525 14.2658 1
      vertex 7.5 12.9904 1
    endloop
  endfacet
  facet normal 0.994521 0.104533 0
    outer loop
      vertex -14.6722 -3.11868 29.2942
      vertex -15 0 1
      vertex -15 0 29.2942
    endloop
  endfacet
  facet normal 0.994521 0.104533 0
    outer loop
      vertex -15 0 1
      vertex -14.6722 -3.11868 29.2942
      vertex -14.6722 -3.11868 1
    endloop
  endfacet
  facet normal 0.743148 0.669127 0
    outer loop
      vertex -10.037 -11.1472 29.2942
      vertex -12.1353 -8.81678 1
      vertex -12.1353 -8.81678 29.2942
    endloop
  endfacet
  facet normal 0.743148 0.669127 0
    outer loop
      vertex -12.1353 -8.81678 1
      vertex -10.037 -11.1472 29.2942
      vertex -10.037 -11.1472 1
    endloop
  endfacet
  facet normal 0 0 1
    outer loop
      vertex 14.6722 3.11868 1
      vertex 14.6722 -3.11868 1
      vertex 15 0 1
    endloop
  endfacet
  facet normal 0 0 1
    outer loop
      vertex 13.7032 6.10105 1
      vertex 14.6722 -3.11868 1
      vertex 14.6722 3.11868 1
    endloop
  endfacet
  facet normal 0 0 1
    outer loop
      vertex 13.7032 6.10105 1
      vertex 13.7032 -6.10105 1
      vertex 14.6722 -3.11868 1
    endloop
  endfacet
  facet normal 0 0 1
    outer loop
      vertex 12.1353 8.81678 1
      vertex 13.7032 -6.10105 1
      vertex 13.7032 6.10105 1
    endloop
  endfacet
  facet normal 0 0 1
    outer loop
      vertex 12.1353 8.81678 1
      vertex 12.1353 -8.81678 1
      vertex 13.7032 -6.10105 1
    endloop
  endfacet
  facet normal 0 0 1
    outer loop
      vertex 10.037 11.1472 1
      vertex 12.1353 -8.81678 1
      vertex 12.1353 8.81678 1
    endloop
  endfacet
  facet normal 0 0 1
    outer loop
      vertex 10.037 11.1472 1
      vertex 10.037 -11.1472 1
      vertex 12.1353 -8.81678 1
    endloop
  endfacet
  facet normal 0 0 1
    outer loop
      vertex 7.5 12.9904 1
      vertex 10.037 -11.1472 1
      vertex 10.037 11.1472 1
    endloop
  endfacet
  facet normal 0 0 1
    outer loop
      vertex 7.5 12.9904 1
      vertex 7.5 -12.9904 1
      vertex 10.037 -11.1472 1
    endloop
  endfacet
  facet normal 0 0 1
    outer loop
      vertex 4.63525 14.2658 1
      vertex 7.5 -12.9904 1
      vertex 7.5 12.9904 1
    endloop
  endfacet
  facet normal 0 0 1
    outer loop
      vertex 4.63525 14.2658 1
      vertex 4.63525 -14.2658 1
      vertex 7.5 -12.9904 1
    endloop
  endfacet
  facet normal 0 0 1
    outer loop
      vertex 1.56793 14.9178 1
      vertex 4.63525 -14.2658 1
      vertex 4.63525 14.2658 1
    endloop
  endfacet
  facet normal 0 0 1
    outer loop
      vertex 1.56793 14.9178 1
      vertex 1.56793 -14.9178 1
      vertex 4.63525 -14.2658 1
    endloop
  endfacet
  facet normal -0 0 1
    outer loop
      vertex -1.56793 14.9178 1
      vertex 1.56793 -14.9178 1
      vertex 1.56793 14.9178 1
    endloop
  endfacet
  facet normal 0 0 1
    outer loop
      vertex -1.56793 14.9178 1
      vertex -1.56793 -14.9178 1
      vertex 1.56793 -14.9178 1
    endloop
  endfacet
  facet normal -0 0 1
    outer loop
      vertex -4.63525 14.2658 1
      vertex -1.56793 -14.9178 1
      vertex -1.56793 14.9178 1
    endloop
  endfacet
  facet normal 0 0 1
    outer loop
      vertex -4.63525 14.2658 1
      vertex -4.63525 -14.2658 1
      vertex -1.56793 -14.9178 1
    endloop
  endfacet
  facet normal -0 0 1
    outer loop
      vertex -7.5 12.9904 1
      vertex -4.63525 -14.2658 1
      vertex -4.63525 14.2658 1
    endloop
  endfacet
  facet normal 0 0 1
    outer loop
      vertex -7.5 12.9904 1
      vertex -7.5 -12.9904 1
      vertex -4.63525 -14.2658 1
    endloop
  endfacet
  facet normal -0 0 1
    outer loop
      vertex -10.037 11.1472 1
      vertex -7.5 -12.9904 1
      vertex -7.5 12.9904 1
    endloop
  endfacet
  facet normal 0 0 1
    outer loop
      vertex -10.037 11.1472 1
      vertex -10.037 -11.1472 1
      vertex -7.5 -12.9904 1
    endloop
  endfacet
  facet normal -0 0 1
    outer loop
      vertex -12.1353 8.81678 1
      vertex -10.037 -11.1472 1
      vertex -10.037 11.1472 1
    endloop
  endfacet
  facet normal 0 0 1
    outer loop
      vertex -12.1353 8.81678 1
      vertex -12.1353 -8.81678 1
      vertex -10.037 -11.1472 1
    endloop
  endfacet
  facet normal -0 0 1
    outer loop
      vertex -13.7032 6.10105 1
      vertex -12.1353 -8.81678 1
      vertex -12.1353 8.81678 1
    endloop
  endfacet
  facet normal 0 0 1
    outer loop
      vertex -13.7032 6.10105 1
      vertex -13.7032 -6.10105 1
      vertex -12.1353 -8.81678 1
    endloop
  endfacet
  facet normal -0 0 1
    outer loop
      vertex -14.6722 3.11868 1
      vertex -13.7032 -6.10105 1
      vertex -13.7032 6.10105 1
    endloop
  endfacet
  facet normal 0 0 1
    outer loop
      vertex -14.6722 3.11868 1
      vertex -14.6722 -3.11868 1
      vertex -13.7032 -6.10105 1
    endloop
  endfacet
  facet normal 0 -0 1
    outer loop
      vertex -14.6722 -3.11868 1
      vertex -14.6722 3.11868 1
      vertex -15 0 1
    endloop
  endfacet
  facet normal 0.406718 0.913554 -0
    outer loop
      vertex -4.63525 -14.2658 1
      vertex -7.5 -12.9904 29.2942
      vertex -4.63525 -14.2658 29.2942
    endloop
  endfacet
  facet normal 0.406718 0.913554 0
    outer loop
      vertex -7.5 -12.9904 29.2942
      vertex -4.63525 -14.2658 1
      vertex -7.5 -12.9904 1
    endloop
  endfacet
  facet normal 0.743148 -0.669127 0
    outer loop
      vertex -12.1353 8.81678 29.2942
      vertex -10.037 11.1472 1
      vertex -10.037 11.1472 29.2942
    endloop
  endfacet
  facet normal 0.743148 -0.669127 0
    outer loop
      vertex -10.037 11.1472 1
      vertex -12.1353 8.81678 29.2942
      vertex -12.1353 8.81678 1
    endloop
  endfacet
endsolid OpenSCAD_Model
