solid OpenSCAD_Model
  facet normal -0.797187 0.0837861 -0.59789
    outer loop
      vertex -5 -0 4
      vertex -4.89074 1.03956 4
      vertex -3.5 -0 2
    endloop
  endfacet
  facet normal -0.797188 0.0837841 -0.59789
    outer loop
      vertex -4.89074 1.03956 4
      vertex -3.42352 0.727691 2
      vertex -3.5 -0 2
    endloop
  endfacet
  facet normal 0 0 1
    outer loop
      vertex -0 -0 4
      vertex -4.89074 1.03956 4
      vertex -5 -0 4
    endloop
  endfacet
  facet normal 0 0 -1
    outer loop
      vertex -5 -0 0
      vertex -4.89074 1.03956 0
      vertex -0 -0 0
    endloop
  endfacet
  facet normal -0.797187 0.083784 0.59789
    outer loop
      vertex -3.5 -0 2
      vertex -3.42352 0.727691 2
      vertex -5 -0 0
    endloop
  endfacet
  facet normal -0.797187 0.0837861 0.59789
    outer loop
      vertex -3.42352 0.727691 2
      vertex -4.89074 1.03956 0
      vertex -5 -0 0
    endloop
  endfacet
  facet normal -0.762346 0.247702 -0.59789
    outer loop
      vertex -4.89074 1.03956 4
      vertex -4.56773 2.03368 4
      vertex -3.42352 0.727691 2
    endloop
  endfacet
  facet normal -0.762345 0.247703 -0.59789
    outer loop
      vertex -4.56773 2.03368 4
      vertex -3.19741 1.42358 2
      vertex -3.42352 0.727691 2
    endloop
  endfacet
  facet normal 0 0 1
    outer loop
      vertex -0 -0 4
      vertex -4.56773 2.03368 4
      vertex -4.89074 1.03956 4
    endloop
  endfacet
  facet normal 0 0 -1
    outer loop
      vertex -4.89074 1.03956 0
      vertex -4.56773 2.03368 0
      vertex -0 -0 0
    endloop
  endfacet
  facet normal -0.762346 0.247703 0.59789
    outer loop
      vertex -3.42352 0.727691 2
      vertex -3.19741 1.42358 2
      vertex -4.89074 1.03956 0
    endloop
  endfacet
  facet normal -0.762346 0.247702 0.59789
    outer loop
      vertex -3.19741 1.42358 2
      vertex -4.56773 2.03368 0
      vertex -4.89074 1.03956 0
    endloop
  endfacet
  facet normal -0.694186 0.400791 -0.59789
    outer loop
      vertex -4.56773 2.03368 4
      vertex -4.04508 2.93893 4
      vertex -3.19741 1.42358 2
    endloop
  endfacet
  facet normal -0.694187 0.40079 -0.597889
    outer loop
      vertex -4.04508 2.93893 4
      vertex -2.83156 2.05725 2
      vertex -3.19741 1.42358 2
    endloop
  endfacet
  facet normal 0 0 1
    outer loop
      vertex -0 -0 4
      vertex -4.04508 2.93893 4
      vertex -4.56773 2.03368 4
    endloop
  endfacet
  facet normal 0 0 -1
    outer loop
      vertex -4.56773 2.03368 0
      vertex -4.04508 2.93893 0
      vertex -0 -0 0
    endloop
  endfacet
  facet normal -0.694187 0.400789 0.59789
    outer loop
      vertex -3.19741 1.42358 2
      vertex -2.83156 2.05725 2
      vertex -4.56773 2.03368 0
    endloop
  endfacet
  facet normal -0.694186 0.400791 0.597889
    outer loop
      vertex -2.83156 2.05725 2
      vertex -4.04508 2.93893 0
      vertex -4.56773 2.03368 0
    endloop
  endfacet
  facet normal -0.595687 0.536363 -0.597889
    outer loop
      vertex -4.04508 2.93893 4
      vertex -3.34565 3.71572 4
      vertex -2.83156 2.05725 2
    endloop
  endfacet
  facet normal -0.595692 0.536359 -0.597888
    outer loop
      vertex -3.34565 3.71572 4
      vertex -2.34196 2.60101 2
      vertex -2.83156 2.05725 2
    endloop
  endfacet
  facet normal 0 0 1
    outer loop
      vertex -0 -0 4
      vertex -3.34565 3.71572 4
      vertex -4.04508 2.93893 4
    endloop
  endfacet
  facet normal 0 0 -1
    outer loop
      vertex -4.04508 2.93893 0
      vertex -3.34565 3.71572 0
      vertex -0 -0 0
    endloop
  endfacet
  facet normal -0.595691 0.536358 0.59789
    outer loop
      vertex -2.83156 2.05725 2
      vertex -2.34196 2.60101 2
      vertex -4.04508 2.93893 0
    endloop
  endfacet
  facet normal -0.595688 0.536364 0.597888
    outer loop
      vertex -2.34196 2.60101 2
      vertex -3.34565 3.71572 0
      vertex -4.04508 2.93893 0
    endloop
  endfacet
  facet normal -0.471161 0.648488 -0.597888
    outer loop
      vertex -3.34565 3.71572 4
      vertex -2.5 4.33013 4
      vertex -2.34196 2.60101 2
    endloop
  endfacet
  facet normal -0.471153 0.648492 -0.597891
    outer loop
      vertex -2.5 4.33013 4
      vertex -1.75 3.03109 2
      vertex -2.34196 2.60101 2
    endloop
  endfacet
  facet normal 0 0 1
    outer loop
      vertex -0 -0 4
      vertex -2.5 4.33013 4
      vertex -3.34565 3.71572 4
    endloop
  endfacet
  facet normal 0 0 -1
    outer loop
      vertex -3.34565 3.71572 0
      vertex -2.5 4.33013 0
      vertex -0 -0 0
    endloop
  endfacet
  facet normal -0.471154 0.648494 0.597888
    outer loop
      vertex -2.34196 2.60101 2
      vertex -1.75 3.03109 2
      vertex -3.34565 3.71572 0
    endloop
  endfacet
  facet normal -0.47116 0.648487 0.59789
    outer loop
      vertex -1.75 3.03109 2
      vertex -2.5 4.33013 0
      vertex -3.34565 3.71572 0
    endloop
  endfacet
  facet normal -0.326026 0.73228 -0.59789
    outer loop
      vertex -2.5 4.33013 4
      vertex -1.54508 4.75528 4
      vertex -1.75 3.03109 2
    endloop
  endfacet
  facet normal -0.326033 0.732279 -0.597888
    outer loop
      vertex -1.54508 4.75528 4
      vertex -1.08156 3.3287 2
      vertex -1.75 3.03109 2
    endloop
  endfacet
  facet normal 0 0 1
    outer loop
      vertex -0 -0 4
      vertex -1.54508 4.75528 4
      vertex -2.5 4.33013 4
    endloop
  endfacet
  facet normal 0 0 -1
    outer loop
      vertex -2.5 4.33013 0
      vertex -1.54508 4.75528 0
      vertex -0 -0 0
    endloop
  endfacet
  facet normal -0.326032 0.732277 0.597891
    outer loop
      vertex -1.75 3.03109 2
      vertex -1.08156 3.3287 2
      vertex -2.5 4.33013 0
    endloop
  endfacet
  facet normal -0.326027 0.732281 0.597889
    outer loop
      vertex -1.08156 3.3287 2
      vertex -1.54508 4.75528 0
      vertex -2.5 4.33013 0
    endloop
  endfacet
  facet normal -0.166661 0.784062 -0.597889
    outer loop
      vertex -1.54508 4.75528 4
      vertex -0.522642 4.97261 4
      vertex -1.08156 3.3287 2
    endloop
  endfacet
  facet normal -0.166659 0.784062 -0.597889
    outer loop
      vertex -0.522642 4.97261 4
      vertex -0.36585 3.48083 2
      vertex -1.08156 3.3287 2
    endloop
  endfacet
  facet normal 0 0 1
    outer loop
      vertex -0 -0 4
      vertex -0.522642 4.97261 4
      vertex -1.54508 4.75528 4
    endloop
  endfacet
  facet normal 0 0 -1
    outer loop
      vertex -1.54508 4.75528 0
      vertex -0.522642 4.97261 0
      vertex -0 -0 0
    endloop
  endfacet
  facet normal -0.166659 0.784062 0.597889
    outer loop
      vertex -1.08156 3.3287 2
      vertex -0.36585 3.48083 2
      vertex -1.54508 4.75528 0
    endloop
  endfacet
  facet normal -0.166661 0.784062 0.597889
    outer loop
      vertex -0.36585 3.48083 2
      vertex -0.522642 4.97261 0
      vertex -1.54508 4.75528 0
    endloop
  endfacet
  facet normal 0 0.801579 -0.597889
    outer loop
      vertex -0.522642 4.97261 4
      vertex 0.522642 4.97261 4
      vertex -0.36585 3.48083 2
    endloop
  endfacet
  facet normal 0 0.801579 -0.597889
    outer loop
      vertex 0.522642 4.97261 4
      vertex 0.36585 3.48083 2
      vertex -0.36585 3.48083 2
    endloop
  endfacet
  facet normal 0 -0 1
    outer loop
      vertex -0 -0 4
      vertex 0.522642 4.97261 4
      vertex -0.522642 4.97261 4
    endloop
  endfacet
  facet normal 0 0 -1
    outer loop
      vertex -0.522642 4.97261 0
      vertex 0.522642 4.97261 0
      vertex -0 -0 0
    endloop
  endfacet
  facet normal -0 0.801579 0.597889
    outer loop
      vertex -0.36585 3.48083 2
      vertex 0.36585 3.48083 2
      vertex -0.522642 4.97261 0
    endloop
  endfacet
  facet normal 0 0.801579 0.597889
    outer loop
      vertex 0.36585 3.48083 2
      vertex 0.522642 4.97261 0
      vertex -0.522642 4.97261 0
    endloop
  endfacet
  facet normal 0.166661 0.784062 -0.597889
    outer loop
      vertex 0.522642 4.97261 4
      vertex 1.54508 4.75528 4
      vertex 0.36585 3.48083 2
    endloop
  endfacet
  facet normal 0.166659 0.784062 -0.597889
    outer loop
      vertex 1.54508 4.75528 4
      vertex 1.08156 3.3287 2
      vertex 0.36585 3.48083 2
    endloop
  endfacet
  facet normal 0 0 1
    outer loop
      vertex -0 -0 4
      vertex 1.54508 4.75528 4
      vertex 0.522642 4.97261 4
    endloop
  endfacet
  facet normal 0 -0 -1
    outer loop
      vertex 0.522642 4.97261 0
      vertex 1.54508 4.75528 0
      vertex -0 -0 0
    endloop
  endfacet
  facet normal 0.166659 0.784062 0.597889
    outer loop
      vertex 0.36585 3.48083 2
      vertex 1.08156 3.3287 2
      vertex 0.522642 4.97261 0
    endloop
  endfacet
  facet normal 0.166661 0.784062 0.597889
    outer loop
      vertex 1.08156 3.3287 2
      vertex 1.54508 4.75528 0
      vertex 0.522642 4.97261 0
    endloop
  endfacet
  facet normal 0.326027 0.732281 -0.597889
    outer loop
      vertex 1.54508 4.75528 4
      vertex 2.5 4.33013 4
      vertex 1.08156 3.3287 2
    endloop
  endfacet
  facet normal 0.326032 0.732277 -0.597891
    outer loop
      vertex 2.5 4.33013 4
      vertex 1.75 3.03109 2
      vertex 1.08156 3.3287 2
    endloop
  endfacet
  facet normal 0 0 1
    outer loop
      vertex -0 -0 4
      vertex 2.5 4.33013 4
      vertex 1.54508 4.75528 4
    endloop
  endfacet
  facet normal 0 -0 -1
    outer loop
      vertex 1.54508 4.75528 0
      vertex 2.5 4.33013 0
      vertex -0 -0 0
    endloop
  endfacet
  facet normal 0.326033 0.732279 0.597888
    outer loop
      vertex 1.08156 3.3287 2
      vertex 1.75 3.03109 2
      vertex 1.54508 4.75528 0
    endloop
  endfacet
  facet normal 0.326026 0.73228 0.59789
    outer loop
      vertex 1.75 3.03109 2
      vertex 2.5 4.33013 0
      vertex 1.54508 4.75528 0
    endloop
  endfacet
  facet normal 0.47116 0.648487 -0.59789
    outer loop
      vertex 2.5 4.33013 4
      vertex 3.34565 3.71572 4
      vertex 1.75 3.03109 2
    endloop
  endfacet
  facet normal 0.471154 0.648494 -0.597888
    outer loop
      vertex 3.34565 3.71572 4
      vertex 2.34196 2.60101 2
      vertex 1.75 3.03109 2
    endloop
  endfacet
  facet normal 0 0 1
    outer loop
      vertex -0 -0 4
      vertex 3.34565 3.71572 4
      vertex 2.5 4.33013 4
    endloop
  endfacet
  facet normal 0 -0 -1
    outer loop
      vertex 2.5 4.33013 0
      vertex 3.34565 3.71572 0
      vertex -0 -0 0
    endloop
  endfacet
  facet normal 0.471153 0.648492 0.597891
    outer loop
      vertex 1.75 3.03109 2
      vertex 2.34196 2.60101 2
      vertex 2.5 4.33013 0
    endloop
  endfacet
  facet normal 0.471161 0.648488 0.597888
    outer loop
      vertex 2.34196 2.60101 2
      vertex 3.34565 3.71572 0
      vertex 2.5 4.33013 0
    endloop
  endfacet
  facet normal 0.595688 0.536364 -0.597888
    outer loop
      vertex 3.34565 3.71572 4
      vertex 4.04508 2.93893 4
      vertex 2.34196 2.60101 2
    endloop
  endfacet
  facet normal 0.595691 0.536358 -0.59789
    outer loop
      vertex 4.04508 2.93893 4
      vertex 2.83156 2.05725 2
      vertex 2.34196 2.60101 2
    endloop
  endfacet
  facet normal 0 0 1
    outer loop
      vertex -0 -0 4
      vertex 4.04508 2.93893 4
      vertex 3.34565 3.71572 4
    endloop
  endfacet
  facet normal 0 -0 -1
    outer loop
      vertex 3.34565 3.71572 0
      vertex 4.04508 2.93893 0
      vertex -0 -0 0
    endloop
  endfacet
  facet normal 0.595692 0.536359 0.597888
    outer loop
      vertex 2.34196 2.60101 2
      vertex 2.83156 2.05725 2
      vertex 3.34565 3.71572 0
    endloop
  endfacet
  facet normal 0.595687 0.536363 0.597889
    outer loop
      vertex 2.83156 2.05725 2
      vertex 4.04508 2.93893 0
      vertex 3.34565 3.71572 0
    endloop
  endfacet
  facet normal 0.694186 0.400791 -0.597889
    outer loop
      vertex 4.04508 2.93893 4
      vertex 4.56773 2.03368 4
      vertex 2.83156 2.05725 2
    endloop
  endfacet
  facet normal 0.694187 0.400789 -0.59789
    outer loop
      vertex 4.56773 2.03368 4
      vertex 3.19741 1.42358 2
      vertex 2.83156 2.05725 2
    endloop
  endfacet
  facet normal 0 0 1
    outer loop
      vertex -0 -0 4
      vertex 4.56773 2.03368 4
      vertex 4.04508 2.93893 4
    endloop
  endfacet
  facet normal 0 -0 -1
    outer loop
      vertex 4.04508 2.93893 0
      vertex 4.56773 2.03368 0
      vertex -0 -0 0
    endloop
  endfacet
  facet normal 0.694187 0.40079 0.597889
    outer loop
      vertex 2.83156 2.05725 2
      vertex 3.19741 1.42358 2
      vertex 4.04508 2.93893 0
    endloop
  endfacet
  facet normal 0.694186 0.400791 0.59789
    outer loop
      vertex 3.19741 1.42358 2
      vertex 4.56773 2.03368 0
      vertex 4.04508 2.93893 0
    endloop
  endfacet
  facet normal 0.762346 0.247702 -0.59789
    outer loop
      vertex 4.56773 2.03368 4
      vertex 4.89074 1.03956 4
      vertex 3.19741 1.42358 2
    endloop
  endfacet
  facet normal 0.762346 0.247703 -0.59789
    outer loop
      vertex 4.89074 1.03956 4
      vertex 3.42352 0.727691 2
      vertex 3.19741 1.42358 2
    endloop
  endfacet
  facet normal 0 0 1
    outer loop
      vertex -0 -0 4
      vertex 4.89074 1.03956 4
      vertex 4.56773 2.03368 4
    endloop
  endfacet
  facet normal 0 -0 -1
    outer loop
      vertex 4.56773 2.03368 0
      vertex 4.89074 1.03956 0
      vertex -0 -0 0
    endloop
  endfacet
  facet normal 0.762345 0.247703 0.59789
    outer loop
      vertex 3.19741 1.42358 2
      vertex 3.42352 0.727691 2
      vertex 4.56773 2.03368 0
    endloop
  endfacet
  facet normal 0.762346 0.247702 0.59789
    outer loop
      vertex 3.42352 0.727691 2
      vertex 4.89074 1.03956 0
      vertex 4.56773 2.03368 0
    endloop
  endfacet
  facet normal 0.797187 0.0837861 -0.59789
    outer loop
      vertex 4.89074 1.03956 4
      vertex 5 0 4
      vertex 3.42352 0.727691 2
    endloop
  endfacet
  facet normal 0.797187 0.083784 -0.59789
    outer loop
      vertex 5 0 4
      vertex 3.5 0 2
      vertex 3.42352 0.727691 2
    endloop
  endfacet
  facet normal 0 0 1
    outer loop
      vertex -0 -0 4
      vertex 5 0 4
      vertex 4.89074 1.03956 4
    endloop
  endfacet
  facet normal 0 -0 -1
    outer loop
      vertex 4.89074 1.03956 0
      vertex 5 0 0
      vertex -0 -0 0
    endloop
  endfacet
  facet normal 0.797188 0.0837841 0.59789
    outer loop
      vertex 3.42352 0.727691 2
      vertex 3.5 0 2
      vertex 4.89074 1.03956 0
    endloop
  endfacet
  facet normal 0.797187 0.0837861 0.59789
    outer loop
      vertex 3.5 0 2
      vertex 5 0 0
      vertex 4.89074 1.03956 0
    endloop
  endfacet
  facet normal 0.797187 -0.0837861 -0.59789
    outer loop
      vertex 5 0 4
      vertex 4.89074 -1.03956 4
      vertex 3.5 0 2
    endloop
  endfacet
  facet normal 0.797188 -0.0837841 -0.59789
    outer loop
      vertex 4.89074 -1.03956 4
      vertex 3.42352 -0.727691 2
      vertex 3.5 0 2
    endloop
  endfacet
  facet normal -0 0 1
    outer loop
      vertex -0 -0 4
      vertex 4.89074 -1.03956 4
      vertex 5 0 4
    endloop
  endfacet
  facet normal 0 0 -1
    outer loop
      vertex 5 0 0
      vertex 4.89074 -1.03956 0
      vertex -0 -0 0
    endloop
  endfacet
  facet normal 0.797187 -0.083784 0.59789
    outer loop
      vertex 3.5 0 2
      vertex 3.42352 -0.727691 2
      vertex 5 0 0
    endloop
  endfacet
  facet normal 0.797187 -0.0837861 0.59789
    outer loop
      vertex 3.42352 -0.727691 2
      vertex 4.89074 -1.03956 0
      vertex 5 0 0
    endloop
  endfacet
  facet normal 0.762346 -0.247702 -0.59789
    outer loop
      vertex 4.89074 -1.03956 4
      vertex 4.56773 -2.03368 4
      vertex 3.42352 -0.727691 2
    endloop
  endfacet
  facet normal 0.762345 -0.247703 -0.59789
    outer loop
      vertex 4.56773 -2.03368 4
      vertex 3.19741 -1.42358 2
      vertex 3.42352 -0.727691 2
    endloop
  endfacet
  facet normal 0 0 1
    outer loop
      vertex -0 -0 4
      vertex 4.56773 -2.03368 4
      vertex 4.89074 -1.03956 4
    endloop
  endfacet
  facet normal -0 0 -1
    outer loop
      vertex 4.89074 -1.03956 0
      vertex 4.56773 -2.03368 0
      vertex -0 -0 0
    endloop
  endfacet
  facet normal 0.762346 -0.247703 0.59789
    outer loop
      vertex 3.42352 -0.727691 2
      vertex 3.19741 -1.42358 2
      vertex 4.89074 -1.03956 0
    endloop
  endfacet
  facet normal 0.762346 -0.247702 0.59789
    outer loop
      vertex 3.19741 -1.42358 2
      vertex 4.56773 -2.03368 0
      vertex 4.89074 -1.03956 0
    endloop
  endfacet
  facet normal 0.694186 -0.400791 -0.59789
    outer loop
      vertex 4.56773 -2.03368 4
      vertex 4.04508 -2.93893 4
      vertex 3.19741 -1.42358 2
    endloop
  endfacet
  facet normal 0.694187 -0.40079 -0.597889
    outer loop
      vertex 4.04508 -2.93893 4
      vertex 2.83156 -2.05725 2
      vertex 3.19741 -1.42358 2
    endloop
  endfacet
  facet normal 0 0 1
    outer loop
      vertex -0 -0 4
      vertex 4.04508 -2.93893 4
      vertex 4.56773 -2.03368 4
    endloop
  endfacet
  facet normal -0 0 -1
    outer loop
      vertex 4.56773 -2.03368 0
      vertex 4.04508 -2.93893 0
      vertex -0 -0 0
    endloop
  endfacet
  facet normal 0.694187 -0.400789 0.59789
    outer loop
      vertex 3.19741 -1.42358 2
      vertex 2.83156 -2.05725 2
      vertex 4.56773 -2.03368 0
    endloop
  endfacet
  facet normal 0.694186 -0.400791 0.597889
    outer loop
      vertex 2.83156 -2.05725 2
      vertex 4.04508 -2.93893 0
      vertex 4.56773 -2.03368 0
    endloop
  endfacet
  facet normal 0.595687 -0.536363 -0.597889
    outer loop
      vertex 4.04508 -2.93893 4
      vertex 3.34565 -3.71572 4
      vertex 2.83156 -2.05725 2
    endloop
  endfacet
  facet normal 0.595692 -0.536359 -0.597888
    outer loop
      vertex 3.34565 -3.71572 4
      vertex 2.34196 -2.60101 2
      vertex 2.83156 -2.05725 2
    endloop
  endfacet
  facet normal 0 0 1
    outer loop
      vertex -0 -0 4
      vertex 3.34565 -3.71572 4
      vertex 4.04508 -2.93893 4
    endloop
  endfacet
  facet normal -0 0 -1
    outer loop
      vertex 4.04508 -2.93893 0
      vertex 3.34565 -3.71572 0
      vertex -0 -0 0
    endloop
  endfacet
  facet normal 0.595691 -0.536358 0.59789
    outer loop
      vertex 2.83156 -2.05725 2
      vertex 2.34196 -2.60101 2
      vertex 4.04508 -2.93893 0
    endloop
  endfacet
  facet normal 0.595688 -0.536364 0.597888
    outer loop
      vertex 2.34196 -2.60101 2
      vertex 3.34565 -3.71572 0
      vertex 4.04508 -2.93893 0
    endloop
  endfacet
  facet normal 0.471161 -0.648488 -0.597888
    outer loop
      vertex 3.34565 -3.71572 4
      vertex 2.5 -4.33013 4
      vertex 2.34196 -2.60101 2
    endloop
  endfacet
  facet normal 0.471153 -0.648492 -0.597891
    outer loop
      vertex 2.5 -4.33013 4
      vertex 1.75 -3.03109 2
      vertex 2.34196 -2.60101 2
    endloop
  endfacet
  facet normal 0 0 1
    outer loop
      vertex -0 -0 4
      vertex 2.5 -4.33013 4
      vertex 3.34565 -3.71572 4
    endloop
  endfacet
  facet normal -0 0 -1
    outer loop
      vertex 3.34565 -3.71572 0
      vertex 2.5 -4.33013 0
      vertex -0 -0 0
    endloop
  endfacet
  facet normal 0.471154 -0.648494 0.597888
    outer loop
      vertex 2.34196 -2.60101 2
      vertex 1.75 -3.03109 2
      vertex 3.34565 -3.71572 0
    endloop
  endfacet
  facet normal 0.47116 -0.648487 0.59789
    outer loop
      vertex 1.75 -3.03109 2
      vertex 2.5 -4.33013 0
      vertex 3.34565 -3.71572 0
    endloop
  endfacet
  facet normal 0.326026 -0.73228 -0.59789
    outer loop
      vertex 2.5 -4.33013 4
      vertex 1.54508 -4.75528 4
      vertex 1.75 -3.03109 2
    endloop
  endfacet
  facet normal 0.326033 -0.732279 -0.597888
    outer loop
      vertex 1.54508 -4.75528 4
      vertex 1.08156 -3.3287 2
      vertex 1.75 -3.03109 2
    endloop
  endfacet
  facet normal 0 0 1
    outer loop
      vertex -0 -0 4
      vertex 1.54508 -4.75528 4
      vertex 2.5 -4.33013 4
    endloop
  endfacet
  facet normal -0 0 -1
    outer loop
      vertex 2.5 -4.33013 0
      vertex 1.54508 -4.75528 0
      vertex -0 -0 0
    endloop
  endfacet
  facet normal 0.326032 -0.732277 0.597891
    outer loop
      vertex 1.75 -3.03109 2
      vertex 1.08156 -3.3287 2
      vertex 2.5 -4.33013 0
    endloop
  endfacet
  facet normal 0.326027 -0.732281 0.597889
    outer loop
      vertex 1.08156 -3.3287 2
      vertex 1.54508 -4.75528 0
      vertex 2.5 -4.33013 0
    endloop
  endfacet
  facet normal 0.166661 -0.784062 -0.597889
    outer loop
      vertex 1.54508 -4.75528 4
      vertex 0.522642 -4.97261 4
      vertex 1.08156 -3.3287 2
    endloop
  endfacet
  facet normal 0.166659 -0.784062 -0.597889
    outer loop
      vertex 0.522642 -4.97261 4
      vertex 0.36585 -3.48083 2
      vertex 1.08156 -3.3287 2
    endloop
  endfacet
  facet normal 0 0 1
    outer loop
      vertex -0 -0 4
      vertex 0.522642 -4.97261 4
      vertex 1.54508 -4.75528 4
    endloop
  endfacet
  facet normal -0 0 -1
    outer loop
      vertex 1.54508 -4.75528 0
      vertex 0.522642 -4.97261 0
      vertex -0 -0 0
    endloop
  endfacet
  facet normal 0.166659 -0.784062 0.597889
    outer loop
      vertex 1.08156 -3.3287 2
      vertex 0.36585 -3.48083 2
      vertex 1.54508 -4.75528 0
    endloop
  endfacet
  facet normal 0.166661 -0.784062 0.597889
    outer loop
      vertex 0.36585 -3.48083 2
      vertex 0.522642 -4.97261 0
      vertex 1.54508 -4.75528 0
    endloop
  endfacet
  facet normal -0 -0.801579 -0.597889
    outer loop
      vertex 0.522642 -4.97261 4
      vertex -0.522642 -4.97261 4
      vertex 0.36585 -3.48083 2
    endloop
  endfacet
  facet normal 0 -0.801579 -0.597889
    outer loop
      vertex -0.522642 -4.97261 4
      vertex -0.36585 -3.48083 2
      vertex 0.36585 -3.48083 2
    endloop
  endfacet
  facet normal 0 0 1
    outer loop
      vertex -0 -0 4
      vertex -0.522642 -4.97261 4
      vertex 0.522642 -4.97261 4
    endloop
  endfacet
  facet normal 0 0 -1
    outer loop
      vertex 0.522642 -4.97261 0
      vertex -0.522642 -4.97261 0
      vertex -0 -0 0
    endloop
  endfacet
  facet normal 0 -0.801579 0.597889
    outer loop
      vertex 0.36585 -3.48083 2
      vertex -0.36585 -3.48083 2
      vertex 0.522642 -4.97261 0
    endloop
  endfacet
  facet normal 0 -0.801579 0.597889
    outer loop
      vertex -0.36585 -3.48083 2
      vertex -0.522642 -4.97261 0
      vertex 0.522642 -4.97261 0
    endloop
  endfacet
  facet normal -0.166661 -0.784062 -0.597889
    outer loop
      vertex -0.522642 -4.97261 4
      vertex -1.54508 -4.75528 4
      vertex -0.36585 -3.48083 2
    endloop
  endfacet
  facet normal -0.166659 -0.784062 -0.597889
    outer loop
      vertex -1.54508 -4.75528 4
      vertex -1.08156 -3.3287 2
      vertex -0.36585 -3.48083 2
    endloop
  endfacet
  facet normal 0 0 1
    outer loop
      vertex -0 -0 4
      vertex -1.54508 -4.75528 4
      vertex -0.522642 -4.97261 4
    endloop
  endfacet
  facet normal 0 0 -1
    outer loop
      vertex -0.522642 -4.97261 0
      vertex -1.54508 -4.75528 0
      vertex -0 -0 0
    endloop
  endfacet
  facet normal -0.166659 -0.784062 0.597889
    outer loop
      vertex -0.36585 -3.48083 2
      vertex -1.08156 -3.3287 2
      vertex -0.522642 -4.97261 0
    endloop
  endfacet
  facet normal -0.166661 -0.784062 0.597889
    outer loop
      vertex -1.08156 -3.3287 2
      vertex -1.54508 -4.75528 0
      vertex -0.522642 -4.97261 0
    endloop
  endfacet
  facet normal -0.326027 -0.732281 -0.597889
    outer loop
      vertex -1.54508 -4.75528 4
      vertex -2.5 -4.33013 4
      vertex -1.08156 -3.3287 2
    endloop
  endfacet
  facet normal -0.326032 -0.732277 -0.597891
    outer loop
      vertex -2.5 -4.33013 4
      vertex -1.75 -3.03109 2
      vertex -1.08156 -3.3287 2
    endloop
  endfacet
  facet normal 0 0 1
    outer loop
      vertex -0 -0 4
      vertex -2.5 -4.33013 4
      vertex -1.54508 -4.75528 4
    endloop
  endfacet
  facet normal 0 0 -1
    outer loop
      vertex -1.54508 -4.75528 0
      vertex -2.5 -4.33013 0
      vertex -0 -0 0
    endloop
  endfacet
  facet normal -0.326033 -0.732279 0.597888
    outer loop
      vertex -1.08156 -3.3287 2
      vertex -1.75 -3.03109 2
      vertex -1.54508 -4.75528 0
    endloop
  endfacet
  facet normal -0.326026 -0.73228 0.59789
    outer loop
      vertex -1.75 -3.03109 2
      vertex -2.5 -4.33013 0
      vertex -1.54508 -4.75528 0
    endloop
  endfacet
  facet normal -0.47116 -0.648487 -0.59789
    outer loop
      vertex -2.5 -4.33013 4
      vertex -3.34565 -3.71572 4
      vertex -1.75 -3.03109 2
    endloop
  endfacet
  facet normal -0.471154 -0.648494 -0.597888
    outer loop
      vertex -3.34565 -3.71572 4
      vertex -2.34196 -2.60101 2
      vertex -1.75 -3.03109 2
    endloop
  endfacet
  facet normal 0 0 1
    outer loop
      vertex -0 -0 4
      vertex -3.34565 -3.71572 4
      vertex -2.5 -4.33013 4
    endloop
  endfacet
  facet normal 0 0 -1
    outer loop
      vertex -2.5 -4.33013 0
      vertex -3.34565 -3.71572 0
      vertex -0 -0 0
    endloop
  endfacet
  facet normal -0.471153 -0.648492 0.597891
    outer loop
      vertex -1.75 -3.03109 2
      vertex -2.34196 -2.60101 2
      vertex -2.5 -4.33013 0
    endloop
  endfacet
  facet normal -0.471161 -0.648488 0.597888
    outer loop
      vertex -2.34196 -2.60101 2
      vertex -3.34565 -3.71572 0
      vertex -2.5 -4.33013 0
    endloop
  endfacet
  facet normal -0.595688 -0.536364 -0.597888
    outer loop
      vertex -3.34565 -3.71572 4
      vertex -4.04508 -2.93893 4
      vertex -2.34196 -2.60101 2
    endloop
  endfacet
  facet normal -0.595691 -0.536358 -0.59789
    outer loop
      vertex -4.04508 -2.93893 4
      vertex -2.83156 -2.05725 2
      vertex -2.34196 -2.60101 2
    endloop
  endfacet
  facet normal 0 0 1
    outer loop
      vertex -0 -0 4
      vertex -4.04508 -2.93893 4
      vertex -3.34565 -3.71572 4
    endloop
  endfacet
  facet normal 0 0 -1
    outer loop
      vertex -3.34565 -3.71572 0
      vertex -4.04508 -2.93893 0
      vertex -0 -0 0
    endloop
  endfacet
  facet normal -0.595692 -0.536359 0.597888
    outer loop
      vertex -2.34196 -2.60101 2
      vertex -2.83156 -2.05725 2
      vertex -3.34565 -3.71572 0
    endloop
  endfacet
  facet normal -0.595687 -0.536363 0.597889
    outer loop
      vertex -2.83156 -2.05725 2
      vertex -4.04508 -2.93893 0
      vertex -3.34565 -3.71572 0
    endloop
  endfacet
  facet normal -0.694186 -0.400791 -0.597889
    outer loop
      vertex -4.04508 -2.93893 4
      vertex -4.56773 -2.03368 4
      vertex -2.83156 -2.05725 2
    endloop
  endfacet
  facet normal -0.694187 -0.400789 -0.59789
    outer loop
      vertex -4.56773 -2.03368 4
      vertex -3.19741 -1.42358 2
      vertex -2.83156 -2.05725 2
    endloop
  endfacet
  facet normal 0 0 1
    outer loop
      vertex -0 -0 4
      vertex -4.56773 -2.03368 4
      vertex -4.04508 -2.93893 4
    endloop
  endfacet
  facet normal 0 0 -1
    outer loop
      vertex -4.04508 -2.93893 0
      vertex -4.56773 -2.03368 0
      vertex -0 -0 0
    endloop
  endfacet
  facet normal -0.694187 -0.40079 0.597889
    outer loop
      vertex -2.83156 -2.05725 2
      vertex -3.19741 -1.42358 2
      vertex -4.04508 -2.93893 0
    endloop
  endfacet
  facet normal -0.694186 -0.400791 0.59789
    outer loop
      vertex -3.19741 -1.42358 2
      vertex -4.56773 -2.03368 0
      vertex -4.04508 -2.93893 0
    endloop
  endfacet
  facet normal -0.762346 -0.247702 -0.59789
    outer loop
      vertex -4.56773 -2.03368 4
      vertex -4.89074 -1.03956 4
      vertex -3.19741 -1.42358 2
    endloop
  endfacet
  facet normal -0.762346 -0.247703 -0.59789
    outer loop
      vertex -4.89074 -1.03956 4
      vertex -3.42352 -0.727691 2
      vertex -3.19741 -1.42358 2
    endloop
  endfacet
  facet normal 0 0 1
    outer loop
      vertex -0 -0 4
      vertex -4.89074 -1.03956 4
      vertex -4.56773 -2.03368 4
    endloop
  endfacet
  facet normal 0 0 -1
    outer loop
      vertex -4.56773 -2.03368 0
      vertex -4.89074 -1.03956 0
      vertex -0 -0 0
    endloop
  endfacet
  facet normal -0.762345 -0.247703 0.59789
    outer loop
      vertex -3.19741 -1.42358 2
      vertex -3.42352 -0.727691 2
      vertex -4.56773 -2.03368 0
    endloop
  endfacet
  facet normal -0.762346 -0.247702 0.59789
    outer loop
      vertex -3.42352 -0.727691 2
      vertex -4.89074 -1.03956 0
      vertex -4.56773 -2.03368 0
    endloop
  endfacet
  facet normal -0.797187 -0.0837861 -0.59789
    outer loop
      vertex -4.89074 -1.03956 4
      vertex -5 -0 4
      vertex -3.42352 -0.727691 2
    endloop
  endfacet
  facet normal -0.797187 -0.083784 -0.59789
    outer loop
      vertex -5 -0 4
      vertex -3.5 -0 2
      vertex -3.42352 -0.727691 2
    endloop
  endfacet
  facet normal 0 0 1
    outer loop
      vertex -0 -0 4
      vertex -5 -0 4
      vertex -4.89074 -1.03956 4
    endloop
  endfacet
  facet normal 0 0 -1
    outer loop
      vertex -4.89074 -1.03956 0
      vertex -5 -0 0
      vertex -0 -0 0
    endloop
  endfacet
  facet normal -0.797188 -0.0837841 0.59789
    outer loop
      vertex -3.42352 -0.727691 2
      vertex -3.5 -0 2
      vertex -4.89074 -1.03956 0
    endloop
  endfacet
  facet normal -0.797187 -0.0837861 0.59789
    outer loop
      vertex -3.5 -0 2
      vertex -5 -0 0
      vertex -4.89074 -1.03956 0
    endloop
  endfacet
endsolid OpenSCAD_Model
