solid OpenSCAD_Model
  facet normal 0.97662 -0 0.214972
    outer loop
      vertex 3.05276 3 11.0269
      vertex 3.47112 68 9.12629
      vertex 3.05276 68 11.0269
    endloop
  endfacet
  facet normal 0.97662 0 0.214972
    outer loop
      vertex 3.47112 68 9.12629
      vertex 3.05276 3 11.0269
      vertex 3.47112 3 9.12629
    endloop
  endfacet
  facet normal -0.994139 0 0.108113
    outer loop
      vertex 20.7896 3 10.0653
      vertex 21 68 12
      vertex 20.7896 68 10.0653
    endloop
  endfacet
  facet normal -0.994139 0 0.108113
    outer loop
      vertex 21 68 12
      vertex 20.7896 3 10.0653
      vertex 21 3 12
    endloop
  endfacet
  facet normal -0.947656 0 0.319294
    outer loop
      vertex 20.1682 3 8.221
      vertex 20.7896 68 10.0653
      vertex 20.1682 68 8.221
    endloop
  endfacet
  facet normal -0.947656 0 0.319294
    outer loop
      vertex 20.7896 68 10.0653
      vertex 20.1682 3 8.221
      vertex 20.7896 3 10.0653
    endloop
  endfacet
  facet normal -0.726011 0 0.687683
    outer loop
      vertex 17.8265 3 5.14054
      vertex 19.1648 68 6.55343
      vertex 17.8265 68 5.14054
    endloop
  endfacet
  facet normal -0.726011 0 0.687683
    outer loop
      vertex 19.1648 68 6.55343
      vertex 17.8265 3 5.14054
      vertex 19.1648 3 6.55343
    endloop
  endfacet
  facet normal 0.796094 -0 0.605173
    outer loop
      vertex 4.28829 3 7.36001
      vertex 5.46604 68 5.8107
      vertex 4.28829 68 7.36001
    endloop
  endfacet
  facet normal 0.796094 0 0.605173
    outer loop
      vertex 5.46604 68 5.8107
      vertex 4.28829 3 7.36001
      vertex 5.46604 3 5.8107
    endloop
  endfacet
  facet normal -0.370141 0 0.928976
    outer loop
      vertex 14.4078 68 3.32805
      vertex 16.2157 3 4.04839
      vertex 16.2157 68 4.04839
    endloop
  endfacet
  facet normal -0.370141 0 0.928976
    outer loop
      vertex 16.2157 3 4.04839
      vertex 14.4078 68 3.32805
      vertex 14.4078 3 3.32805
    endloop
  endfacet
  facet normal -0.561187 0 0.827689
    outer loop
      vertex 16.2157 68 4.04839
      vertex 17.8265 3 5.14054
      vertex 17.8265 68 5.14054
    endloop
  endfacet
  facet normal -0.561187 0 0.827689
    outer loop
      vertex 17.8265 3 5.14054
      vertex 16.2157 68 4.04839
      vertex 16.2157 3 4.04839
    endloop
  endfacet
  facet normal 0.468409 0 0.883512
    outer loop
      vertex 6.94932 68 4.5508
      vertex 8.66876 3 3.63921
      vertex 8.66876 68 3.63921
    endloop
  endfacet
  facet normal 0.468409 0 0.883512
    outer loop
      vertex 8.66876 3 3.63921
      vertex 6.94932 68 4.5508
      vertex 6.94932 3 4.5508
    endloop
  endfacet
  facet normal 0.267525 0 0.963551
    outer loop
      vertex 8.66876 68 3.63921
      vertex 10.544 3 3.11856
      vertex 10.544 68 3.11856
    endloop
  endfacet
  facet normal 0.267525 0 0.963551
    outer loop
      vertex 10.544 3 3.11856
      vertex 8.66876 68 3.63921
      vertex 8.66876 3 3.63921
    endloop
  endfacet
  facet normal 1 -0 0
    outer loop
      vertex 3.05276 3 12
      vertex 3.05276 68 11.0269
      vertex 3.05276 68 12
    endloop
  endfacet
  facet normal 1 0 0
    outer loop
      vertex 3.05276 68 11.0269
      vertex 3.05276 3 12
      vertex 3.05276 3 11.0269
    endloop
  endfacet
  facet normal -0.856844 0 0.515575
    outer loop
      vertex 19.1648 3 6.55343
      vertex 20.1682 68 8.221
      vertex 19.1648 68 6.55343
    endloop
  endfacet
  facet normal -0.856844 0 0.515575
    outer loop
      vertex 20.1682 68 8.221
      vertex 19.1648 3 6.55343
      vertex 20.1682 3 8.221
    endloop
  endfacet
  facet normal 0 1 0
    outer loop
      vertex 14.4078 68 3.32805
      vertex 21 68 3
      vertex 12.4872 68 3.0132
    endloop
  endfacet
  facet normal 0 1 0
    outer loop
      vertex 16.2157 68 4.04839
      vertex 21 68 3
      vertex 14.4078 68 3.32805
    endloop
  endfacet
  facet normal 0 1 0
    outer loop
      vertex 17.8265 68 5.14054
      vertex 21 68 3
      vertex 16.2157 68 4.04839
    endloop
  endfacet
  facet normal 0 1 0
    outer loop
      vertex 19.1648 68 6.55343
      vertex 21 68 3
      vertex 17.8265 68 5.14054
    endloop
  endfacet
  facet normal 0 1 0
    outer loop
      vertex 20.1682 68 8.221
      vertex 21 68 3
      vertex 19.1648 68 6.55343
    endloop
  endfacet
  facet normal 0 1 0
    outer loop
      vertex 20.7896 68 10.0653
      vertex 21 68 3
      vertex 20.1682 68 8.221
    endloop
  endfacet
  facet normal 0 1 -0
    outer loop
      vertex 21 68 3
      vertex 20.7896 68 10.0653
      vertex 21 68 12
    endloop
  endfacet
  facet normal 0 1 -0
    outer loop
      vertex 3.05276 68 11.0269
      vertex 3 68 12
      vertex 3.05276 68 12
    endloop
  endfacet
  facet normal 0 1 0
    outer loop
      vertex 3.05276 68 11.0269
      vertex 3 68 3
      vertex 3 68 12
    endloop
  endfacet
  facet normal 0 1 0
    outer loop
      vertex 3.47112 68 9.12629
      vertex 3 68 3
      vertex 3.05276 68 11.0269
    endloop
  endfacet
  facet normal 0 1 0
    outer loop
      vertex 4.28829 68 7.36001
      vertex 3 68 3
      vertex 3.47112 68 9.12629
    endloop
  endfacet
  facet normal 0 1 0
    outer loop
      vertex 5.46604 68 5.8107
      vertex 3 68 3
      vertex 4.28829 68 7.36001
    endloop
  endfacet
  facet normal 0 1 0
    outer loop
      vertex 6.94932 68 4.5508
      vertex 3 68 3
      vertex 5.46604 68 5.8107
    endloop
  endfacet
  facet normal 0 1 0
    outer loop
      vertex 8.66876 68 3.63921
      vertex 3 68 3
      vertex 6.94932 68 4.5508
    endloop
  endfacet
  facet normal 0 1 0
    outer loop
      vertex 10.544 68 3.11856
      vertex 3 68 3
      vertex 8.66876 68 3.63921
    endloop
  endfacet
  facet normal 0 1 0
    outer loop
      vertex 12.4872 68 3.0132
      vertex 3 68 3
      vertex 10.544 68 3.11856
    endloop
  endfacet
  facet normal 0 1 0
    outer loop
      vertex 3 68 3
      vertex 12.4872 68 3.0132
      vertex 21 68 3
    endloop
  endfacet
  facet normal 0.647383 0 0.762164
    outer loop
      vertex 5.46604 68 5.8107
      vertex 6.94932 3 4.5508
      vertex 6.94932 68 4.5508
    endloop
  endfacet
  facet normal 0.647383 0 0.762164
    outer loop
      vertex 6.94932 3 4.5508
      vertex 5.46604 68 5.8107
      vertex 5.46604 3 5.8107
    endloop
  endfacet
  facet normal -0.161774 0 0.986828
    outer loop
      vertex 12.4872 68 3.0132
      vertex 14.4078 3 3.32805
      vertex 14.4078 68 3.32805
    endloop
  endfacet
  facet normal -0.161774 0 0.986828
    outer loop
      vertex 14.4078 3 3.32805
      vertex 12.4872 68 3.0132
      vertex 12.4872 3 3.0132
    endloop
  endfacet
  facet normal 0.0541403 0 0.998533
    outer loop
      vertex 10.544 68 3.11856
      vertex 12.4872 3 3.0132
      vertex 12.4872 68 3.0132
    endloop
  endfacet
  facet normal 0.0541403 0 0.998533
    outer loop
      vertex 12.4872 3 3.0132
      vertex 10.544 68 3.11856
      vertex 10.544 3 3.11856
    endloop
  endfacet
  facet normal 0 1 -0
    outer loop
      vertex 20.7896 3 10.0653
      vertex 3.05276 3 12
      vertex 21 3 12
    endloop
  endfacet
  facet normal 0 1 -0
    outer loop
      vertex 20.1682 3 8.221
      vertex 3.05276 3 12
      vertex 20.7896 3 10.0653
    endloop
  endfacet
  facet normal 0 1 0
    outer loop
      vertex 3.05276 3 12
      vertex 3.47112 3 9.12629
      vertex 3.05276 3 11.0269
    endloop
  endfacet
  facet normal 0 1 -0
    outer loop
      vertex 4.28829 3 7.36001
      vertex 3.05276 3 12
      vertex 20.1682 3 8.221
    endloop
  endfacet
  facet normal 0 1 0
    outer loop
      vertex 3.05276 3 12
      vertex 4.28829 3 7.36001
      vertex 3.47112 3 9.12629
    endloop
  endfacet
  facet normal 0 1 -0
    outer loop
      vertex 19.1648 3 6.55343
      vertex 4.28829 3 7.36001
      vertex 20.1682 3 8.221
    endloop
  endfacet
  facet normal 0 1 0
    outer loop
      vertex 19.1648 3 6.55343
      vertex 5.46604 3 5.8107
      vertex 4.28829 3 7.36001
    endloop
  endfacet
  facet normal 0 1 -0
    outer loop
      vertex 17.8265 3 5.14054
      vertex 5.46604 3 5.8107
      vertex 19.1648 3 6.55343
    endloop
  endfacet
  facet normal 0 1 0
    outer loop
      vertex 17.8265 3 5.14054
      vertex 6.94932 3 4.5508
      vertex 5.46604 3 5.8107
    endloop
  endfacet
  facet normal 0 1 -0
    outer loop
      vertex 16.2157 3 4.04839
      vertex 6.94932 3 4.5508
      vertex 17.8265 3 5.14054
    endloop
  endfacet
  facet normal 0 1 0
    outer loop
      vertex 16.2157 3 4.04839
      vertex 8.66876 3 3.63921
      vertex 6.94932 3 4.5508
    endloop
  endfacet
  facet normal 0 1 -0
    outer loop
      vertex 14.4078 3 3.32805
      vertex 8.66876 3 3.63921
      vertex 16.2157 3 4.04839
    endloop
  endfacet
  facet normal 0 1 0
    outer loop
      vertex 14.4078 3 3.32805
      vertex 10.544 3 3.11856
      vertex 8.66876 3 3.63921
    endloop
  endfacet
  facet normal -0 1 0
    outer loop
      vertex 10.544 3 3.11856
      vertex 14.4078 3 3.32805
      vertex 12.4872 3 3.0132
    endloop
  endfacet
  facet normal 0.907575 -0 0.41989
    outer loop
      vertex 3.47112 3 9.12629
      vertex 4.28829 68 7.36001
      vertex 3.47112 68 9.12629
    endloop
  endfacet
  facet normal 0.907575 0 0.41989
    outer loop
      vertex 4.28829 68 7.36001
      vertex 3.47112 3 9.12629
      vertex 4.28829 3 7.36001
    endloop
  endfacet
  facet normal -1 0 0
    outer loop
      vertex 21 68 3
      vertex 21 78 12
      vertex 21 78 3
    endloop
  endfacet
  facet normal -1 -0 0
    outer loop
      vertex 21 78 12
      vertex 21 68 3
      vertex 21 68 12
    endloop
  endfacet
  facet normal 0 0 1
    outer loop
      vertex 3 78 12
      vertex 0 78 12
      vertex 3 68 12
    endloop
  endfacet
  facet normal 0 0 1
    outer loop
      vertex 3.05276 68 12
      vertex 3 68 12
      vertex 3.05276 3 12
    endloop
  endfacet
  facet normal 0 0 1
    outer loop
      vertex 21 68 12
      vertex 24 78 12
      vertex 21 78 12
    endloop
  endfacet
  facet normal 0 0 1
    outer loop
      vertex 24 78 12
      vertex 21 68 12
      vertex 24 0 12
    endloop
  endfacet
  facet normal -0 0 1
    outer loop
      vertex 21 3 12
      vertex 24 0 12
      vertex 21 68 12
    endloop
  endfacet
  facet normal -0 0 1
    outer loop
      vertex 3.05276 3 12
      vertex 24 0 12
      vertex 21 3 12
    endloop
  endfacet
  facet normal 0 0 1
    outer loop
      vertex 0 0 12
      vertex 3 68 12
      vertex 0 78 12
    endloop
  endfacet
  facet normal 0 0 1
    outer loop
      vertex 3.05276 3 12
      vertex 0 0 12
      vertex 24 0 12
    endloop
  endfacet
  facet normal 0 0 1
    outer loop
      vertex 3 68 12
      vertex 0 0 12
      vertex 3.05276 3 12
    endloop
  endfacet
  facet normal -0 0 1
    outer loop
      vertex 3 78 3
      vertex 21 68 3
      vertex 21 78 3
    endloop
  endfacet
  facet normal 0 0 1
    outer loop
      vertex 21 68 3
      vertex 3 78 3
      vertex 3 68 3
    endloop
  endfacet
  facet normal 1 -0 0
    outer loop
      vertex 3 68 12
      vertex 3 78 3
      vertex 3 78 12
    endloop
  endfacet
  facet normal 1 0 0
    outer loop
      vertex 3 78 3
      vertex 3 68 12
      vertex 3 68 3
    endloop
  endfacet
  facet normal 0 1 0
    outer loop
      vertex 24 78 12
      vertex 21 78 3
      vertex 21 78 12
    endloop
  endfacet
  facet normal 0 1 0
    outer loop
      vertex 21 78 3
      vertex 24 78 0
      vertex 3 78 3
    endloop
  endfacet
  facet normal 0 1 -0
    outer loop
      vertex 24 78 0
      vertex 21 78 3
      vertex 24 78 12
    endloop
  endfacet
  facet normal 0 1 -0
    outer loop
      vertex 3 78 3
      vertex 0 78 12
      vertex 3 78 12
    endloop
  endfacet
  facet normal 0 1 0
    outer loop
      vertex 3 78 3
      vertex 0 78 0
      vertex 0 78 12
    endloop
  endfacet
  facet normal 0 1 0
    outer loop
      vertex 0 78 0
      vertex 3 78 3
      vertex 24 78 0
    endloop
  endfacet
  facet normal 1 -0 0
    outer loop
      vertex 24 0 12
      vertex 24 78 0
      vertex 24 78 12
    endloop
  endfacet
  facet normal 1 0 0
    outer loop
      vertex 24 78 0
      vertex 24 0 12
      vertex 24 0 0
    endloop
  endfacet
  facet normal 0 0 -1
    outer loop
      vertex 0 0 0
      vertex 24 78 0
      vertex 24 0 0
    endloop
  endfacet
  facet normal -0 0 -1
    outer loop
      vertex 24 78 0
      vertex 0 0 0
      vertex 0 78 0
    endloop
  endfacet
  facet normal -1 0 0
    outer loop
      vertex 0 0 0
      vertex 0 78 12
      vertex 0 78 0
    endloop
  endfacet
  facet normal -1 -0 0
    outer loop
      vertex 0 78 12
      vertex 0 0 0
      vertex 0 0 12
    endloop
  endfacet
  facet normal 0 -1 0
    outer loop
      vertex 0 0 0
      vertex 24 0 12
      vertex 0 0 12
    endloop
  endfacet
  facet normal 0 -1 -0
    outer loop
      vertex 24 0 12
      vertex 0 0 0
      vertex 24 0 0
    endloop
  endfacet
endsolid OpenSCAD_Model
