solid OpenSCAD_Model
  facet normal -1 0 0
    outer loop
      vertex 27.5 1 1
      vertex 27.5 6 25
      vertex 27.5 6 1
    endloop
  endfacet
  facet normal -1 -0 0
    outer loop
      vertex 27.5 6 25
      vertex 27.5 1 1
      vertex 27.5 1 25
    endloop
  endfacet
  facet normal 0 -1 0
    outer loop
      vertex 1 6 23
      vertex 5 6 25
      vertex 1 6 25
    endloop
  endfacet
  facet normal 0 -1 0
    outer loop
      vertex 1 6 23
      vertex 5 6 6
      vertex 5 6 25
    endloop
  endfacet
  facet normal 0 -1 -0
    outer loop
      vertex 5 6 6
      vertex 1 6 1
      vertex 23.5 6 6
    endloop
  endfacet
  facet normal 0 -1 0
    outer loop
      vertex 1 6 1
      vertex 5 6 6
      vertex 1 6 23
    endloop
  endfacet
  facet normal 0 -1 0
    outer loop
      vertex 23.5 6 6
      vertex 27.5 6 25
      vertex 23.5 6 25
    endloop
  endfacet
  facet normal 0 -1 0
    outer loop
      vertex 23.5 6 6
      vertex 27.5 6 1
      vertex 27.5 6 25
    endloop
  endfacet
  facet normal 0 -1 0
    outer loop
      vertex 27.5 6 1
      vertex 23.5 6 6
      vertex 1 6 1
    endloop
  endfacet
  facet normal 0 1 0
    outer loop
      vertex 27.5 1 25
      vertex 1 1 23
      vertex 1 1 25
    endloop
  endfacet
  facet normal 0 1 -0
    outer loop
      vertex 27.5 1 1
      vertex 1 1 23
      vertex 27.5 1 25
    endloop
  endfacet
  facet normal 0 1 0
    outer loop
      vertex 1 1 23
      vertex 27.5 1 1
      vertex 1 1 1
    endloop
  endfacet
  facet normal 1 -0 0
    outer loop
      vertex 1 1 23
      vertex 1 6 1
      vertex 1 6 23
    endloop
  endfacet
  facet normal 1 0 0
    outer loop
      vertex 1 6 1
      vertex 1 1 23
      vertex 1 1 1
    endloop
  endfacet
  facet normal 1 0 0
    outer loop
      vertex 1 5.48904 30.2091
      vertex 1 6.98083 30.3658
      vertex 1 6.8287 31.0816
    endloop
  endfacet
  facet normal 1 0 0
    outer loop
      vertex 1 5.23205 29
      vertex 1 7 30
      vertex 1 6.98083 30
    endloop
  endfacet
  facet normal 1 0 0
    outer loop
      vertex 1 6.98083 30.3658
      vertex 1 5.48904 30.2091
      vertex 1 6.98083 30
    endloop
  endfacet
  facet normal 1 0 0
    outer loop
      vertex 1 5.40211 30.618
      vertex 1 6.8287 31.0816
      vertex 1 6.53109 31.75
    endloop
  endfacet
  facet normal 1 0 0
    outer loop
      vertex 1 5.23205 31
      vertex 1 6.53109 31.75
      vertex 1 6.10101 32.342
    endloop
  endfacet
  facet normal 1 0 0
    outer loop
      vertex 1 6.98083 30
      vertex 1 5.48904 29.7909
      vertex 1 5.40211 29.382
    endloop
  endfacet
  facet normal 1 0 0
    outer loop
      vertex 1 4.98629 31.3383
      vertex 1 6.10101 32.342
      vertex 1 5.55725 32.8316
    endloop
  endfacet
  facet normal 1 0 0
    outer loop
      vertex 1 6.98083 30
      vertex 1 5.48904 30.2091
      vertex 1 5.48904 29.7909
    endloop
  endfacet
  facet normal 1 0 0
    outer loop
      vertex 1 5.23205 29
      vertex 1 6.98083 30
      vertex 1 5.40211 29.382
    endloop
  endfacet
  facet normal 1 0 0
    outer loop
      vertex 1 7 30
      vertex 1 5.23205 29
      vertex 1 7 25
    endloop
  endfacet
  facet normal 1 -0 0
    outer loop
      vertex 1 4.98629 28.6617
      vertex 1 7 25
      vertex 1 5.23205 29
    endloop
  endfacet
  facet normal 1 0 0
    outer loop
      vertex 1 7 25
      vertex 1 4.98629 28.6617
      vertex 1 6 25
    endloop
  endfacet
  facet normal 1 -0 0
    outer loop
      vertex 1 4.67557 28.382
      vertex 1 6 25
      vertex 1 4.98629 28.6617
    endloop
  endfacet
  facet normal 1 -0 0
    outer loop
      vertex 1 4.31347 28.1729
      vertex 1 6 25
      vertex 1 4.67557 28.382
    endloop
  endfacet
  facet normal 1 -0 0
    outer loop
      vertex 1 3.91582 28.0437
      vertex 1 6 25
      vertex 1 4.31347 28.1729
    endloop
  endfacet
  facet normal 1 -0 0
    outer loop
      vertex 1 3.5 28
      vertex 1 6 25
      vertex 1 3.91582 28.0437
    endloop
  endfacet
  facet normal 1 0 0
    outer loop
      vertex 1 1 25
      vertex 1 6 25
      vertex 1 3.5 28
    endloop
  endfacet
  facet normal 1 0 0
    outer loop
      vertex 1 1 25
      vertex 1 3.5 28
      vertex 1 3.08418 28.0437
    endloop
  endfacet
  facet normal 1 0 0
    outer loop
      vertex 1 1 25
      vertex 1 3.08418 28.0437
      vertex 1 2.68653 28.1729
    endloop
  endfacet
  facet normal 1 0 0
    outer loop
      vertex 1 1 25
      vertex 1 2.68653 28.1729
      vertex 1 2.32443 28.382
    endloop
  endfacet
  facet normal 1 0 0
    outer loop
      vertex 1 1 25
      vertex 1 2.32443 28.382
      vertex 1 2.01371 28.6617
    endloop
  endfacet
  facet normal 1 0 0
    outer loop
      vertex 1 0 25
      vertex 1 2.01371 28.6617
      vertex 1 1.76795 29
    endloop
  endfacet
  facet normal 1 -0 0
    outer loop
      vertex 1 0.171303 31.0816
      vertex 1 1.59789 30.618
      vertex 1 0.468911 31.75
    endloop
  endfacet
  facet normal 1 0 0
    outer loop
      vertex 1 0 25
      vertex 1 1.59789 29.382
      vertex 1 1.51096 29.7909
    endloop
  endfacet
  facet normal 1 0 0
    outer loop
      vertex 1 0 25
      vertex 1 1.76795 29
      vertex 1 1.59789 29.382
    endloop
  endfacet
  facet normal 1 0 0
    outer loop
      vertex 1 6 25
      vertex 1 1 25
      vertex 1 6 23
    endloop
  endfacet
  facet normal 1 0 0
    outer loop
      vertex 1 6 23
      vertex 1 1 25
      vertex 1 1 23
    endloop
  endfacet
  facet normal 1 0 0
    outer loop
      vertex 1 1.59789 30.618
      vertex 1 0.171303 31.0816
      vertex 1 1.51096 30.2091
    endloop
  endfacet
  facet normal 1 -0 0
    outer loop
      vertex 1 0.0191736 30.3658
      vertex 1 1.51096 30.2091
      vertex 1 0.171303 31.0816
    endloop
  endfacet
  facet normal 1 0 0
    outer loop
      vertex 1 0.0191736 30
      vertex 1 1.51096 30.2091
      vertex 1 0.0191736 30.3658
    endloop
  endfacet
  facet normal 1 0 0
    outer loop
      vertex 1 1.51096 30.2091
      vertex 1 0.0191736 30
      vertex 1 1.51096 29.7909
    endloop
  endfacet
  facet normal 1 0 0
    outer loop
      vertex 1 0 25
      vertex 1 1.51096 29.7909
      vertex 1 0.0191736 30
    endloop
  endfacet
  facet normal 1 0 0
    outer loop
      vertex 1 0 25
      vertex 1 0.0191736 30
      vertex 1 0 30
    endloop
  endfacet
  facet normal 1 0 0
    outer loop
      vertex 1 2.01371 28.6617
      vertex 1 0 25
      vertex 1 1 25
    endloop
  endfacet
  facet normal 1 0 0
    outer loop
      vertex 1 6.8287 31.0816
      vertex 1 5.40211 30.618
      vertex 1 5.48904 30.2091
    endloop
  endfacet
  facet normal 1 0 0
    outer loop
      vertex 1 6.53109 31.75
      vertex 1 5.23205 31
      vertex 1 5.40211 30.618
    endloop
  endfacet
  facet normal 1 0 0
    outer loop
      vertex 1 6.10101 32.342
      vertex 1 4.98629 31.3383
      vertex 1 5.23205 31
    endloop
  endfacet
  facet normal 1 0 0
    outer loop
      vertex 1 4.67557 31.618
      vertex 1 5.55725 32.8316
      vertex 1 4.92358 33.1974
    endloop
  endfacet
  facet normal 1 0 0
    outer loop
      vertex 1 5.55725 32.8316
      vertex 1 4.67557 31.618
      vertex 1 4.98629 31.3383
    endloop
  endfacet
  facet normal 1 0 0
    outer loop
      vertex 1 4.92358 33.1974
      vertex 1 4.31347 31.8271
      vertex 1 4.67557 31.618
    endloop
  endfacet
  facet normal 1 0 0
    outer loop
      vertex 1 4.22769 33.4235
      vertex 1 4.31347 31.8271
      vertex 1 4.92358 33.1974
    endloop
  endfacet
  facet normal 1 0 0
    outer loop
      vertex 1 4.22769 33.4235
      vertex 1 3.91582 31.9563
      vertex 1 4.31347 31.8271
    endloop
  endfacet
  facet normal 1 0 0
    outer loop
      vertex 1 3.5 33.5
      vertex 1 3.91582 31.9563
      vertex 1 4.22769 33.4235
    endloop
  endfacet
  facet normal 1 0 0
    outer loop
      vertex 1 3.5 33.5
      vertex 1 3.5 32
      vertex 1 3.91582 31.9563
    endloop
  endfacet
  facet normal 1 0 0
    outer loop
      vertex 1 3.5 33.5
      vertex 1 3.08418 31.9563
      vertex 1 3.5 32
    endloop
  endfacet
  facet normal 1 -0 0
    outer loop
      vertex 1 2.77231 33.4235
      vertex 1 3.08418 31.9563
      vertex 1 3.5 33.5
    endloop
  endfacet
  facet normal 1 0 0
    outer loop
      vertex 1 2.77231 33.4235
      vertex 1 2.68653 31.8271
      vertex 1 3.08418 31.9563
    endloop
  endfacet
  facet normal 1 -0 0
    outer loop
      vertex 1 2.07642 33.1974
      vertex 1 2.68653 31.8271
      vertex 1 2.77231 33.4235
    endloop
  endfacet
  facet normal 1 0 0
    outer loop
      vertex 1 2.68653 31.8271
      vertex 1 2.07642 33.1974
      vertex 1 2.32443 31.618
    endloop
  endfacet
  facet normal 1 -0 0
    outer loop
      vertex 1 1.44275 32.8316
      vertex 1 2.32443 31.618
      vertex 1 2.07642 33.1974
    endloop
  endfacet
  facet normal 1 0 0
    outer loop
      vertex 1 2.32443 31.618
      vertex 1 1.44275 32.8316
      vertex 1 2.01371 31.3383
    endloop
  endfacet
  facet normal 1 -0 0
    outer loop
      vertex 1 0.898993 32.342
      vertex 1 2.01371 31.3383
      vertex 1 1.44275 32.8316
    endloop
  endfacet
  facet normal 1 0 0
    outer loop
      vertex 1 2.01371 31.3383
      vertex 1 0.898993 32.342
      vertex 1 1.76795 31
    endloop
  endfacet
  facet normal 1 0 0
    outer loop
      vertex 1 1.76795 31
      vertex 1 0.468911 31.75
      vertex 1 1.59789 30.618
    endloop
  endfacet
  facet normal 1 -0 0
    outer loop
      vertex 1 0.468911 31.75
      vertex 1 1.76795 31
      vertex 1 0.898993 32.342
    endloop
  endfacet
  facet normal -0 0 1
    outer loop
      vertex 1 6 1
      vertex 27.5 1 1
      vertex 27.5 6 1
    endloop
  endfacet
  facet normal 0 0 1
    outer loop
      vertex 27.5 1 1
      vertex 1 6 1
      vertex 1 1 1
    endloop
  endfacet
  facet normal 0 0 1
    outer loop
      vertex 28.5 7 25
      vertex 27.5 6 25
      vertex 28.5 0 25
    endloop
  endfacet
  facet normal -0 0 1
    outer loop
      vertex 23.5 7 25
      vertex 27.5 6 25
      vertex 28.5 7 25
    endloop
  endfacet
  facet normal 0 0 1
    outer loop
      vertex 27.5 6 25
      vertex 23.5 7 25
      vertex 23.5 6 25
    endloop
  endfacet
  facet normal -0 0 1
    outer loop
      vertex 27.5 1 25
      vertex 28.5 0 25
      vertex 27.5 6 25
    endloop
  endfacet
  facet normal 0 0 1
    outer loop
      vertex 1 0 25
      vertex 27.5 1 25
      vertex 1 1 25
    endloop
  endfacet
  facet normal 0 0 1
    outer loop
      vertex 27.5 1 25
      vertex 1 0 25
      vertex 28.5 0 25
    endloop
  endfacet
  facet normal -0 0 1
    outer loop
      vertex 1 7 25
      vertex 5 6 25
      vertex 5 7 25
    endloop
  endfacet
  facet normal 0 0 1
    outer loop
      vertex 5 6 25
      vertex 1 7 25
      vertex 1 6 25
    endloop
  endfacet
  facet normal -1 0 0
    outer loop
      vertex 23.5 6 6
      vertex 23.5 7 25
      vertex 23.5 7 6
    endloop
  endfacet
  facet normal -1 -0 0
    outer loop
      vertex 23.5 7 25
      vertex 23.5 6 6
      vertex 23.5 6 25
    endloop
  endfacet
  facet normal 0 1 0
    outer loop
      vertex 28.5 7 25
      vertex 23.5 7 6
      vertex 23.5 7 25
    endloop
  endfacet
  facet normal 0 1 0
    outer loop
      vertex 23.5 7 6
      vertex 28.5 7 0
      vertex 5 7 6
    endloop
  endfacet
  facet normal 0 1 -0
    outer loop
      vertex 28.5 7 0
      vertex 23.5 7 6
      vertex 28.5 7 25
    endloop
  endfacet
  facet normal 0 1 0
    outer loop
      vertex 5 7 25
      vertex 5 7 6
      vertex 1 7 25
    endloop
  endfacet
  facet normal 0 1 -0
    outer loop
      vertex 1 7 25
      vertex 0 7 30
      vertex 1 7 30
    endloop
  endfacet
  facet normal 0 1 0
    outer loop
      vertex 1 7 25
      vertex 0 7 0
      vertex 0 7 30
    endloop
  endfacet
  facet normal 0 1 0
    outer loop
      vertex 5 7 6
      vertex 0 7 0
      vertex 1 7 25
    endloop
  endfacet
  facet normal 0 1 0
    outer loop
      vertex 0 7 0
      vertex 5 7 6
      vertex 28.5 7 0
    endloop
  endfacet
  facet normal 1 -0 0
    outer loop
      vertex 5 6 25
      vertex 5 7 6
      vertex 5 7 25
    endloop
  endfacet
  facet normal 1 0 0
    outer loop
      vertex 5 7 6
      vertex 5 6 25
      vertex 5 6 6
    endloop
  endfacet
  facet normal -0 0 1
    outer loop
      vertex 5 7 6
      vertex 23.5 6 6
      vertex 23.5 7 6
    endloop
  endfacet
  facet normal 0 0 1
    outer loop
      vertex 23.5 6 6
      vertex 5 7 6
      vertex 5 6 6
    endloop
  endfacet
  facet normal 1 -0 0
    outer loop
      vertex 28.5 0 25
      vertex 28.5 7 0
      vertex 28.5 7 25
    endloop
  endfacet
  facet normal 1 0 0
    outer loop
      vertex 28.5 7 0
      vertex 28.5 0 25
      vertex 28.5 0 0
    endloop
  endfacet
  facet normal 0 -1 0
    outer loop
      vertex 0 0 30
      vertex 1 0 25
      vertex 1 0 30
    endloop
  endfacet
  facet normal 0 -1 0
    outer loop
      vertex 0 0 0
      vertex 1 0 25
      vertex 0 0 30
    endloop
  endfacet
  facet normal 0 -1 0
    outer loop
      vertex 28.5 0 0
      vertex 1 0 25
      vertex 0 0 0
    endloop
  endfacet
  facet normal 0 -1 0
    outer loop
      vertex 1 0 25
      vertex 28.5 0 0
      vertex 28.5 0 25
    endloop
  endfacet
  facet normal -1 0 0
    outer loop
      vertex 0 4.67557 28.382
      vertex 0 7 30
      vertex 0 7 0
    endloop
  endfacet
  facet normal -1 0 0
    outer loop
      vertex 0 5.48904 30.2091
      vertex 0 6.98083 30.3658
      vertex 0 6.98083 30
    endloop
  endfacet
  facet normal -1 0 -0
    outer loop
      vertex 0 4.98629 28.6617
      vertex 0 7 30
      vertex 0 4.67557 28.382
    endloop
  endfacet
  facet normal -1 0 -0
    outer loop
      vertex 0 5.40211 29.382
      vertex 0 6.98083 30
      vertex 0 5.23205 29
    endloop
  endfacet
  facet normal -1 0 0
    outer loop
      vertex 0 5.48904 30.2091
      vertex 0 6.98083 30
      vertex 0 5.48904 29.7909
    endloop
  endfacet
  facet normal -1 0 0
    outer loop
      vertex 0 5.40211 30.618
      vertex 0 6.8287 31.0816
      vertex 0 5.48904 30.2091
    endloop
  endfacet
  facet normal -1 -0 0
    outer loop
      vertex 0 6.8287 31.0816
      vertex 0 5.40211 30.618
      vertex 0 6.53109 31.75
    endloop
  endfacet
  facet normal -1 -0 0
    outer loop
      vertex 0 6.98083 30.3658
      vertex 0 5.48904 30.2091
      vertex 0 6.8287 31.0816
    endloop
  endfacet
  facet normal -1 0 -0
    outer loop
      vertex 0 5.48904 29.7909
      vertex 0 6.98083 30
      vertex 0 5.40211 29.382
    endloop
  endfacet
  facet normal -1 -0 0
    outer loop
      vertex 0 7 30
      vertex 0 5.23205 29
      vertex 0 6.98083 30
    endloop
  endfacet
  facet normal -1 0 -0
    outer loop
      vertex 0 5.23205 29
      vertex 0 7 30
      vertex 0 4.98629 28.6617
    endloop
  endfacet
  facet normal -1 0 0
    outer loop
      vertex 0 7 0
      vertex 0 4.31347 28.1729
      vertex 0 4.67557 28.382
    endloop
  endfacet
  facet normal -1 0 0
    outer loop
      vertex 0 7 0
      vertex 0 3.91582 28.0437
      vertex 0 4.31347 28.1729
    endloop
  endfacet
  facet normal -1 0 0
    outer loop
      vertex 0 7 0
      vertex 0 3.5 28
      vertex 0 3.91582 28.0437
    endloop
  endfacet
  facet normal -1 0 0
    outer loop
      vertex 0 0 0
      vertex 0 3.5 28
      vertex 0 7 0
    endloop
  endfacet
  facet normal -1 -0 0
    outer loop
      vertex 0 3.5 28
      vertex 0 0 0
      vertex 0 3.08418 28.0437
    endloop
  endfacet
  facet normal -1 -0 0
    outer loop
      vertex 0 3.08418 28.0437
      vertex 0 0 0
      vertex 0 2.68653 28.1729
    endloop
  endfacet
  facet normal -1 -0 0
    outer loop
      vertex 0 2.68653 28.1729
      vertex 0 0 0
      vertex 0 2.32443 28.382
    endloop
  endfacet
  facet normal -1 0 0
    outer loop
      vertex 0 0 30
      vertex 0 2.32443 28.382
      vertex 0 0 0
    endloop
  endfacet
  facet normal -1 0 0
    outer loop
      vertex 0 2.32443 28.382
      vertex 0 0 30
      vertex 0 2.01371 28.6617
    endloop
  endfacet
  facet normal -1 0 0
    outer loop
      vertex 0 2.01371 28.6617
      vertex 0 0 30
      vertex 0 1.76795 29
    endloop
  endfacet
  facet normal -1 0 0
    outer loop
      vertex 0 0.0191736 30
      vertex 0 1.51096 30.2091
      vertex 0 1.51096 29.7909
    endloop
  endfacet
  facet normal -1 0 0
    outer loop
      vertex 0 1.51096 30.2091
      vertex 0 0.898993 32.342
      vertex 0 1.44275 32.8316
    endloop
  endfacet
  facet normal -1 -0 -0
    outer loop
      vertex 0 0.0191736 30
      vertex 0 1.76795 29
      vertex 0 0 30
    endloop
  endfacet
  facet normal -1 -0 0
    outer loop
      vertex 0 1.51096 30.2091
      vertex 0 0.0191736 30
      vertex 0 0.0191736 30.3658
    endloop
  endfacet
  facet normal -1 0 0
    outer loop
      vertex 0 1.51096 30.2091
      vertex 0 0.468911 31.75
      vertex 0 0.898993 32.342
    endloop
  endfacet
  facet normal -1 0 0
    outer loop
      vertex 0 1.51096 30.2091
      vertex 0 0.171303 31.0816
      vertex 0 0.468911 31.75
    endloop
  endfacet
  facet normal -1 0 0
    outer loop
      vertex 0 1.76795 29
      vertex 0 0.0191736 30
      vertex 0 1.59789 29.382
    endloop
  endfacet
  facet normal -1 0 0
    outer loop
      vertex 0 1.59789 29.382
      vertex 0 0.0191736 30
      vertex 0 1.51096 29.7909
    endloop
  endfacet
  facet normal -1 0 0
    outer loop
      vertex 0 5.23205 31
      vertex 0 6.53109 31.75
      vertex 0 5.40211 30.618
    endloop
  endfacet
  facet normal -1 -0 0
    outer loop
      vertex 0 6.53109 31.75
      vertex 0 5.23205 31
      vertex 0 6.10101 32.342
    endloop
  endfacet
  facet normal -1 0 0
    outer loop
      vertex 0 4.98629 31.3383
      vertex 0 6.10101 32.342
      vertex 0 5.23205 31
    endloop
  endfacet
  facet normal -1 -0 0
    outer loop
      vertex 0 6.10101 32.342
      vertex 0 4.98629 31.3383
      vertex 0 5.55725 32.8316
    endloop
  endfacet
  facet normal -1 0 0
    outer loop
      vertex 0 4.67557 31.618
      vertex 0 5.55725 32.8316
      vertex 0 4.98629 31.3383
    endloop
  endfacet
  facet normal -1 -0 0
    outer loop
      vertex 0 5.55725 32.8316
      vertex 0 4.67557 31.618
      vertex 0 4.92358 33.1974
    endloop
  endfacet
  facet normal -1 0 0
    outer loop
      vertex 0 4.31347 31.8271
      vertex 0 4.92358 33.1974
      vertex 0 4.67557 31.618
    endloop
  endfacet
  facet normal -1 0 0
    outer loop
      vertex 0 4.31347 31.8271
      vertex 0 4.22769 33.4235
      vertex 0 4.92358 33.1974
    endloop
  endfacet
  facet normal -1 0 0
    outer loop
      vertex 0 3.91582 31.9563
      vertex 0 4.22769 33.4235
      vertex 0 4.31347 31.8271
    endloop
  endfacet
  facet normal -1 0 0
    outer loop
      vertex 0 3.5 32
      vertex 0 4.22769 33.4235
      vertex 0 3.91582 31.9563
    endloop
  endfacet
  facet normal -1 0 0
    outer loop
      vertex 0 3.5 32
      vertex 0 3.5 33.5
      vertex 0 4.22769 33.4235
    endloop
  endfacet
  facet normal -1 0 0
    outer loop
      vertex 0 3.08418 31.9563
      vertex 0 3.5 33.5
      vertex 0 3.5 32
    endloop
  endfacet
  facet normal -1 0 0
    outer loop
      vertex 0 3.08418 31.9563
      vertex 0 2.77231 33.4235
      vertex 0 3.5 33.5
    endloop
  endfacet
  facet normal -1 0 0
    outer loop
      vertex 0 2.68653 31.8271
      vertex 0 2.77231 33.4235
      vertex 0 3.08418 31.9563
    endloop
  endfacet
  facet normal -1 0 0
    outer loop
      vertex 0 2.07642 33.1974
      vertex 0 2.68653 31.8271
      vertex 0 2.32443 31.618
    endloop
  endfacet
  facet normal -1 0 0
    outer loop
      vertex 0 2.68653 31.8271
      vertex 0 2.07642 33.1974
      vertex 0 2.77231 33.4235
    endloop
  endfacet
  facet normal -1 0 0
    outer loop
      vertex 0 1.44275 32.8316
      vertex 0 2.32443 31.618
      vertex 0 2.01371 31.3383
    endloop
  endfacet
  facet normal -1 0 0
    outer loop
      vertex 0 1.44275 32.8316
      vertex 0 2.01371 31.3383
      vertex 0 1.76795 31
    endloop
  endfacet
  facet normal -1 0 0
    outer loop
      vertex 0 1.44275 32.8316
      vertex 0 1.76795 31
      vertex 0 1.59789 30.618
    endloop
  endfacet
  facet normal -1 0 0
    outer loop
      vertex 0 1.44275 32.8316
      vertex 0 1.59789 30.618
      vertex 0 1.51096 30.2091
    endloop
  endfacet
  facet normal -1 0 0
    outer loop
      vertex 0 2.32443 31.618
      vertex 0 1.44275 32.8316
      vertex 0 2.07642 33.1974
    endloop
  endfacet
  facet normal -1 0 0
    outer loop
      vertex 0 1.51096 30.2091
      vertex 0 0.0191736 30.3658
      vertex 0 0.171303 31.0816
    endloop
  endfacet
  facet normal 0 0 -1
    outer loop
      vertex 0 0 0
      vertex 28.5 7 0
      vertex 28.5 0 0
    endloop
  endfacet
  facet normal -0 0 -1
    outer loop
      vertex 28.5 7 0
      vertex 0 0 0
      vertex 0 7 0
    endloop
  endfacet
  facet normal -0 0 1
    outer loop
      vertex 0 0.0191736 30
      vertex 1 0 30
      vertex 1 0.0191736 30
    endloop
  endfacet
  facet normal 0 0 1
    outer loop
      vertex 1 0 30
      vertex 0 0.0191736 30
      vertex 0 0 30
    endloop
  endfacet
  facet normal -0 0 1
    outer loop
      vertex 0 7 30
      vertex 1 6.98083 30
      vertex 1 7 30
    endloop
  endfacet
  facet normal 0 0 1
    outer loop
      vertex 1 6.98083 30
      vertex 0 7 30
      vertex 0 6.98083 30
    endloop
  endfacet
  facet normal 0 0.913536 0.406758
    outer loop
      vertex 1 6.8287 31.0816
      vertex 0 6.53109 31.75
      vertex 1 6.53109 31.75
    endloop
  endfacet
  facet normal 0 0.913536 0.406758
    outer loop
      vertex 0 6.53109 31.75
      vertex 1 6.8287 31.0816
      vertex 0 6.8287 31.0816
    endloop
  endfacet
  facet normal 0 -0.309007 0.95106
    outer loop
      vertex 0 2.77231 33.4235
      vertex 1 2.07642 33.1974
      vertex 1 2.77231 33.4235
    endloop
  endfacet
  facet normal 0 -0.309007 0.95106
    outer loop
      vertex 1 2.07642 33.1974
      vertex 0 2.77231 33.4235
      vertex 0 2.07642 33.1974
    endloop
  endfacet
  facet normal 0 0.809039 0.587756
    outer loop
      vertex 1 6.53109 31.75
      vertex 0 6.10101 32.342
      vertex 1 6.10101 32.342
    endloop
  endfacet
  facet normal 0 0.809039 0.587756
    outer loop
      vertex 0 6.10101 32.342
      vertex 1 6.53109 31.75
      vertex 0 6.53109 31.75
    endloop
  endfacet
  facet normal 0 -0.809037 0.587757
    outer loop
      vertex 0 0.468911 31.75
      vertex 1 0.898993 32.342
      vertex 0 0.898993 32.342
    endloop
  endfacet
  facet normal 0 -0.809037 0.587757
    outer loop
      vertex 1 0.898993 32.342
      vertex 0 0.468911 31.75
      vertex 1 0.468911 31.75
    endloop
  endfacet
  facet normal -0 0.104551 0.99452
    outer loop
      vertex 0 4.22769 33.4235
      vertex 1 3.5 33.5
      vertex 1 4.22769 33.4235
    endloop
  endfacet
  facet normal 0 0.104551 0.99452
    outer loop
      vertex 1 3.5 33.5
      vertex 0 4.22769 33.4235
      vertex 0 3.5 33.5
    endloop
  endfacet
  facet normal -0 0.669128 0.743147
    outer loop
      vertex 0 6.10101 32.342
      vertex 1 5.55725 32.8316
      vertex 1 6.10101 32.342
    endloop
  endfacet
  facet normal 0 0.669128 0.743147
    outer loop
      vertex 1 5.55725 32.8316
      vertex 0 6.10101 32.342
      vertex 0 5.55725 32.8316
    endloop
  endfacet
  facet normal 0 0.978153 0.207888
    outer loop
      vertex 1 6.98083 30.3658
      vertex 0 6.8287 31.0816
      vertex 1 6.8287 31.0816
    endloop
  endfacet
  facet normal 0 0.978153 0.207888
    outer loop
      vertex 0 6.8287 31.0816
      vertex 1 6.98083 30.3658
      vertex 0 6.98083 30.3658
    endloop
  endfacet
  facet normal -0 0.499949 0.866055
    outer loop
      vertex 0 5.55725 32.8316
      vertex 1 4.92358 33.1974
      vertex 1 5.55725 32.8316
    endloop
  endfacet
  facet normal 0 0.499949 0.866055
    outer loop
      vertex 1 4.92358 33.1974
      vertex 0 5.55725 32.8316
      vertex 0 4.92358 33.1974
    endloop
  endfacet
  facet normal 0 -0.978153 0.207887
    outer loop
      vertex 0 0.0191736 30.3658
      vertex 1 0.171303 31.0816
      vertex 0 0.171303 31.0816
    endloop
  endfacet
  facet normal 0 -0.978153 0.207887
    outer loop
      vertex 1 0.171303 31.0816
      vertex 0 0.0191736 30.3658
      vertex 1 0.0191736 30.3658
    endloop
  endfacet
  facet normal 0 -0.499949 0.866055
    outer loop
      vertex 0 2.07642 33.1974
      vertex 1 1.44275 32.8316
      vertex 1 2.07642 33.1974
    endloop
  endfacet
  facet normal 0 -0.499949 0.866055
    outer loop
      vertex 1 1.44275 32.8316
      vertex 0 2.07642 33.1974
      vertex 0 1.44275 32.8316
    endloop
  endfacet
  facet normal 0 -0.104551 0.99452
    outer loop
      vertex 0 3.5 33.5
      vertex 1 2.77231 33.4235
      vertex 1 3.5 33.5
    endloop
  endfacet
  facet normal 0 -0.104551 0.99452
    outer loop
      vertex 1 2.77231 33.4235
      vertex 0 3.5 33.5
      vertex 0 2.77231 33.4235
    endloop
  endfacet
  facet normal 0 -1 0
    outer loop
      vertex 0 0.0191736 30
      vertex 1 0.0191736 30.3658
      vertex 0 0.0191736 30.3658
    endloop
  endfacet
  facet normal 0 -1 -0
    outer loop
      vertex 1 0.0191736 30.3658
      vertex 0 0.0191736 30
      vertex 1 0.0191736 30
    endloop
  endfacet
  facet normal 0 -0.66913 0.743146
    outer loop
      vertex 0 1.44275 32.8316
      vertex 1 0.898993 32.342
      vertex 1 1.44275 32.8316
    endloop
  endfacet
  facet normal 0 -0.66913 0.743146
    outer loop
      vertex 1 0.898993 32.342
      vertex 0 1.44275 32.8316
      vertex 0 0.898993 32.342
    endloop
  endfacet
  facet normal -0 0.309007 0.95106
    outer loop
      vertex 0 4.92358 33.1974
      vertex 1 4.22769 33.4235
      vertex 1 4.92358 33.1974
    endloop
  endfacet
  facet normal 0 0.309007 0.95106
    outer loop
      vertex 1 4.22769 33.4235
      vertex 0 4.92358 33.1974
      vertex 0 4.22769 33.4235
    endloop
  endfacet
  facet normal 0 1 -0
    outer loop
      vertex 1 6.98083 30
      vertex 0 6.98083 30.3658
      vertex 1 6.98083 30.3658
    endloop
  endfacet
  facet normal 0 1 0
    outer loop
      vertex 0 6.98083 30.3658
      vertex 1 6.98083 30
      vertex 0 6.98083 30
    endloop
  endfacet
  facet normal 0 -0.913537 0.406756
    outer loop
      vertex 0 0.171303 31.0816
      vertex 1 0.468911 31.75
      vertex 0 0.468911 31.75
    endloop
  endfacet
  facet normal 0 -0.913537 0.406756
    outer loop
      vertex 1 0.468911 31.75
      vertex 0 0.171303 31.0816
      vertex 1 0.171303 31.0816
    endloop
  endfacet
  facet normal -0 0.669033 0.743232
    outer loop
      vertex 0 2.32443 28.382
      vertex 1 2.01371 28.6617
      vertex 1 2.32443 28.382
    endloop
  endfacet
  facet normal 0 0.669033 0.743232
    outer loop
      vertex 1 2.01371 28.6617
      vertex 0 2.32443 28.382
      vertex 0 2.01371 28.6617
    endloop
  endfacet
  facet normal 0 0.80905 -0.587739
    outer loop
      vertex 1 1.76795 31
      vertex 0 2.01371 31.3383
      vertex 1 2.01371 31.3383
    endloop
  endfacet
  facet normal 0 0.80905 -0.587739
    outer loop
      vertex 0 2.01371 31.3383
      vertex 1 1.76795 31
      vertex 0 1.76795 31
    endloop
  endfacet
  facet normal 0 0.309008 -0.95106
    outer loop
      vertex 0 2.68653 31.8271
      vertex 1 3.08418 31.9563
      vertex 1 2.68653 31.8271
    endloop
  endfacet
  facet normal 0 0.309008 -0.95106
    outer loop
      vertex 1 3.08418 31.9563
      vertex 0 2.68653 31.8271
      vertex 0 3.08418 31.9563
    endloop
  endfacet
  facet normal 0 -0.913561 -0.406702
    outer loop
      vertex 0 5.40211 30.618
      vertex 1 5.23205 31
      vertex 0 5.23205 31
    endloop
  endfacet
  facet normal 0 -0.913561 -0.406702
    outer loop
      vertex 1 5.23205 31
      vertex 0 5.40211 30.618
      vertex 1 5.40211 30.618
    endloop
  endfacet
  facet normal 0 -0.97814 -0.207947
    outer loop
      vertex 0 5.48904 30.2091
      vertex 1 5.40211 30.618
      vertex 0 5.40211 30.618
    endloop
  endfacet
  facet normal 0 -0.97814 -0.207947
    outer loop
      vertex 1 5.40211 30.618
      vertex 0 5.48904 30.2091
      vertex 1 5.48904 30.2091
    endloop
  endfacet
  facet normal 0 -0.104518 -0.994523
    outer loop
      vertex 0 3.5 32
      vertex 1 3.91582 31.9563
      vertex 1 3.5 32
    endloop
  endfacet
  facet normal -0 -0.104518 -0.994523
    outer loop
      vertex 1 3.91582 31.9563
      vertex 0 3.5 32
      vertex 0 3.91582 31.9563
    endloop
  endfacet
  facet normal 0 0.500074 -0.865982
    outer loop
      vertex 0 2.32443 31.618
      vertex 1 2.68653 31.8271
      vertex 1 2.32443 31.618
    endloop
  endfacet
  facet normal 0 0.500074 -0.865982
    outer loop
      vertex 1 2.68653 31.8271
      vertex 0 2.32443 31.618
      vertex 0 2.68653 31.8271
    endloop
  endfacet
  facet normal 0 -0.500074 -0.865982
    outer loop
      vertex 0 4.31347 31.8271
      vertex 1 4.67557 31.618
      vertex 1 4.31347 31.8271
    endloop
  endfacet
  facet normal -0 -0.500074 -0.865982
    outer loop
      vertex 1 4.67557 31.618
      vertex 0 4.31347 31.8271
      vertex 0 4.67557 31.618
    endloop
  endfacet
  facet normal 0 -0.104518 0.994523
    outer loop
      vertex 0 3.91582 28.0437
      vertex 1 3.5 28
      vertex 1 3.91582 28.0437
    endloop
  endfacet
  facet normal 0 -0.104518 0.994523
    outer loop
      vertex 1 3.5 28
      vertex 0 3.91582 28.0437
      vertex 0 3.5 28
    endloop
  endfacet
  facet normal 0 -0.309008 0.95106
    outer loop
      vertex 0 4.31347 28.1729
      vertex 1 3.91582 28.0437
      vertex 1 4.31347 28.1729
    endloop
  endfacet
  facet normal 0 -0.309008 0.95106
    outer loop
      vertex 1 3.91582 28.0437
      vertex 0 4.31347 28.1729
      vertex 0 3.91582 28.0437
    endloop
  endfacet
  facet normal -0 0.104518 0.994523
    outer loop
      vertex 0 3.5 28
      vertex 1 3.08418 28.0437
      vertex 1 3.5 28
    endloop
  endfacet
  facet normal 0 0.104518 0.994523
    outer loop
      vertex 1 3.08418 28.0437
      vertex 0 3.5 28
      vertex 0 3.08418 28.0437
    endloop
  endfacet
  facet normal 0 -1 0
    outer loop
      vertex 0 5.48904 29.7909
      vertex 1 5.48904 30.2091
      vertex 0 5.48904 30.2091
    endloop
  endfacet
  facet normal 0 -1 -0
    outer loop
      vertex 1 5.48904 30.2091
      vertex 0 5.48904 29.7909
      vertex 1 5.48904 29.7909
    endloop
  endfacet
  facet normal 0 0.104518 -0.994523
    outer loop
      vertex 0 3.08418 31.9563
      vertex 1 3.5 32
      vertex 1 3.08418 31.9563
    endloop
  endfacet
  facet normal 0 0.104518 -0.994523
    outer loop
      vertex 1 3.5 32
      vertex 0 3.08418 31.9563
      vertex 0 3.5 32
    endloop
  endfacet
  facet normal 0 -0.309008 -0.95106
    outer loop
      vertex 0 3.91582 31.9563
      vertex 1 4.31347 31.8271
      vertex 1 3.91582 31.9563
    endloop
  endfacet
  facet normal -0 -0.309008 -0.95106
    outer loop
      vertex 1 4.31347 31.8271
      vertex 0 3.91582 31.9563
      vertex 0 4.31347 31.8271
    endloop
  endfacet
  facet normal 0 -0.80905 0.587739
    outer loop
      vertex 0 4.98629 28.6617
      vertex 1 5.23205 29
      vertex 0 5.23205 29
    endloop
  endfacet
  facet normal 0 -0.80905 0.587739
    outer loop
      vertex 1 5.23205 29
      vertex 0 4.98629 28.6617
      vertex 1 4.98629 28.6617
    endloop
  endfacet
  facet normal -0 0.309008 0.95106
    outer loop
      vertex 0 3.08418 28.0437
      vertex 1 2.68653 28.1729
      vertex 1 3.08418 28.0437
    endloop
  endfacet
  facet normal 0 0.309008 0.95106
    outer loop
      vertex 1 2.68653 28.1729
      vertex 0 3.08418 28.0437
      vertex 0 2.68653 28.1729
    endloop
  endfacet
  facet normal 0 0.913561 0.406702
    outer loop
      vertex 1 1.76795 29
      vertex 0 1.59789 29.382
      vertex 1 1.59789 29.382
    endloop
  endfacet
  facet normal 0 0.913561 0.406702
    outer loop
      vertex 0 1.59789 29.382
      vertex 1 1.76795 29
      vertex 0 1.76795 29
    endloop
  endfacet
  facet normal 0 -0.80905 -0.587739
    outer loop
      vertex 0 5.23205 31
      vertex 1 4.98629 31.3383
      vertex 0 4.98629 31.3383
    endloop
  endfacet
  facet normal 0 -0.80905 -0.587739
    outer loop
      vertex 1 4.98629 31.3383
      vertex 0 5.23205 31
      vertex 1 5.23205 31
    endloop
  endfacet
  facet normal 0 1 -0
    outer loop
      vertex 1 1.51096 29.7909
      vertex 0 1.51096 30.2091
      vertex 1 1.51096 30.2091
    endloop
  endfacet
  facet normal 0 1 0
    outer loop
      vertex 0 1.51096 30.2091
      vertex 1 1.51096 29.7909
      vertex 0 1.51096 29.7909
    endloop
  endfacet
  facet normal 0 0.80905 0.587739
    outer loop
      vertex 1 2.01371 28.6617
      vertex 0 1.76795 29
      vertex 1 1.76795 29
    endloop
  endfacet
  facet normal 0 0.80905 0.587739
    outer loop
      vertex 0 1.76795 29
      vertex 1 2.01371 28.6617
      vertex 0 2.01371 28.6617
    endloop
  endfacet
  facet normal 0 0.669033 -0.743232
    outer loop
      vertex 0 2.01371 31.3383
      vertex 1 2.32443 31.618
      vertex 1 2.01371 31.3383
    endloop
  endfacet
  facet normal 0 0.669033 -0.743232
    outer loop
      vertex 1 2.32443 31.618
      vertex 0 2.01371 31.3383
      vertex 0 2.32443 31.618
    endloop
  endfacet
  facet normal 0 -0.97814 0.207947
    outer loop
      vertex 0 5.40211 29.382
      vertex 1 5.48904 29.7909
      vertex 0 5.48904 29.7909
    endloop
  endfacet
  facet normal 0 -0.97814 0.207947
    outer loop
      vertex 1 5.48904 29.7909
      vertex 0 5.40211 29.382
      vertex 1 5.40211 29.382
    endloop
  endfacet
  facet normal 0 0.913561 -0.406702
    outer loop
      vertex 1 1.59789 30.618
      vertex 0 1.76795 31
      vertex 1 1.76795 31
    endloop
  endfacet
  facet normal 0 0.913561 -0.406702
    outer loop
      vertex 0 1.76795 31
      vertex 1 1.59789 30.618
      vertex 0 1.59789 30.618
    endloop
  endfacet
  facet normal 0 0.97814 -0.207947
    outer loop
      vertex 1 1.51096 30.2091
      vertex 0 1.59789 30.618
      vertex 1 1.59789 30.618
    endloop
  endfacet
  facet normal 0 0.97814 -0.207947
    outer loop
      vertex 0 1.59789 30.618
      vertex 1 1.51096 30.2091
      vertex 0 1.51096 30.2091
    endloop
  endfacet
  facet normal 0 -0.500074 0.865982
    outer loop
      vertex 0 4.67557 28.382
      vertex 1 4.31347 28.1729
      vertex 1 4.67557 28.382
    endloop
  endfacet
  facet normal 0 -0.500074 0.865982
    outer loop
      vertex 1 4.31347 28.1729
      vertex 0 4.67557 28.382
      vertex 0 4.31347 28.1729
    endloop
  endfacet
  facet normal 0 -0.913561 0.406702
    outer loop
      vertex 0 5.23205 29
      vertex 1 5.40211 29.382
      vertex 0 5.40211 29.382
    endloop
  endfacet
  facet normal 0 -0.913561 0.406702
    outer loop
      vertex 1 5.40211 29.382
      vertex 0 5.23205 29
      vertex 1 5.23205 29
    endloop
  endfacet
  facet normal 0 -0.669033 -0.743232
    outer loop
      vertex 0 4.67557 31.618
      vertex 1 4.98629 31.3383
      vertex 1 4.67557 31.618
    endloop
  endfacet
  facet normal -0 -0.669033 -0.743232
    outer loop
      vertex 1 4.98629 31.3383
      vertex 0 4.67557 31.618
      vertex 0 4.98629 31.3383
    endloop
  endfacet
  facet normal 0 -0.669033 0.743232
    outer loop
      vertex 0 4.98629 28.6617
      vertex 1 4.67557 28.382
      vertex 1 4.98629 28.6617
    endloop
  endfacet
  facet normal 0 -0.669033 0.743232
    outer loop
      vertex 1 4.67557 28.382
      vertex 0 4.98629 28.6617
      vertex 0 4.67557 28.382
    endloop
  endfacet
  facet normal 0 0.97814 0.207947
    outer loop
      vertex 1 1.59789 29.382
      vertex 0 1.51096 29.7909
      vertex 1 1.51096 29.7909
    endloop
  endfacet
  facet normal 0 0.97814 0.207947
    outer loop
      vertex 0 1.51096 29.7909
      vertex 1 1.59789 29.382
      vertex 0 1.59789 29.382
    endloop
  endfacet
  facet normal -0 0.500074 0.865982
    outer loop
      vertex 0 2.68653 28.1729
      vertex 1 2.32443 28.382
      vertex 1 2.68653 28.1729
    endloop
  endfacet
  facet normal 0 0.500074 0.865982
    outer loop
      vertex 1 2.32443 28.382
      vertex 0 2.68653 28.1729
      vertex 0 2.32443 28.382
    endloop
  endfacet
endsolid OpenSCAD_Model
